<?xml version="1.0" encoding="UTF-8" standalone="no"?>
<svg
   xmlns:dc="http://purl.org/dc/elements/1.1/"
   xmlns:cc="http://creativecommons.org/ns#"
   xmlns:rdf="http://www.w3.org/1999/02/22-rdf-syntax-ns#"
   xmlns:svg="http://www.w3.org/2000/svg"
   xmlns="http://www.w3.org/2000/svg"
   xmlns:sodipodi="http://sodipodi.sourceforge.net/DTD/sodipodi-0.dtd"
   xmlns:inkscape="http://www.inkscape.org/namespaces/inkscape"
   width="750pt"
   height="438.00439pt"
   viewBox="0 0 750 438.00439"
   version="1.1"
   id="svg34"
   sodipodi:docname="Bank_Mega_2013.svg"
   inkscape:version="0.92.4 (5da689c313, 2019-01-14)">
  <metadata
     id="metadata40">
    <rdf:RDF>
      <cc:Work
         rdf:about="">
        <dc:format>image/svg+xml</dc:format>
        <dc:type
           rdf:resource="http://purl.org/dc/dcmitype/StillImage" />
        <dc:title></dc:title>
      </cc:Work>
    </rdf:RDF>
  </metadata>
  <defs
     id="defs38" />
  <sodipodi:namedview
     pagecolor="#ffffff"
     bordercolor="#666666"
     borderopacity="1"
     objecttolerance="10"
     gridtolerance="10"
     guidetolerance="10"
     inkscape:pageopacity="0"
     inkscape:pageshadow="2"
     inkscape:window-width="1920"
     inkscape:window-height="1001"
     id="namedview36"
     showgrid="false"
     fit-margin-top="0"
     fit-margin-left="0"
     fit-margin-right="0"
     fit-margin-bottom="0"
     inkscape:zoom="0.18653705"
     inkscape:cx="908.66667"
     inkscape:cy="530.6667"
     inkscape:window-x="-9"
     inkscape:window-y="-9"
     inkscape:window-maximized="1"
     inkscape:current-layer="svg34" />
  <g
     id="g866"
     transform="scale(0.55025677)">
    <g
       id="#ffffffff" />
    <g
       id="#ffca08ff">
      <path
         id="path3"
         d="m 393.95,0 h 218.49 c -36.37,81.83 -72.82,163.63 -109.25,245.44 -34.16,76.77 -68.35,153.53 -102.52,230.29 -72.87,0.03 -145.74,0.02 -218.6,0.01 C 252.7,317.16 323.27,158.55 393.95,0 Z"
         inkscape:connector-curvature="0"
         style="opacity:1;fill:#ffca08" />
    </g>
    <g
       id="#fa9d1cff">
      <path
         id="path6"
         d="m 612.44,0 h 0.06 c 22.89,51.55 45.92,103.04 68.8,154.6 l 0.16,0.36 c -15.61,34.05 -30.52,68.42 -45.84,102.6 -17.63,39.43 -35.12,78.93 -52.73,118.37 -3.72,7.92 -6.71,16.18 -10.97,23.83 C 548.99,348.33 526.11,296.87 503.19,245.44 539.62,163.63 576.07,81.83 612.44,0 Z"
         inkscape:connector-curvature="0"
         style="opacity:1;fill:#fa9d1c" />
    </g>
    <g
       id="#9e9fa3ff">
      <path
         id="path9"
         d="m 750.19,0 h 0.06 c 36.41,81.85 72.86,163.68 109.31,245.51 -23.11,51.46 -45.88,103.08 -68.93,154.57 C 754.11,318.43 717.85,236.67 681.46,154.96 L 681.3,154.6 C 704.39,103.12 727.28,51.55 750.19,0 Z"
         inkscape:connector-curvature="0"
         style="opacity:1;fill:#9e9fa3" />
    </g>
    <g
       id="#636466ff">
      <path
         id="path12"
         d="m 750.25,0 h 218.49 c 70.72,158.54 141.26,317.16 211.91,475.73 -72.85,0.07 -145.71,0.01 -218.56,0.03 C 927.88,399.02 893.72,322.26 859.56,245.51 823.11,163.68 786.66,81.85 750.25,0 Z"
         inkscape:connector-curvature="0"
         style="opacity:1;fill:#636466" />
      <path
         id="path14"
         d="m 1072.59,609.58 c 14.08,-7.71 30.72,-9.17 46.45,-7.51 14.58,1.54 29.03,7.06 39.87,17.12 12.56,11.45 19.69,27.84 22.08,44.47 -15.45,0.01 -30.9,0.02 -46.35,-0.01 -1.99,-7.54 -5.89,-15.49 -13.5,-18.66 -9.48,-3.8 -21.74,-3.71 -29.54,3.61 -5.31,4.94 -6.69,12.44 -7.52,19.31 -1.55,14.66 -1.33,29.43 -1.11,44.14 0.44,9.83 0.48,19.93 3.61,29.37 2.37,7.36 9.45,12.39 17,13.26 8.91,1.06 19.14,-0.66 25.3,-7.76 5.49,-6.43 6.53,-15.32 6.57,-23.47 -9.23,-0.28 -18.47,-0.03 -27.7,-0.12 -0.01,-12.86 -0.02,-25.72 0.01,-38.58 24.49,0 48.98,-0.01 73.48,0.01 -0.38,22.14 1.75,44.89 -4.81,66.38 -4.72,16.03 -16.79,29.19 -31.35,37 -9.38,5.03 -20.01,7.11 -30.53,7.86 h -12.18 c -10.19,-0.72 -20.38,-3.07 -29.42,-7.94 -13.73,-7.39 -25.55,-19.28 -30.65,-34.24 -6.97,-19.81 -5.39,-41.16 -5.64,-61.79 0.02,-16.24 0.11,-32.94 5.66,-48.42 5.1,-14.8 16.78,-26.54 30.27,-34.03 z"
         inkscape:connector-curvature="0"
         style="opacity:1;fill:#636466" />
      <path
         id="path16"
         d="m 0,605.18 c 17.66,0.55 35.36,0.08 53.04,0.24 11.63,0.22 23.47,-0.91 34.88,1.95 12.12,2.82 23.61,9.74 30.37,20.37 6.84,10.62 8.84,23.92 6.83,36.26 -2.44,14.49 -12.79,27.41 -26.63,32.52 9.65,3.72 18.37,10.27 23.67,19.26 7.68,12.73 8.11,28.71 4.28,42.77 -3.46,12.75 -12.9,23.58 -25.01,28.83 -8.89,4.03 -18.75,5.56 -28.46,5.54 -24.32,-0.02 -48.65,0 -72.97,-0.01 V 605.18 m 20.11,18.23 c -0.06,21.64 -0.01,43.27 -0.02,64.91 16.64,0.03 33.29,0.01 49.94,0.01 10.26,-0.13 21.22,-3.06 28.29,-10.93 6.83,-7.55 8.46,-18.47 6.94,-28.25 -1.06,-7 -4.6,-13.72 -10.26,-18.07 -7.04,-5.52 -16.19,-7.53 -24.97,-7.66 -16.64,-0.02 -33.28,0.01 -49.92,-0.01 m -0.01,82.92 c -0.03,22.86 -0.02,45.72 -0.01,68.58 15.3,0.01 30.59,0 45.89,0.01 6.39,0.1 12.89,0.06 19.06,-1.86 9.18,-2.57 17.37,-9.15 20.93,-18.12 5.04,-12.79 3.37,-29.14 -6.92,-38.92 -7.96,-7.62 -19.44,-10.01 -30.13,-9.7 -16.28,0.02 -32.55,0.01 -48.82,0.01 z"
         inkscape:connector-curvature="0"
         style="opacity:1;fill:#636466" />
      <path
         id="path18"
         d="m 210.29,605.42 c 5.65,0.01 11.3,-0.05 16.96,0.03 22.88,62.46 45.72,124.94 68.7,187.36 -7.17,0.19 -14.35,0.13 -21.52,0.04 -4.94,-14.13 -9.87,-28.26 -15.01,-42.31 -27.23,0.1 -54.46,0.01 -81.69,0.04 -5.02,14.1 -10,28.21 -14.98,42.32 -7.15,0.04 -14.3,-0.01 -21.44,0.02 22.95,-62.51 45.98,-125 68.98,-187.5 m 8.44,29.74 c -11.65,32.63 -23.29,65.26 -34.89,97.91 23.28,0.01 46.55,0.03 69.82,-0.01 -11.43,-32.62 -22.88,-65.23 -34.35,-97.84 -0.14,-0.01 -0.43,-0.04 -0.58,-0.06 z"
         inkscape:connector-curvature="0"
         style="opacity:1;fill:#636466" />
      <path
         id="path20"
         d="m 315.58,605.43 c 6.34,-0.04 12.68,-0.01 19.03,-0.01 33.13,49.84 66.22,99.71 99.36,149.55 0.08,-49.86 -0.02,-99.71 0.06,-149.57 6.67,0 13.35,0.06 20.03,-0.03 0.25,62.51 0.04,125.03 0.1,187.54 -6.36,0 -12.71,0 -19.07,0 -33.17,-50 -66.22,-100.08 -99.4,-150.08 -0.06,50.03 -0.02,100.05 -0.02,150.07 -6.69,0.03 -13.39,0 -20.08,0.01 -0.02,-62.49 0,-124.98 -0.01,-187.48 z"
         inkscape:connector-curvature="0"
         style="opacity:1;fill:#636466" />
      <path
         id="path22"
         d="m 497.7,605.52 c 6.7,-0.24 13.41,-0.04 20.13,-0.1 0.02,35.82 -0.04,71.64 0.03,107.47 29.19,-35.78 58.15,-71.75 87.37,-107.5 8.18,0.06 16.35,0 24.53,0.03 -19.64,24.18 -39.37,48.27 -58.98,72.47 22.45,38.35 44.94,76.67 67.37,115.02 -7.96,-0.02 -15.91,0.04 -23.86,-0.03 -18.96,-33.23 -38.03,-66.4 -57.01,-99.62 -12.65,15.01 -25.12,30.18 -37.75,45.21 -0.74,1.03 -1.99,2 -1.7,3.45 0,17 -0.01,33.99 0,50.99 -6.69,0.01 -13.38,0 -20.08,0 -0.04,-62.46 0.07,-124.93 -0.05,-187.39 z"
         inkscape:connector-curvature="0"
         style="opacity:1;fill:#636466" />
      <path
         id="path24"
         d="m 669.33,792.9 c 0.1,-62.49 -0.18,-125 0.14,-187.48 15.09,0.22 30.19,-0.03 45.29,0.13 13.91,27.51 27.98,54.95 41.93,82.45 14.13,-27.45 28.02,-55.02 42.08,-82.5 15.13,0.01 30.26,-0.01 45.4,0.01 -0.01,62.47 0,124.93 -0.01,187.4 -15.38,0.01 -30.77,0 -46.15,0 -0.06,-31.15 0.06,-62.3 -0.06,-93.46 -8.69,15.19 -17.36,30.39 -26.09,45.56 -3.02,5.19 -8.83,8.66 -14.87,8.6 -6.11,0.22 -12.14,-3.12 -15.24,-8.37 -8.83,-15.17 -17.37,-30.51 -26.24,-45.65 -0.02,31.11 0,62.22 -0.02,93.32 -15.39,-0.01 -30.77,0.02 -46.16,-0.01 z"
         inkscape:connector-curvature="0"
         style="opacity:1;fill:#636466" />
      <path
         id="path26"
         d="m 882.67,605.51 c 42.5,-0.02 85,-0.01 127.49,0 0.05,13.64 -0.08,27.29 0.07,40.93 -27.12,0.34 -54.26,0.02 -81.39,0.16 -0.01,10.41 -0.02,20.81 0,31.22 23.17,0.03 46.33,0 69.5,0.02 -0.01,13.72 -0.01,27.43 0,41.15 -23.17,0.04 -46.34,-0.03 -69.5,0.03 -0.01,10.93 -0.02,21.87 0,32.8 27.11,0.03 54.21,0 81.32,0.01 0.01,13.7 0.01,27.39 0,41.08 -42.5,0 -84.99,0.01 -127.48,0 -0.02,-62.47 -0.02,-124.93 -0.01,-187.4 z"
         inkscape:connector-curvature="0"
         style="opacity:1;fill:#636466" />
      <path
         id="path28"
         d="m 1258.92,605.51 c 11.9,0.03 23.81,-0.11 35.72,0.07 15.94,44.23 32.12,88.37 48.15,132.56 6.82,18.23 13,36.72 20.21,54.8 v 0 c -15.93,-0.07 -31.86,0.01 -47.78,-0.04 -3.07,-9.3 -6.1,-18.6 -9.21,-27.89 -19.55,0.02 -39.11,-0.1 -58.66,0.06 -2.95,9.31 -6.08,18.56 -9.13,27.84 -15.82,0.01 -31.64,0 -47.45,0 22.68,-62.48 45.42,-124.94 68.15,-187.4 m 17.73,68.08 c -5.65,17.95 -11.39,35.87 -17.05,53.81 11.41,0.03 22.83,0.01 34.26,0.01 -5.75,-17.94 -11.24,-35.96 -17.21,-53.82 z"
         inkscape:connector-curvature="0"
         style="opacity:1;fill:#636466" />
    </g>
    <g
       id="#f37022ff">
      <path
         id="path31"
         d="m 681.46,154.96 c 36.39,81.71 72.65,163.47 109.17,245.12 -9.78,21.49 -26.2,39.85 -46.33,52.18 -29.82,18.52 -67.91,22.72 -101.14,11.53 -31.24,-10.28 -57.72,-34.04 -71.24,-64.03 4.26,-7.65 7.25,-15.91 10.97,-23.83 17.61,-39.44 35.1,-78.94 52.73,-118.37 15.32,-34.18 30.23,-68.55 45.84,-102.6 z"
         inkscape:connector-curvature="0"
         style="opacity:1;fill:#f37022" />
    </g>
  </g>
</svg>
