<svg width="155" height="127" viewBox="0 0 155 127" fill="none" xmlns="http://www.w3.org/2000/svg">
<g clip-path="url(#clip0_165_4907)">
<path d="M114.033 126.135C104.203 126.135 94.7478 122.454 87.3046 115.705C79.9651 109.051 75.3294 99.959 74.5861 90.7609C73.5803 78.3143 74.5071 42.5724 74.5702 40.1984C74.5396 36.3054 71.331 33.1479 67.3915 33.1479C63.4328 33.1479 60.2124 36.336 60.2124 40.2546C60.2124 41.5367 59.7031 42.7662 58.7966 43.6728C57.89 44.5793 56.6605 45.0886 55.3784 45.0886C54.0964 45.0886 52.8668 44.5793 51.9603 43.6728C51.0537 42.7662 50.5444 41.5367 50.5444 40.2546C50.5444 31.0051 58.1019 23.48 67.3915 23.48C76.681 23.48 84.2383 31.0051 84.2383 40.2546L84.2366 40.3842C84.2265 40.7579 83.2459 77.895 84.2226 89.9821C85.2847 103.123 97.8241 116.899 114.804 116.457C129.576 116.074 145.43 106.209 145.332 85.4539L145.332 58.6112C145.332 57.3291 145.841 56.0996 146.748 55.1931C147.655 54.2865 148.884 53.7772 150.166 53.7772C151.448 53.7772 152.678 54.2865 153.584 55.1931C154.491 56.0996 155 57.3291 155 58.6112L155 85.4242C155.026 91.3323 153.963 96.9063 151.84 101.992C149.833 106.824 146.847 111.188 143.07 114.809C135.763 121.825 125.814 125.842 115.054 126.122C114.714 126.13 114.372 126.135 114.033 126.135Z" fill="#19FACC"/>
<path d="M114.691 114.307C98.9355 114.307 86.1172 101.489 86.1172 85.7338V39.9444C86.1172 37.4616 85.6282 35.0032 84.6781 32.7094C83.728 30.4157 82.3354 28.3315 80.5799 26.5759C78.8243 24.8204 76.7401 23.4278 74.4464 22.4777C72.1526 21.5276 69.6942 21.0386 67.2114 21.0386C64.7287 21.0386 62.2703 21.5276 59.9765 22.4777C57.6828 23.4278 55.5986 24.8204 53.843 26.5759C52.0875 28.3315 50.6949 30.4157 49.7448 32.7094C48.7947 35.0032 48.3057 37.4616 48.3057 39.9444C48.3057 41.2264 47.7964 42.456 46.8898 43.3625C45.9833 44.269 44.7537 44.7783 43.4717 44.7783C42.1896 44.7783 40.9601 44.269 40.0535 43.3625C39.147 42.456 38.6377 41.2264 38.6377 39.9444C38.6377 24.1888 51.4558 11.3706 67.2114 11.3706C82.9669 11.3706 95.7852 24.1887 95.7852 39.9444V85.7338C95.7898 90.7449 97.7837 95.5492 101.329 99.0909C104.874 102.633 109.68 104.622 114.691 104.622C119.702 104.622 124.508 102.633 128.053 99.0909C131.598 95.5492 133.592 90.7449 133.597 85.7338V58.6112C133.597 57.3291 134.106 56.0996 135.013 55.1931C135.919 54.2865 137.149 53.7772 138.431 53.7772C139.713 53.7772 140.942 54.2865 141.849 55.1931C142.755 56.0996 143.265 57.3291 143.265 58.6112V85.7338C143.265 101.489 130.447 114.307 114.691 114.307Z" fill="#19FACC"/>
<path d="M114.611 102.652C105.322 102.652 97.7644 95.1265 97.7644 85.8769L97.7656 85.7684C97.7738 85.4024 98.5785 49.0233 97.7874 36.8743C96.7701 21.2527 83.9672 9.66797 67.8751 9.66797C67.6419 9.66797 67.4087 9.67034 67.174 9.67529C51.8324 9.9947 36.4285 20.7341 36.6709 40.6419C36.6865 41.9239 36.1922 43.1596 35.2967 44.0771C34.4012 44.9946 33.178 45.5188 31.896 45.5344C30.614 45.55 29.3784 45.0557 28.4609 44.1602C27.5433 43.2648 27.0191 42.0415 27.0035 40.7596C26.9318 34.8599 27.9538 29.2869 30.0413 24.1955C32.0178 19.3497 34.9837 14.9697 38.7494 11.3354C46.0723 4.2582 56.0955 0.235941 66.9729 0.00942036C77.3849 -0.208109 87.2407 3.34798 94.7258 10.0203C102.257 16.734 106.771 26.0478 107.435 36.246C108.244 48.6788 107.482 83.7016 107.433 85.9241C107.458 89.8211 110.669 92.9836 114.611 92.9836C118.57 92.9836 121.79 89.7956 121.79 85.8769V58.3644C121.79 57.0823 122.3 55.8528 123.206 54.9463C124.113 54.0397 125.342 53.5304 126.624 53.5304C127.906 53.5304 129.136 54.0397 130.042 54.9463C130.949 55.8528 131.458 57.0823 131.458 58.3644V85.8769C131.458 95.1265 123.901 102.652 114.611 102.652Z" fill="#19FACC"/>
</g>
<g clip-path="url(#clip1_165_4907)">
<path d="M24 78C19.2533 78 14.6131 79.4076 10.6663 82.0447C6.71955 84.6819 3.64341 88.4302 1.8269 92.8156C0.0103988 97.201 -0.464881 102.027 0.461164 106.682C1.38721 111.338 3.67299 115.614 7.02945 118.971C10.3859 122.327 14.6623 124.613 19.3178 125.539C23.9734 126.465 28.799 125.99 33.1844 124.173C37.5698 122.357 41.3181 119.28 43.9553 115.334C46.5924 111.387 48 106.747 48 102C47.9996 95.6349 45.4709 89.5307 40.9701 85.0299C36.4693 80.5291 30.3651 78.0004 24 78ZM24 113.18C21.7891 113.18 19.628 112.524 17.7898 111.295C15.9516 110.067 14.5189 108.321 13.673 106.279C12.827 104.236 12.6057 101.988 13.0371 99.8199C13.4685 97.6515 14.5331 95.6597 16.0964 94.0964C17.6598 92.5331 19.6515 91.4684 21.8199 91.0371C23.9883 90.6057 26.2359 90.827 28.2785 91.673C30.3211 92.5189 32.067 93.9516 33.2955 95.7898C34.5239 97.628 35.1797 99.7891 35.1799 102C35.1799 103.468 34.8908 104.922 34.329 106.278C33.7672 107.635 32.9437 108.867 31.9055 109.906C30.8674 110.944 29.6349 111.767 28.2784 112.329C26.922 112.891 25.4682 113.18 24 113.18Z" fill="#7CCDEF"/>
</g>
<g clip-path="url(#clip2_165_4907)">
<path d="M139 31.9999C130.178 31.9999 123 24.8224 123 16C123 7.17756 130.178 0 139 0C147.822 0 155 7.17756 155 16C155 24.8224 147.822 31.9999 139 31.9999ZM139 4.79755C132.823 4.79755 127.798 9.82294 127.798 16C127.798 22.177 132.823 27.2024 139 27.2024C145.177 27.2024 150.202 22.177 150.202 16C150.202 9.82294 145.177 4.79755 139 4.79755Z" fill="#08407B"/>
</g>
<defs>
<clipPath id="clip0_165_4907">
<rect width="128" height="126.135" fill="white" transform="translate(27)"/>
</clipPath>
<clipPath id="clip1_165_4907">
<rect width="48" height="48" fill="white" transform="translate(0 78)"/>
</clipPath>
<clipPath id="clip2_165_4907">
<rect width="32" height="31.9999" fill="white" transform="translate(123)"/>
</clipPath>
</defs>
</svg>
