<svg width="256" height="211" viewBox="0 0 256 211" fill="none" xmlns="http://www.w3.org/2000/svg">
<circle cx="139.399" cy="95.5247" r="95.5247" fill="#08407B"/>
<circle cx="128.246" cy="114.894" r="95.5247" fill="#19FACC"/>
<g clip-path="url(#clip0_306_9726)">
<path d="M128.269 4.69531C124.927 4.69531 121.66 5.68628 118.881 7.5429C116.103 9.39952 113.937 12.0384 112.658 15.1259C111.379 18.2133 111.045 21.6106 111.697 24.8883C112.349 28.1659 113.958 31.1766 116.321 33.5396C118.684 35.9026 121.695 37.5119 124.972 38.1638C128.25 38.8158 131.647 38.4812 134.735 37.2023C137.822 35.9234 140.461 33.7578 142.318 30.9791C144.174 28.2005 145.165 24.9337 145.165 21.5919C145.165 17.1107 143.385 12.8132 140.216 9.64452C137.047 6.47585 132.75 4.69559 128.269 4.69531ZM128.269 29.4628C126.712 29.4626 125.191 29.001 123.897 28.1361C122.602 27.2713 121.594 26.0421 120.998 24.6041C120.403 23.166 120.247 21.5836 120.55 20.0571C120.854 18.5305 121.604 17.1282 122.704 16.0276C123.805 14.927 125.207 14.1774 126.734 13.8737C128.26 13.57 129.843 13.7258 131.281 14.3214C132.719 14.917 133.948 15.9256 134.813 17.2197C135.678 18.5139 136.139 20.0354 136.14 21.5919C136.14 22.6255 135.936 23.649 135.541 24.604C135.145 25.559 134.565 26.4267 133.834 27.1576C133.103 27.8885 132.236 28.4682 131.281 28.8638C130.326 29.2593 129.302 29.4628 128.269 29.4628Z" fill="#7CCDEF"/>
</g>
<path d="M183.224 104.54C178.461 104.537 173.844 102.888 170.158 99.8713C166.471 96.8547 163.94 92.6564 162.994 87.9876C162.048 83.3188 162.745 78.4666 164.967 74.2529C167.189 70.0392 170.8 66.7231 175.187 64.8664C180.232 62.7387 185.915 62.7013 190.988 64.7626C196.06 66.8239 200.107 70.8151 202.238 75.8588C204.369 80.9026 204.41 86.5861 202.351 91.66C200.293 96.7339 196.305 100.783 191.262 102.917C188.719 103.993 185.986 104.545 183.224 104.54ZM183.224 66.0892C173.408 66.0892 165.422 74.0753 165.422 83.8916C165.422 93.708 173.408 101.694 183.224 101.694C193.041 101.694 201.027 93.708 201.027 83.8916C201.027 74.0753 193.041 66.0892 183.224 66.0892Z" fill="#08407B"/>
<path d="M183.224 100.912C179.298 100.91 175.492 99.5505 172.453 97.0639C169.414 94.5772 167.328 91.1164 166.548 87.2678C165.768 83.4192 166.343 79.4193 168.175 75.9458C170.006 72.4724 172.982 69.7388 176.599 68.2083C180.757 66.455 185.442 66.4247 189.623 68.124C193.804 69.8233 197.139 73.1131 198.895 77.2705C200.652 81.4278 200.686 86.1124 198.99 90.2947C197.294 94.477 194.006 97.8147 189.85 99.5743C187.754 100.462 185.501 100.917 183.224 100.912ZM183.224 69.7161C175.408 69.7161 169.049 76.0751 169.049 83.8913C169.049 91.7075 175.408 98.0665 183.224 98.0665C191.041 98.0665 197.4 91.7075 197.4 83.8913C197.4 76.0751 191.041 69.7161 183.224 69.7161Z" fill="#08407B"/>
<path d="M183.24 97.3808C183.016 97.3808 182.792 97.3753 182.568 97.3643C179.029 97.1895 175.702 95.6274 173.307 93.0166C170.913 90.4058 169.643 86.9566 169.774 83.4163C169.905 79.8759 171.425 76.5297 174.006 74.1025C176.586 71.6754 180.019 70.3629 183.561 70.4493C187.103 70.5358 190.468 72.0143 192.927 74.5644C195.386 77.1146 196.741 80.5311 196.699 84.0736C196.657 87.616 195.221 90.9992 192.701 93.49C190.182 95.9809 186.783 97.3787 183.24 97.3808ZM183.218 73.248C177.585 73.248 172.871 77.6865 172.594 83.3729C172.526 84.7689 172.734 86.1646 173.205 87.4804C173.676 88.7962 174.402 90.0063 175.341 91.0416C176.28 92.0769 177.414 92.917 178.678 93.5142C179.941 94.1113 181.31 94.4537 182.706 94.5217C182.881 94.5303 183.057 94.5345 183.231 94.5346C188.864 94.5351 193.578 90.096 193.855 84.4097C193.993 81.5903 193.004 78.8318 191.108 76.7409C189.212 74.6501 186.562 73.3983 183.743 73.2608C183.568 73.2522 183.392 73.248 183.218 73.248Z" fill="#08407B"/>
<path d="M251.597 209.904C251.019 209.904 250.447 209.79 249.913 209.569C249.378 209.348 248.893 209.024 248.484 208.615C248.076 208.206 247.751 207.721 247.53 207.187C247.309 206.653 247.195 206.08 247.195 205.502V201.052C247.195 170.685 222.49 145.979 192.123 145.979C161.756 145.979 137.05 170.685 137.05 201.052V205.502C137.05 206.67 136.586 207.789 135.761 208.615C134.935 209.44 133.816 209.904 132.648 209.904C131.481 209.904 130.361 209.44 129.535 208.615C128.71 207.789 128.246 206.67 128.246 205.502V201.052C128.255 186.315 133.357 172.035 142.689 160.63C152.021 149.224 165.009 141.396 179.452 138.47C193.895 135.543 208.905 137.7 221.94 144.574C234.976 151.447 245.234 162.616 250.978 176.187C254.307 184.053 256.015 192.51 255.999 201.052V205.502C255.999 206.08 255.885 206.653 255.664 207.187C255.443 207.721 255.119 208.206 254.71 208.615C254.301 209.024 253.816 209.348 253.282 209.569C252.748 209.79 252.175 209.904 251.597 209.904Z" fill="#F69221"/>
<path d="M240.376 209.904C239.797 209.904 239.225 209.79 238.691 209.569C238.157 209.348 237.672 209.023 237.263 208.615C236.854 208.206 236.53 207.721 236.309 207.187C236.087 206.652 235.974 206.08 235.974 205.502V201.052C235.974 176.872 216.302 157.2 192.122 157.2C167.943 157.2 148.271 176.872 148.271 201.052V205.502C148.271 206.669 147.807 207.789 146.982 208.615C146.156 209.44 145.036 209.904 143.869 209.904C142.701 209.904 141.582 209.44 140.756 208.615C139.931 207.789 139.467 206.669 139.467 205.502V201.052C139.474 188.904 143.68 177.132 151.372 167.73C159.065 158.329 169.771 151.875 181.677 149.463C193.583 147.051 205.956 148.828 216.702 154.495C227.447 160.161 235.903 169.367 240.638 180.554C243.383 187.039 244.791 194.01 244.778 201.052V205.502C244.778 206.08 244.664 206.652 244.443 207.187C244.221 207.721 243.897 208.206 243.488 208.615C243.08 209.023 242.594 209.348 242.06 209.569C241.526 209.79 240.954 209.904 240.376 209.904Z" fill="#F69221"/>
<path d="M229.449 209.904C228.295 209.904 227.187 209.45 226.364 208.641C225.541 207.832 225.069 206.732 225.049 205.578L225.002 202.801L225.009 202.656C225.893 184.522 211.86 169.051 193.727 168.166C175.626 167.284 160.18 181.261 159.243 199.345V205.502C159.243 206.67 158.779 207.789 157.953 208.615C157.128 209.441 156.008 209.904 154.841 209.904C153.673 209.904 152.553 209.441 151.728 208.615C150.902 207.789 150.438 206.67 150.438 205.502V199.127L150.444 199.02C150.985 187.98 155.883 177.606 164.064 170.174C172.245 162.743 183.04 158.86 194.081 159.379C205.121 159.897 215.505 164.775 222.953 172.941C230.402 181.107 234.306 191.894 233.809 202.936L233.852 205.427C233.872 206.594 233.428 207.722 232.616 208.561C231.805 209.401 230.694 209.884 229.526 209.904C229.501 209.904 229.475 209.904 229.449 209.904Z" fill="#F69221"/>
<g clip-path="url(#clip1_306_9726)">
<path d="M4.40225 88.1981C5.56975 88.1981 6.68943 88.6618 7.51498 89.4874C8.34053 90.3129 8.80432 91.4326 8.80432 92.6001C8.80432 106.845 20.3929 118.433 34.6373 118.433C48.8816 118.433 60.4703 106.845 60.4703 92.6001C60.4703 91.4326 60.9341 90.3129 61.7596 89.4874C62.5852 88.6618 63.7049 88.1981 64.8724 88.1981C66.0399 88.1981 67.1595 88.6618 67.9851 89.4874C68.8106 90.3129 69.2744 91.4326 69.2744 92.6001C69.2744 99.4507 67.243 106.147 63.437 111.843C59.6311 117.54 54.2215 121.979 47.8924 124.601C41.5632 127.222 34.5989 127.908 27.8799 126.572C21.161 125.235 14.9892 121.936 10.1451 117.092C6.91871 113.883 4.36077 110.066 2.61939 105.862C0.878006 101.658 -0.0122345 97.1506 0.000192 92.6001C0.000192 92.022 0.114053 91.4496 0.335277 90.9155C0.556501 90.3814 0.880758 89.8962 1.28953 89.4874C1.6983 89.0786 2.18358 88.7544 2.71766 88.5331C3.25174 88.3119 3.82417 88.1981 4.40225 88.1981Z" fill="#08407B"/>
<path d="M14.8757 88.198C15.4537 88.198 16.0262 88.3119 16.5603 88.5331C17.0943 88.7543 17.5796 89.0786 17.9884 89.4873C18.3972 89.8961 18.7214 90.3814 18.9426 90.9155C19.1639 91.4496 19.2777 92.022 19.2777 92.6001C19.2777 96.6736 20.8959 100.58 23.7764 103.461C26.6569 106.341 30.5636 107.96 34.6372 107.96C38.7108 107.96 42.6175 106.341 45.498 103.461C48.3784 100.58 49.9967 96.6736 49.9967 92.6001C49.9967 91.4326 50.4604 90.3129 51.286 89.4873C52.1115 88.6618 53.2312 88.198 54.3987 88.198C55.5662 88.198 56.6859 88.6618 57.5114 89.4873C58.337 90.3129 58.8008 91.4326 58.8008 92.6001C58.8008 105.924 47.9611 116.764 34.6372 116.764C21.3134 116.764 10.4735 105.924 10.4735 92.6001C10.4735 91.4326 10.9373 90.3129 11.7629 89.4873C12.5885 88.6618 13.7081 88.198 14.8757 88.198Z" fill="#08407B"/>
<path d="M25.4045 87.7479C25.4768 87.7479 25.5495 87.7497 25.6225 87.7532C26.1999 87.7814 26.7661 87.923 27.2888 88.17C27.8114 88.417 28.2803 88.7645 28.6687 89.1927C29.0571 89.6209 29.3573 90.1214 29.5523 90.6656C29.7472 91.2098 29.833 91.7871 29.8049 92.3645C29.7472 93.6432 30.1987 94.8927 31.0604 95.8392C31.9221 96.7857 33.1237 97.3521 34.4022 97.4145C35.6807 97.4768 36.9318 97.03 37.8814 96.1718C38.8311 95.3136 39.402 94.114 39.4691 92.8358C39.5279 91.6711 40.0465 90.5774 40.9109 89.7947C41.7754 89.012 42.9151 88.6043 44.0799 88.6611C45.2447 88.7179 46.3393 89.2345 47.1236 90.0976C47.9078 90.9607 48.3175 92.0997 48.2627 93.2646C48.1798 95.0571 47.7441 96.8156 46.9806 98.4394C46.217 100.063 45.1406 101.52 43.813 102.728C42.4854 103.935 40.9327 104.868 39.2438 105.474C37.5549 106.081 35.763 106.348 33.9708 106.26C32.1785 106.173 30.4211 105.733 28.7993 104.965C27.1774 104.197 25.7228 103.117 24.519 101.787C23.3152 100.456 22.3857 98.901 21.7838 97.2106C21.1818 95.5202 20.9193 93.7276 21.0112 91.9356C21.0663 90.8072 21.5531 89.7432 22.3708 88.9637C23.1886 88.1842 24.2747 87.7489 25.4045 87.7479Z" fill="#08407B"/>
</g>
<defs>
<clipPath id="clip0_306_9726">
<rect width="33.7932" height="33.7932" fill="white" transform="translate(111.372 4.69531)"/>
</clipPath>
<clipPath id="clip1_306_9726">
<rect width="69.2742" height="39.4893" fill="white" transform="matrix(-1 0 0 -1 69.2744 127.237)"/>
</clipPath>
</defs>
</svg>
