<svg width="128" height="339" viewBox="0 0 128 339" fill="none" xmlns="http://www.w3.org/2000/svg">
<path d="M76.7081 181.08C61.4076 181.08 48.9597 168.632 48.9597 153.332C48.9597 138.031 61.4076 125.583 76.7081 125.583C92.0086 125.583 104.457 138.031 104.457 153.332C104.457 168.632 92.0086 181.08 76.7081 181.08ZM76.7081 138.282C73.7316 138.282 70.8219 139.165 68.347 140.819C65.8722 142.472 63.9432 144.823 62.8042 147.573C61.6651 150.323 61.3671 153.349 61.9478 156.268C62.5285 159.187 63.9618 161.869 66.0665 163.973C68.1712 166.078 70.8528 167.512 73.7721 168.092C76.6914 168.673 79.7174 168.375 82.4673 167.236C85.2173 166.097 87.5677 164.168 89.2213 161.693C90.875 159.218 91.7576 156.308 91.7576 153.332C91.7531 149.342 90.1661 145.517 87.3447 142.695C84.5234 139.874 80.6981 138.287 76.7081 138.282Z" fill="#F69221"/>
<path d="M42.0204 338.655C40.7037 338.655 39.4193 338.247 38.345 337.486C37.2706 336.724 36.4595 335.648 36.024 334.405C35.5884 333.163 35.5498 331.816 35.9137 330.55C36.2776 329.285 37.0258 328.164 38.0549 327.342C38.2118 327.217 42.5618 323.713 48.8808 317.951C58.3145 308.052 63.1068 296.923 63.4617 284.217C64.1434 259.809 47.7253 234.28 33.8322 217.162C18.9821 198.864 3.73067 186.001 2.40857 184.898C1.84286 184.45 1.35788 183.908 0.974552 183.297C0.893576 183.168 0.817538 183.037 0.746438 182.903C0.32768 182.118 0.0787564 181.255 0.0158648 180.368C-0.0470267 179.481 0.0775229 178.591 0.381409 177.755L35.3979 81.1356C35.9616 79.5802 37.1101 78.3063 38.5989 77.585C40.0877 76.8637 41.7992 76.752 43.3691 77.2735C44.9391 77.7951 46.2435 78.9088 47.0047 80.3777C47.7659 81.8465 47.9237 83.5544 47.4447 85.1378C37.1992 118.997 34.736 141.647 39.6927 156.417C44.0715 169.464 54.3556 176.658 67.3758 185.765C68.3416 186.441 69.3183 187.126 70.3061 187.819C78.6503 187.454 86.1382 185.826 92.6721 182.922C109.357 175.506 114.437 162.074 114.483 161.94C114.929 160.664 115.769 159.563 116.883 158.798C117.997 158.033 119.326 157.643 120.677 157.685C122.028 157.727 123.33 158.2 124.394 159.033C125.458 159.867 126.228 161.018 126.593 162.319C128.806 170.474 128.4 179.117 125.433 187.029C121.554 197.494 113.536 206.787 101.551 214.733C102.011 215.253 102.47 215.78 102.928 216.315C109.996 224.561 113.036 234.488 111.964 245.821C110.291 263.51 98.5676 284.354 77.1194 307.775C69.9336 315.622 62.8911 322.393 57.3248 327.462C53.7543 331.095 49.89 334.427 45.7715 337.424C44.6844 338.224 43.37 338.655 42.0204 338.655ZM31.806 195.535C35.5606 199.554 39.5459 204.061 43.5344 208.965C53.1591 220.799 60.7871 232.492 66.2066 243.721C73.1584 258.124 76.506 271.86 76.1563 284.548C76.1053 286.398 75.9773 288.225 75.7724 290.029C87.5831 275.741 97.933 259.344 99.3223 244.616C100.065 236.739 98.0909 230.185 93.2859 224.579C91.7654 222.805 90.2352 221.117 88.6953 219.515C87.3419 218.967 86.2197 217.968 85.5192 216.687C85.3976 216.465 85.2893 216.237 85.1947 216.003C78.8644 209.895 72.4906 204.997 66.4261 200.639C64.4953 200.638 62.5335 200.58 60.5405 200.467C51.6079 199.957 42.0038 198.306 31.806 195.535ZM84.8793 198.74C87.4085 200.814 89.9621 203.033 92.5273 205.44C102.15 199.452 108.794 192.729 112.345 185.384C107.982 189.128 103.091 192.208 97.8297 194.526C93.6658 196.363 89.327 197.775 84.8793 198.74ZM14.4013 176.34C25.641 180.752 36.2303 183.907 46.0579 185.795C44.3067 184.345 42.6251 182.852 41.028 181.291C34.5485 174.959 30.2987 168.339 27.6536 160.457C26.2536 156.201 25.3334 151.803 24.9102 147.343L14.4013 176.34Z" fill="#F69221"/>
<path d="M64.0037 315.634C62.7834 315.634 61.589 315.282 60.5636 314.62C59.5382 313.958 58.7252 313.015 58.2219 311.904C57.7186 310.792 57.5463 309.559 57.7257 308.352C57.9051 307.145 58.4285 306.015 59.2333 305.097C74.3422 287.876 79.5547 265.344 74.7262 238.127C71.0125 217.194 62.4616 201.267 62.3757 201.108C61.5741 199.63 61.392 197.893 61.8694 196.28C62.3467 194.668 63.4445 193.31 64.9218 192.506C66.3991 191.702 68.1351 191.516 69.7488 191.991C71.3625 192.465 72.722 193.561 73.5289 195.036C73.9152 195.745 83.0365 212.655 87.1623 235.531C89.6135 249.122 89.7858 262.022 87.6743 273.873C84.9946 288.912 78.6373 302.236 68.7792 313.472C68.1836 314.153 67.4493 314.698 66.6256 315.07C65.8019 315.443 64.9079 315.636 64.0037 315.634Z" fill="#F69221"/>
<path d="M66.531 70.231C62.3717 70.231 58.3058 68.9977 54.8475 66.6869C51.3892 64.3761 48.6937 61.0918 47.102 57.2491C45.5103 53.4064 45.0939 49.178 45.9053 45.0987C46.7167 41.0193 48.7196 37.2722 51.6607 34.3311C54.6017 31.3901 58.3488 29.3872 62.4282 28.5757C66.5076 27.7643 70.7359 28.1807 74.5786 29.7724C78.4213 31.3641 81.7057 34.0595 84.0165 37.5178C86.3272 40.9762 87.5606 45.042 87.5606 49.2013C87.5543 54.7768 85.3367 60.1221 81.3942 64.0646C77.4518 68.0071 72.1065 70.2247 66.531 70.231ZM66.531 40.8705C64.8833 40.8705 63.2726 41.3591 61.9026 42.2745C60.5326 43.1899 59.4648 44.491 58.8342 46.0133C58.2037 47.5355 58.0387 49.2106 58.3602 50.8266C58.6816 52.4426 59.475 53.9271 60.6401 55.0922C61.8052 56.2572 63.2896 57.0507 64.9057 57.3721C66.5217 57.6936 68.1968 57.5286 69.719 56.898C71.2413 56.2675 72.5424 55.1997 73.4578 53.8297C74.3732 52.4597 74.8618 50.849 74.8618 49.2013C74.8593 46.9926 73.9808 44.8751 72.419 43.3133C70.8572 41.7515 68.7397 40.873 66.531 40.8705Z" fill="#F69221"/>
<path d="M97.8155 31.0762C89.0037 31.0762 82.1011 24.3285 82.1011 15.7144C82.1011 11.5467 83.7567 7.54968 86.7037 4.60265C89.6508 1.65562 93.6478 0 97.8155 0C101.983 0 105.98 1.65562 108.927 4.60265C111.874 7.54968 113.53 11.5467 113.53 15.7144C113.53 24.3285 106.627 31.0762 97.8155 31.0762ZM97.8155 12.6988C97.016 12.6997 96.2495 13.0177 95.6842 13.5831C95.1189 14.1484 94.8008 14.9149 94.7999 15.7144C94.7999 17.544 96.3631 18.3773 97.8155 18.3773C99.268 18.3773 100.831 17.544 100.831 15.7144C100.83 14.9149 100.512 14.1484 99.9469 13.5831C99.3815 13.0177 98.615 12.6997 97.8155 12.6988Z" fill="#F69221"/>
</svg>
