<svg width="128" height="217" viewBox="0 0 128 217" fill="none" xmlns="http://www.w3.org/2000/svg">
<path d="M48.2072 72.6891C41.019 72.6891 33.9921 70.5575 28.0153 66.5639C22.0385 62.5703 17.3802 56.894 14.6293 50.2529C11.8785 43.6118 11.1588 36.3042 12.5612 29.254C13.9635 22.2039 17.425 15.7279 22.5079 10.645C27.5908 5.56218 34.0668 2.10071 41.1169 0.698358C48.1671 -0.703995 55.4747 0.0157551 62.1158 2.76659C68.7569 5.51742 74.4331 10.1758 78.4267 16.1526C82.4203 22.1294 84.5519 29.1563 84.5519 36.3446C84.541 45.9804 80.7083 55.2185 73.8947 62.032C67.0811 68.8456 57.8431 72.6782 48.2072 72.6891ZM48.2072 16.9632C44.374 16.9632 40.6268 18.0999 37.4396 20.2296C34.2523 22.3593 31.7682 25.3862 30.3013 28.9277C28.8344 32.4692 28.4506 36.3661 29.1984 40.1257C29.9463 43.8853 31.7922 47.3387 34.5027 50.0493C37.2132 52.7598 40.6667 54.6057 44.4263 55.3535C48.1859 56.1013 52.0828 55.7175 55.6243 54.2506C59.1658 52.7836 62.1927 50.2995 64.3223 47.1122C66.452 43.925 67.5887 40.1778 67.5887 36.3446C67.5829 31.2061 65.539 26.2797 61.9056 22.6462C58.2721 19.0128 53.3457 16.969 48.2072 16.9632Z" fill="#08407B"/>
<path d="M17.1357 216.095C15.4365 216.094 13.7767 215.583 12.3713 214.628C10.9659 213.673 9.8797 212.318 9.25356 210.738C8.62742 209.159 8.49015 207.427 8.85955 205.769C9.22895 204.11 10.088 202.601 11.3253 201.436C11.3806 201.384 17.1473 195.935 25.7087 186.594C30.3496 181.531 36.3223 174.748 42.9193 166.613C50.2887 155.192 52.2507 145.183 48.9177 136.034C41.0192 114.355 6.41358 103.819 6.06493 103.715C4.01998 103.107 2.27923 101.751 1.18965 99.9166C0.100078 98.0824 -0.258294 95.905 0.18597 93.8183C0.630235 91.7317 1.8445 89.8891 3.58675 88.6578C5.32899 87.4265 7.47124 86.897 9.58649 87.1748C9.78335 87.2 31.3048 89.8218 53.8962 81.6203C83.2543 70.9618 100.901 47.4464 106.346 11.727C106.644 9.77217 107.616 7.98291 109.093 6.66858C110.571 5.35424 112.461 4.59744 114.437 4.52901C116.413 4.46058 118.351 5.08483 119.916 6.29382C121.481 7.50282 122.574 9.22058 123.007 11.1501C123.21 12.0577 127.989 33.7146 128 62.9677C128.006 80.2155 126.341 96.5532 123.05 111.527C118.881 130.496 112.074 147.339 102.819 161.588C84.2485 190.179 55.9835 208.461 18.8083 215.928C18.2576 216.039 17.6974 216.095 17.1357 216.095ZM109.302 91.2641C103.663 104.917 96.4258 118.922 87.5889 133.278C73.734 155.772 58.3117 175.206 45.9424 189.405C63.7483 180.981 78.017 168.607 88.5531 152.41C100.89 133.445 106.752 111.296 109.302 91.2641ZM41.6934 102.437C53.2645 110.473 61.031 119.773 64.8356 130.171C65.4079 131.733 65.8909 133.326 66.282 134.943C78.9004 115.971 91.0205 94.0065 98.7103 71.077C86.5075 85.1847 71.8991 93.2232 59.0318 97.7998C53.3827 99.7973 47.5854 101.348 41.6934 102.437Z" fill="#08407B"/>
</svg>
