<svg width="147" height="256" viewBox="0 0 147 256" fill="none" xmlns="http://www.w3.org/2000/svg">
<g clip-path="url(#clip0_165_5169)">
<path d="M0.831627 183.866C0.831627 181.709 1.68858 179.64 3.21396 178.115C4.73935 176.589 6.80822 175.732 8.96545 175.732C35.2852 175.732 56.6979 154.32 56.6979 128C56.6979 101.68 35.2852 80.2676 8.96545 80.2676C6.80822 80.2676 4.73935 79.4107 3.21396 77.8853C1.68858 76.3599 0.831627 74.291 0.831627 72.1338C0.831627 69.9766 1.68858 67.9077 3.21396 66.3823C4.73935 64.857 6.80822 64 8.96545 64C21.6235 64 33.9972 67.7535 44.522 74.7859C55.0468 81.8183 63.2498 91.8138 68.0938 103.508C72.9378 115.203 74.2053 128.071 71.7358 140.486C69.2663 152.901 63.1709 164.304 54.2203 173.255C48.2912 179.216 41.2385 183.943 33.4705 187.16C25.7025 190.378 17.3734 192.023 8.96545 192C7.8973 192 6.83961 191.79 5.85277 191.381C4.86593 190.972 3.96925 190.373 3.21396 189.618C2.45866 188.862 1.85954 187.966 1.45078 186.979C1.04202 185.992 0.831627 184.934 0.831627 183.866Z" fill="#08407B"/>
<path d="M0.831657 164.514C0.831657 163.446 1.04204 162.388 1.45081 161.401C1.85957 160.414 2.45871 159.518 3.214 158.763C3.9693 158.007 4.86596 157.408 5.8528 156.999C6.83964 156.591 7.89733 156.38 8.96548 156.38C16.4924 156.38 23.711 153.39 29.0333 148.068C34.3556 142.746 37.3456 135.527 37.3456 128C37.3456 120.473 34.3556 113.255 29.0333 107.932C23.711 102.61 16.4924 99.6199 8.96548 99.6199C6.80825 99.6199 4.73939 98.763 3.214 97.2376C1.68861 95.7122 0.831657 93.6433 0.831657 91.4861C0.831657 89.3289 1.68861 87.26 3.214 85.7346C4.73939 84.2092 6.80825 83.3523 8.96548 83.3523C33.5843 83.3523 53.6133 103.381 53.6133 128C53.6133 152.619 33.5843 172.648 8.96548 172.648C6.80824 172.648 4.73938 171.791 3.214 170.266C1.68862 168.74 0.831665 166.671 0.831657 164.514Z" fill="#08407B"/>
<path d="M5.72205e-05 145.059C5.72205e-05 144.926 0.00332642 144.791 0.00986862 144.656C0.0619011 143.59 0.323559 142.543 0.779911 141.578C1.23626 140.612 1.87837 139.745 2.66957 139.028C3.46077 138.31 4.38556 137.756 5.39115 137.395C6.39674 137.035 7.46343 136.876 8.53031 136.929C10.893 137.035 13.2016 136.201 14.9505 134.609C16.6994 133.017 17.746 130.796 17.8612 128.434C17.9764 126.072 17.1508 123.76 15.5651 122.005C13.9794 120.25 11.7629 119.196 9.40104 119.072C7.24903 118.963 5.2281 118.005 3.78188 116.408C2.33566 114.81 1.58233 112.704 1.68728 110.552C1.79223 108.4 2.74687 106.377 4.34164 104.928C5.93641 103.479 8.04098 102.722 10.1934 102.823C13.5053 102.977 16.7546 103.782 19.755 105.192C22.7553 106.603 25.4479 108.592 27.6784 111.045C29.909 113.498 31.6337 116.367 32.7537 119.488C33.8738 122.609 34.3672 125.919 34.2057 129.231C34.0442 132.543 33.231 135.79 31.8126 138.787C30.3942 141.783 28.3985 144.471 25.9399 146.695C23.4812 148.92 20.6079 150.637 17.4845 151.749C14.3611 152.862 11.0489 153.347 7.73775 153.177C5.65277 153.075 3.68672 152.176 2.24643 150.665C0.806145 149.154 0.00188065 147.147 5.72205e-05 145.059Z" fill="#08407B"/>
</g>
<path d="M1.00004 247.179C1.00004 246.02 1.22821 244.873 1.67151 243.803C2.11481 242.733 2.76457 241.76 3.58369 240.941C4.40281 240.122 5.37524 239.472 6.44547 239.029C7.5157 238.586 8.66276 238.357 9.82117 238.357H18.7389C79.5903 238.357 129.096 188.851 129.096 128C129.096 67.1486 79.5903 17.6423 18.7389 17.6423H9.82117C7.48166 17.6423 5.23797 16.7129 3.58369 15.0586C1.92941 13.4043 1.00004 11.1606 1.00004 8.82113C1.00004 6.48162 1.92941 4.23793 3.58369 2.58365C5.23797 0.929367 7.48166 0 9.82117 0L18.7389 0C48.2687 0.017486 76.8847 10.2422 99.7392 28.9421C122.594 47.642 138.282 73.6672 144.145 102.609C150.009 131.551 145.687 161.63 131.913 187.751C118.139 213.871 95.7594 234.428 68.5649 245.937C52.8024 252.61 35.8554 256.032 18.7389 256H9.82117C8.66276 256 7.5157 255.772 6.44547 255.328C5.37524 254.885 4.40281 254.235 3.58369 253.416C2.76457 252.597 2.11481 251.625 1.67151 250.554C1.22821 249.484 1.00004 248.337 1.00004 247.179Z" fill="#19FACC"/>
<path d="M1.00006 224.693C1.00006 223.535 1.22823 222.388 1.67153 221.317C2.11484 220.247 2.76459 219.275 3.58371 218.456C4.40283 217.636 5.37526 216.987 6.44549 216.543C7.51572 216.1 8.66278 215.872 9.82119 215.872H18.7389C67.1917 215.872 106.611 176.453 106.611 128C106.611 79.547 67.1917 40.1279 18.7389 40.1279H9.82119C7.48168 40.1279 5.23799 39.1985 3.58371 37.5442C1.92943 35.8899 1.00006 33.6462 1.00006 31.3067C1.00006 28.9672 1.92943 26.7235 3.58371 25.0692C5.23799 23.415 7.48168 22.4856 9.82119 22.4856H18.7389C43.0813 22.4997 66.6705 30.9281 85.5104 46.3429C104.35 61.7577 117.282 83.2111 122.116 107.069C126.949 130.927 123.387 155.722 112.033 177.254C100.678 198.786 82.2299 215.731 59.8126 225.219C46.8189 230.719 32.8488 233.541 18.7389 233.514H9.82119C8.66278 233.514 7.51572 233.286 6.44548 232.843C5.37525 232.399 4.40281 231.75 3.58369 230.931C2.76457 230.111 2.11481 229.139 1.67151 228.069C1.22821 226.999 1.00005 225.851 1.00006 224.693Z" fill="#19FACC"/>
<path d="M0.999913 202.796C1.00064 200.484 1.90969 198.264 3.5313 196.615C5.1529 194.966 7.35732 194.019 9.66979 193.98L15.2349 193.884L15.5252 193.898C51.8617 195.67 82.8653 167.55 84.6372 131.214C86.4058 94.9426 58.3968 63.991 22.1601 62.112L9.82096 62.112C7.48145 62.112 5.23776 61.1826 3.58348 59.5283C1.92919 57.8741 0.999823 55.6304 0.999823 53.2909C0.999823 50.9513 1.92919 48.7077 3.58348 47.0534C5.23776 45.3991 7.48145 44.4697 9.82096 44.4697H22.5969L22.8115 44.4802C44.933 45.564 65.721 55.3798 80.6133 71.7734C95.5057 88.1671 103.286 109.799 102.247 131.923C101.207 154.047 91.4334 174.854 75.0698 189.78C58.7061 204.705 37.0895 212.529 14.9639 211.534L9.97233 211.619C7.63317 211.659 5.37388 210.769 3.69148 209.143C2.00907 207.517 1.04136 205.29 1.00123 202.951C1.00035 202.899 0.999913 202.848 0.999913 202.796Z" fill="#19FACC"/>
<defs>
<clipPath id="clip0_165_5169">
<rect width="128" height="72.9656" fill="white" transform="matrix(0 1 -1 0 72.9656 64)"/>
</clipPath>
</defs>
</svg>
