<svg width="128" height="148" viewBox="0 0 128 148" fill="none" xmlns="http://www.w3.org/2000/svg">
<path d="M27.3918 129.782C14.1665 129.782 1.8938 120.536 1.29127 120.076C0.597663 119.543 0.143629 118.756 0.0286758 117.889C-0.0862779 117.022 0.147225 116.145 0.678009 115.45C1.20879 114.754 1.99356 114.298 2.86031 114.18C3.72705 114.063 4.60508 114.294 5.30195 114.822C5.44944 114.934 20.1933 125.999 32.5222 122.488C41.9786 119.795 44.9767 115.026 50.9496 105.524C52.0603 103.757 53.3191 101.754 54.7064 99.6377C60.161 91.3167 66.6856 85.0936 74.099 81.1412C80.2817 77.845 87.0833 76.1172 94.3153 76.0058C99.8094 75.9212 105.457 76.7607 111.099 78.501C116.312 80.1093 119.818 81.9627 121.084 82.6849C121.841 83.1216 122.394 83.8402 122.622 84.6836C122.85 85.5269 122.735 86.4264 122.302 87.1853C121.869 87.9441 121.153 88.5006 120.311 88.7329C119.469 88.9653 118.569 88.8546 117.808 88.4251C116.73 87.8101 106.915 82.4216 94.4171 82.6144C80.5759 82.8276 69.075 89.7742 60.2339 103.261C58.8812 105.325 57.6937 107.214 56.5452 109.041C50.3311 118.927 46.2258 125.458 34.3325 128.845C32.0736 129.478 29.7377 129.793 27.3918 129.782Z" fill="#7CCDEF"/>
<path d="M27.6635 138.327C22.9105 138.327 17.9731 137.447 13.0623 135.702C7.20643 133.62 3.40679 131.035 3.24801 130.926C2.52494 130.431 2.02825 129.669 1.8672 128.807C1.70615 127.945 1.89394 127.055 2.38925 126.332C2.88457 125.609 3.64684 125.112 4.50837 124.951C5.3699 124.79 6.26012 124.978 6.9832 125.473C7.05495 125.522 10.3994 127.768 15.4742 129.544C20.0563 131.147 27.0605 132.693 34.4082 130.952C43.5899 128.775 51.4021 122.002 57.6277 110.818C65.2929 97.0493 75.1075 88.6353 86.7992 85.8102C94.081 84.0506 101.906 84.5039 110.057 87.1574C115.101 88.8185 119.902 91.1442 124.333 94.0733C125.062 94.5599 125.567 95.3162 125.739 96.1757C125.91 97.0353 125.733 97.9277 125.246 98.6566C124.76 99.3856 124.003 99.8914 123.144 100.063C122.284 100.234 121.392 100.057 120.663 99.5702C116.756 96.9619 102.879 88.7243 88.3516 92.2347C78.5273 94.6086 70.1332 101.943 63.4025 114.033C56.2216 126.932 46.9562 134.794 35.8637 137.399C33.1751 138.023 30.4235 138.335 27.6635 138.327Z" fill="#7CCDEF"/>
<path d="M28.0838 147.291C27.544 147.291 27.0026 147.28 26.4597 147.26C15.0961 146.837 6.88842 142.117 6.54462 141.916C5.78931 141.474 5.24017 140.75 5.01767 139.904C4.79516 139.058 4.91746 138.158 5.35773 137.401C5.79801 136.645 6.52031 136.094 7.36617 135.87C8.21204 135.645 9.1124 135.765 9.86973 136.204C9.9418 136.246 17.1961 140.37 26.9687 140.664C39.8418 141.052 50.9683 134.877 60.0403 122.311C61.8429 119.814 63.4419 117.403 64.9882 115.071C71.0866 105.875 76.3535 97.9336 88.1 94.6009C103.059 90.3566 117.936 100.047 124.289 104.185C125.141 104.74 125.877 105.22 126.333 105.48C127.095 105.915 127.652 106.634 127.883 107.479C128.114 108.325 128 109.227 127.565 109.989C127.131 110.75 126.412 111.307 125.566 111.538C124.721 111.769 123.818 111.655 123.057 111.221C122.432 110.864 121.659 110.36 120.681 109.723C115.082 106.076 101.972 97.5355 89.904 100.959C80.51 103.624 76.3098 109.958 70.4964 118.724C68.9144 121.109 67.2786 123.576 65.3992 126.179C59.6646 134.123 53.0089 139.914 45.6168 143.393C40.1341 145.977 34.145 147.308 28.0838 147.291Z" fill="#7CCDEF"/>
<path d="M27.3918 91.7816C14.1665 91.7816 1.8938 82.5361 1.29127 82.0755C0.597663 81.5426 0.143629 80.7565 0.0286758 79.8893C-0.0862779 79.0222 0.147225 78.1449 0.678009 77.4497C1.20879 76.7545 1.99356 76.298 2.86031 76.1804C3.72705 76.0628 4.60508 76.2936 5.30195 76.8222C5.44943 76.9344 20.1933 87.9993 32.5222 84.4882C41.9786 81.7953 44.9767 77.0258 50.9496 67.5236C52.0603 65.7567 53.3191 63.7541 54.7064 61.6377C60.161 53.3167 66.6856 47.0936 74.0989 43.1412C80.2816 39.845 87.0833 38.1172 94.3153 38.0058C99.8094 37.9212 105.457 38.7607 111.099 40.501C116.312 42.1093 119.818 43.9627 121.084 44.6849C121.841 45.1216 122.394 45.8402 122.622 46.6836C122.85 47.5269 122.735 48.4264 122.302 49.1853C121.869 49.9441 121.153 50.5006 120.311 50.7329C119.469 50.9653 118.569 50.8546 117.808 50.4251C116.73 49.8101 106.915 44.4216 94.4171 44.6144C80.5759 44.8276 69.075 51.7742 60.2339 65.2611C58.8812 67.3247 57.6937 69.2139 56.5452 71.0409C50.3311 80.9269 46.2258 87.4579 34.3325 90.8448C32.0736 91.4777 29.7377 91.7931 27.3918 91.7816Z" fill="#08407B"/>
<path d="M27.6636 100.328C22.9106 100.328 17.9732 99.447 13.0624 97.7017C7.20655 95.6205 3.40692 93.0353 3.24814 92.9263C2.52506 92.431 2.02837 91.6687 1.86732 90.8072C1.70627 89.9456 1.89406 89.0554 2.38937 88.3323C2.88469 87.6093 3.64696 87.1126 4.50849 86.9515C5.37002 86.7905 6.26025 86.9782 6.98332 87.4736C7.05508 87.522 10.3995 89.7681 15.4743 91.544C20.0565 93.1474 27.0606 94.6933 34.4083 92.9518C43.59 90.7755 51.4022 84.0016 57.6279 72.8184C65.293 59.0494 75.1077 50.6355 86.7993 47.8103C94.0811 46.0507 101.906 46.504 110.057 49.1575C115.102 50.8186 119.902 53.1443 124.333 56.0734C125.062 56.56 125.568 57.3163 125.739 58.1759C125.91 59.0354 125.733 59.9278 125.246 60.6568C124.76 61.3857 124.004 61.8915 123.144 62.0628C122.284 62.2342 121.392 62.057 120.663 61.5704C116.756 58.962 102.879 50.7244 88.3517 54.2348C78.5274 56.6087 70.1333 63.9428 63.4026 76.0333C56.2218 88.9325 46.9563 96.7939 35.8638 99.3993C33.1753 100.023 30.4236 100.335 27.6636 100.328Z" fill="#08407B"/>
<path d="M28.0836 109.291C27.5438 109.291 27.0024 109.28 26.4594 109.26C15.0959 108.837 6.88817 104.117 6.54438 103.916C5.78907 103.474 5.23993 102.75 5.01742 101.904C4.79491 101.058 4.91721 100.158 5.35749 99.4012C5.79777 98.6449 6.52006 98.0941 7.36593 97.8697C8.21179 97.6452 9.11215 97.7654 9.86948 98.204C9.94156 98.2456 17.1958 102.37 26.9685 102.664C39.8415 103.052 50.968 96.8774 60.0401 84.3106C61.8427 81.8136 63.4417 79.4026 64.9879 77.0709C71.0864 67.8752 76.3532 59.9336 88.0997 56.6009C103.059 52.3566 117.936 62.0472 124.288 66.1854C125.141 66.7404 125.876 67.2198 126.333 67.4804C127.094 67.9149 127.652 68.6339 127.883 69.4794C128.114 70.3248 128 71.2275 127.565 71.9887C127.131 72.7499 126.412 73.3073 125.566 73.5383C124.721 73.7694 123.818 73.6551 123.057 73.2206C122.432 72.8637 121.659 72.3605 120.681 71.7233C115.082 68.0762 101.971 59.5355 89.9038 62.9592C80.5098 65.6245 76.3095 71.9579 70.4961 80.7238C68.9141 83.1092 67.2784 85.5758 65.3989 88.1792C59.6644 96.1228 53.0086 101.914 45.6165 105.393C40.1339 107.977 34.1447 109.308 28.0836 109.291Z" fill="#08407B"/>
<path d="M27.3918 53.7816C14.1665 53.7816 1.8938 44.5361 1.29127 44.0755C0.597663 43.5426 0.143629 42.7565 0.0286758 41.8893C-0.0862779 41.0222 0.147225 40.1449 0.678009 39.4497C1.20879 38.7544 1.99356 38.298 2.86031 38.1804C3.72705 38.0628 4.60508 38.2936 5.30195 38.8222C5.44944 38.9344 20.1933 49.9993 32.5222 46.4882C41.9786 43.7953 44.9767 39.0258 50.9496 29.5236C52.0603 27.7567 53.3191 25.7541 54.7064 23.6377C60.161 15.3167 66.6856 9.09358 74.099 5.14125C80.2817 1.84503 87.0833 0.117218 94.3153 0.00580696C99.8094 -0.0787596 105.457 0.760682 111.099 2.50103C116.312 4.10931 119.818 5.96268 121.084 6.68488C121.841 7.12155 122.394 7.84017 122.622 8.68355C122.85 9.52693 122.735 10.4264 122.302 11.1853C121.869 11.9441 121.153 12.5006 120.311 12.7329C119.469 12.9653 118.569 12.8546 117.808 12.4251C116.73 11.8101 106.915 6.42161 94.4171 6.61438C80.5759 6.8276 69.075 13.7742 60.2339 27.2611C58.8812 29.3247 57.6937 31.2139 56.5452 33.0409C50.3311 42.9269 46.2258 49.4579 34.3325 52.8448C32.0736 53.4777 29.7377 53.793 27.3918 53.7816Z" fill="#19FACC"/>
<path d="M27.6635 62.3274C22.9105 62.3274 17.9731 61.4469 13.0623 59.7016C7.20643 57.6204 3.40679 55.0352 3.24801 54.9261C2.52494 54.4308 2.02825 53.6686 1.8672 52.807C1.70615 51.9455 1.89394 51.0553 2.38925 50.3322C2.88457 49.6091 3.64684 49.1124 4.50837 48.9514C5.3699 48.7903 6.26012 48.9781 6.9832 49.4734C7.05495 49.5219 10.3994 51.768 15.4742 53.5439C20.0563 55.1473 27.0605 56.6932 34.4082 54.9517C43.5899 52.7754 51.4021 46.0015 57.6277 34.8183C65.2929 21.0493 75.1075 12.6353 86.7992 9.81016C94.081 8.05058 101.906 8.50388 110.057 11.1574C115.101 12.8185 119.902 15.1442 124.333 18.0733C125.062 18.5599 125.567 19.3162 125.739 20.1757C125.91 21.0353 125.733 21.9277 125.246 22.6566C124.76 23.3856 124.003 23.8914 123.144 24.0627C122.284 24.234 121.392 24.0569 120.663 23.5702C116.756 20.9619 102.879 12.7243 88.3516 16.2347C78.5273 18.6086 70.1332 25.9427 63.4025 38.0332C56.2216 50.9324 46.9562 58.7938 35.8637 61.3991C33.1751 62.0233 30.4235 62.3348 27.6635 62.3274Z" fill="#19FACC"/>
<path d="M28.0838 71.2905C27.544 71.2905 27.0026 71.2804 26.4597 71.2602C15.0961 70.8371 6.88842 66.1167 6.54462 65.916C5.78931 65.474 5.24017 64.7504 5.01767 63.904C4.79516 63.0576 4.91746 62.1576 5.35773 61.4012C5.79801 60.6449 6.52031 60.0941 7.36617 59.8697C8.21204 59.6452 9.1124 59.7654 9.86973 60.204C9.9418 60.2456 17.1961 64.3696 26.9687 64.6643C39.8418 65.052 50.9683 58.8774 60.0403 46.3106C61.8429 43.8136 63.4419 41.4026 64.9882 39.0709C71.0866 29.8752 76.3535 21.9336 88.1 18.6009C103.059 14.3566 117.936 24.0472 124.289 28.1854C125.141 28.7404 125.877 29.2198 126.333 29.4804C127.095 29.9149 127.652 30.6339 127.883 31.4794C128.114 32.3248 128 33.2275 127.565 33.9887C127.131 34.7499 126.412 35.3073 125.566 35.5383C124.721 35.7694 123.818 35.6551 123.057 35.2206C122.432 34.8637 121.659 34.3605 120.681 33.7233C115.082 30.0762 101.972 21.5355 89.904 24.9592C80.51 27.6245 76.3098 33.9579 70.4964 42.7238C68.9144 45.1092 67.2786 47.5758 65.3992 50.1792C59.6646 58.1228 53.0089 63.9142 45.6168 67.3926C40.1341 69.9769 34.145 71.3084 28.0838 71.2905Z" fill="#19FACC"/>
</svg>
