<svg width="128" height="144" viewBox="0 0 128 144" fill="none" xmlns="http://www.w3.org/2000/svg">
<path d="M27.3918 125.782C14.1665 125.782 1.8938 116.536 1.29127 116.076C0.597663 115.543 0.143629 114.756 0.0286758 113.889C-0.0862779 113.022 0.147225 112.145 0.678009 111.45C1.20879 110.754 1.99356 110.298 2.86031 110.18C3.72705 110.063 4.60508 110.294 5.30195 110.822C5.44944 110.934 20.1933 121.999 32.5222 118.488C41.9786 115.795 44.9767 111.026 50.9496 101.524C52.0603 99.7567 53.3191 97.7541 54.7064 95.6377C60.161 87.3167 66.6856 81.0936 74.099 77.1412C80.2817 73.845 87.0833 72.1172 94.3153 72.0058C99.8094 71.9212 105.457 72.7607 111.099 74.501C116.312 76.1093 119.818 77.9627 121.084 78.6849C121.841 79.1216 122.394 79.8402 122.622 80.6836C122.85 81.5269 122.735 82.4264 122.302 83.1853C121.869 83.9441 121.153 84.5006 120.311 84.7329C119.469 84.9653 118.569 84.8546 117.808 84.4251C116.73 83.8101 106.915 78.4216 94.4171 78.6144C80.5759 78.8276 69.075 85.7742 60.2339 99.2611C58.8812 101.325 57.6937 103.214 56.5452 105.041C50.3311 114.927 46.2258 121.458 34.3325 124.845C32.0736 125.478 29.7377 125.793 27.3918 125.782Z" fill="#7CCDEF"/>
<path d="M27.6636 134.327C22.9106 134.327 17.9732 133.447 13.0624 131.702C7.20655 129.62 3.40692 127.035 3.24814 126.926C2.52506 126.431 2.02837 125.669 1.86732 124.807C1.70627 123.945 1.89406 123.055 2.38937 122.332C2.88469 121.609 3.64696 121.112 4.50849 120.951C5.37002 120.79 6.26025 120.978 6.98332 121.473C7.05508 121.522 10.3995 123.768 15.4743 125.544C20.0565 127.147 27.0606 128.693 34.4083 126.952C43.59 124.775 51.4022 118.002 57.6279 106.818C65.293 93.0493 75.1077 84.6353 86.7993 81.8102C94.0811 80.0506 101.906 80.5039 110.057 83.1574C115.102 84.8185 119.902 87.1442 124.333 90.0733C125.062 90.5599 125.568 91.3162 125.739 92.1757C125.91 93.0353 125.733 93.9277 125.246 94.6566C124.76 95.3856 124.004 95.8914 123.144 96.0627C122.284 96.234 121.392 96.0569 120.663 95.5702C116.756 92.9619 102.879 84.7243 88.3517 88.2347C78.5274 90.6086 70.1333 97.9427 63.4026 110.033C56.2218 122.932 46.9563 130.794 35.8638 133.399C33.1753 134.023 30.4236 134.335 27.6636 134.327Z" fill="#7CCDEF"/>
<path d="M28.0839 143.291C27.5441 143.291 27.0028 143.28 26.4598 143.26C15.0962 142.837 6.88854 138.117 6.54474 137.916C5.78944 137.474 5.24029 136.75 5.01779 135.904C4.79528 135.058 4.91758 134.158 5.35786 133.401C5.79813 132.645 6.52043 132.094 7.3663 131.87C8.21216 131.645 9.11252 131.765 9.86985 132.204C9.94193 132.246 17.1962 136.37 26.9688 136.664C39.8419 137.052 50.9684 130.877 60.0404 118.311C61.843 115.814 63.442 113.403 64.9883 111.071C71.0868 101.875 76.3536 93.9336 88.1001 90.6009C103.059 86.3566 117.936 96.0472 124.289 100.185C125.141 100.74 125.877 101.22 126.334 101.48C127.095 101.915 127.652 102.634 127.883 103.479C128.114 104.325 128 105.227 127.565 105.989C127.131 106.75 126.412 107.307 125.567 107.538C124.721 107.769 123.818 107.655 123.057 107.221C122.432 106.864 121.659 106.36 120.681 105.723C115.083 102.076 101.972 93.5355 89.9041 96.9592C80.5101 99.6245 76.3099 105.958 70.4965 114.724C68.9145 117.109 67.2787 119.576 65.3993 122.179C59.6648 130.123 53.009 135.914 45.6169 139.393C40.1343 141.977 34.1451 143.308 28.0839 143.291Z" fill="#7CCDEF"/>
<path d="M77.6959 26.8908C71.0833 26.8908 64.9469 22.2681 64.6456 22.0378C64.2988 21.7713 64.0718 21.3782 64.0143 20.9447C63.9569 20.5111 64.0736 20.0725 64.339 19.7248C64.6044 19.3772 64.9968 19.149 65.4302 19.0902C65.8635 19.0314 66.3025 19.1468 66.651 19.4111C66.7247 19.4672 74.0967 24.9996 80.2611 23.2441C84.9893 21.8977 86.4884 19.5129 89.4748 14.7618C90.0301 13.8784 90.6595 12.877 91.3532 11.8189C94.0805 7.65834 97.3428 4.54679 101.049 2.57062C104.141 0.922517 107.542 0.0586092 111.158 0.00290348C113.905 -0.0393798 116.728 0.380341 119.549 1.25052C122.156 2.05465 123.909 2.98134 124.542 3.34244C124.92 3.56078 125.197 3.92009 125.311 4.34178C125.425 4.76347 125.368 5.21321 125.151 5.59264C124.935 5.97207 124.577 6.2503 124.155 6.36647C123.734 6.48264 123.284 6.4273 122.904 6.21255C122.365 5.90504 117.458 3.2108 111.209 3.30719C104.288 3.4138 98.5375 6.88709 94.117 13.6306C93.4406 14.6624 92.8468 15.607 92.2726 16.5205C89.1656 21.4634 87.1129 24.729 81.1662 26.4224C80.0368 26.7389 78.8688 26.8965 77.6959 26.8908Z" fill="#19FACC"/>
<path d="M77.8318 31.1637C75.4553 31.1637 72.9866 30.7235 70.5312 29.8508C67.6033 28.8102 65.7035 27.5176 65.6241 27.4631C65.2625 27.2154 65.0142 26.8343 64.9337 26.4035C64.8531 25.9727 64.947 25.5276 65.1947 25.1661C65.4423 24.8046 65.8235 24.5562 66.2542 24.4757C66.685 24.3952 67.1301 24.4891 67.4917 24.7367C67.5275 24.761 69.1998 25.884 71.7372 26.7719C74.0282 27.5737 77.5303 28.3466 81.2042 27.4758C85.795 26.3877 89.7011 23.0008 92.8139 17.4092C96.6465 10.5246 101.554 6.31767 107.4 4.90508C111.041 4.02529 114.953 4.25194 119.028 5.57868C121.551 6.40923 123.951 7.57211 126.166 9.03663C126.531 9.27996 126.784 9.6581 126.869 10.0879C126.955 10.5176 126.867 10.9639 126.623 11.3283C126.38 11.6928 126.002 11.9457 125.572 12.0313C125.142 12.117 124.696 12.0284 124.332 11.7851C122.378 10.481 115.44 6.36216 108.176 8.11733C103.264 9.3043 99.0667 12.9713 95.7013 19.0166C92.1109 25.4662 87.4781 29.3969 81.9319 30.6996C80.5876 31.0116 79.2118 31.1674 77.8318 31.1637Z" fill="#19FACC"/>
<path d="M78.042 35.6453C77.7721 35.6453 77.5014 35.6402 77.2299 35.6301C71.5481 35.4185 67.4443 33.0584 67.2724 32.958C66.8947 32.737 66.6201 32.3752 66.5089 31.952C66.3976 31.5288 66.4588 31.0788 66.6789 30.7006C66.8991 30.3225 67.2602 30.0471 67.6831 29.9348C68.1061 29.8226 68.5563 29.8827 68.9349 30.102C68.971 30.1228 72.5981 32.1848 77.4844 32.3321C83.9209 32.526 89.4842 29.4387 94.0202 23.1553C94.9215 21.9068 95.721 20.7013 96.4941 19.5355C99.5434 14.9376 102.177 10.9668 108.05 9.30043C115.53 7.17828 122.968 12.0236 126.144 14.0927C126.57 14.3702 126.938 14.6099 127.167 14.7402C127.547 14.9574 127.826 15.317 127.942 15.7397C128.057 16.1624 128 16.6137 127.783 16.9943C127.566 17.3749 127.206 17.6536 126.783 17.7692C126.361 17.8847 125.909 17.8275 125.529 17.6103C125.216 17.4319 124.83 17.1802 124.341 16.8617C121.541 15.0381 114.986 10.7677 108.952 12.4796C104.255 13.8122 102.155 16.979 99.2482 21.3619C98.4573 22.5546 97.6394 23.7879 96.6997 25.0896C93.8324 29.0614 90.5045 31.9571 86.8084 33.6963C84.0671 34.9885 81.0726 35.6542 78.042 35.6453Z" fill="#19FACC"/>
<path d="M52.5439 72.3362C42.6249 72.3362 33.4203 65.4021 32.9684 65.0567C32.4482 64.657 32.1077 64.0673 32.0215 63.417C31.9353 62.7667 32.1104 62.1087 32.5085 61.5873C32.9066 61.0658 33.4952 60.7235 34.1452 60.6353C34.7953 60.5471 35.4538 60.7202 35.9765 61.1167C36.0871 61.2008 47.145 69.4995 56.3917 66.8662C63.484 64.8465 65.7326 61.2694 70.2122 54.1427C71.0452 52.8175 71.9893 51.3156 73.0298 49.7283C77.1208 43.4875 82.0142 38.8202 87.5742 35.8559C92.2112 33.3838 97.3125 32.0879 102.736 32.0044C106.857 31.9409 111.093 32.5705 115.324 33.8758C119.234 35.082 121.864 36.472 122.813 37.0137C123.38 37.3412 123.795 37.8801 123.967 38.5127C124.138 39.1452 124.052 39.8198 123.727 40.389C123.402 40.9581 122.865 41.3755 122.233 41.5497C121.602 41.724 120.926 41.641 120.356 41.3188C119.547 40.8576 112.187 36.8162 102.813 36.9608C92.4319 37.1207 83.8063 42.3306 77.1755 52.4459C76.1609 53.9935 75.2703 55.4104 74.4089 56.7807C69.7483 64.1952 66.6693 69.0934 57.7494 71.6336C56.0552 72.1083 54.3032 72.3448 52.5439 72.3362Z" fill="#08407B"/>
<path d="M52.7478 78.7456C49.1831 78.7456 45.48 78.0853 41.7969 76.7763C37.405 75.2153 34.5553 73.2764 34.4362 73.1947C33.8939 72.8232 33.5214 72.2515 33.4006 71.6053C33.2798 70.9592 33.4207 70.2915 33.7922 69.7492C34.1636 69.2069 34.7353 68.8344 35.3815 68.7136C36.0276 68.5928 36.6953 68.7337 37.2376 69.1051C37.2914 69.1415 39.7998 70.826 43.6059 72.158C47.0425 73.3605 52.2956 74.52 57.8064 73.2138C64.6926 71.5816 70.5518 66.5012 75.221 58.1138C80.9699 47.787 88.3309 41.4766 97.0996 39.3577C102.561 38.038 108.43 38.378 114.543 40.3681C118.326 41.6139 121.927 43.3582 125.25 45.555C125.796 45.92 126.176 46.4872 126.304 47.1319C126.433 47.7765 126.3 48.4458 125.935 48.9925C125.57 49.5393 125.003 49.9186 124.358 50.0471C123.713 50.1756 123.044 50.0427 122.497 49.6777C119.567 47.7215 109.159 41.5433 98.2639 44.1761C90.8957 45.9565 84.6001 51.4571 79.5521 60.5249C74.1664 70.1993 67.2173 76.0954 58.898 78.0494C56.8816 78.5175 54.8178 78.7511 52.7478 78.7456Z" fill="#08407B"/>
<path d="M53.063 85.4679C52.6581 85.4679 52.2521 85.4603 51.8449 85.4451C43.3222 85.1278 37.1664 81.5875 36.9086 81.437C36.3421 81.1055 35.9302 80.5628 35.7633 79.928C35.5965 79.2932 35.6882 78.6182 36.0184 78.0509C36.3486 77.4837 36.8903 77.0706 37.5247 76.9022C38.1591 76.7339 38.8344 76.8241 39.4024 77.153C39.4564 77.1842 44.8971 80.2772 52.2266 80.4982C61.8814 80.789 70.2263 76.1581 77.0303 66.733C78.3823 64.8602 79.5815 63.0519 80.7412 61.3032C85.3151 54.4064 89.2652 48.4502 98.0751 45.9506C109.295 42.7674 120.452 50.0354 125.217 53.139C125.856 53.5553 126.408 53.9148 126.75 54.1103C127.321 54.4362 127.739 54.9754 127.912 55.6095C128.086 56.2436 128 56.9206 127.674 57.4915C127.348 58.0624 126.809 58.4805 126.175 58.6537C125.541 58.827 124.864 58.7413 124.293 58.4155C123.824 58.1478 123.245 57.7704 122.511 57.2925C118.312 54.5572 108.479 48.1516 99.4281 50.7194C92.3826 52.7183 89.2324 57.4685 84.8724 64.0429C83.6859 65.8319 82.4591 67.6819 81.0495 69.6344C76.7486 75.5921 71.7568 79.9356 66.2127 82.5445C62.1007 84.4827 57.6088 85.4813 53.063 85.4679Z" fill="#08407B"/>
</svg>
