<svg width="128" height="221" viewBox="0 0 128 221" fill="none" xmlns="http://www.w3.org/2000/svg">
<path d="M63.9994 220.043C49.2295 220.034 34.9167 214.92 23.4856 205.567C12.0545 196.214 4.20794 183.197 1.27519 168.721C-1.65756 154.245 0.503799 139.201 7.39312 126.136C14.2824 113.071 25.4762 102.79 39.078 97.033C54.7205 90.4357 72.3426 90.3199 88.0704 96.711C103.798 103.102 116.345 115.477 122.952 131.116C129.559 146.754 129.685 164.376 123.304 180.108C116.922 195.84 104.555 208.394 88.9208 215.01C81.0369 218.347 72.5605 220.059 63.9994 220.043ZM63.9994 100.824C33.5634 100.824 8.802 125.586 8.802 156.022C8.802 186.457 33.5634 211.219 63.9994 211.219C94.4353 211.219 119.197 186.457 119.197 156.022C119.197 125.586 94.4353 100.824 63.9994 100.824Z" fill="#08407B"/>
<path d="M63.9994 208.796C51.8241 208.789 40.0255 204.574 30.6025 196.864C21.1794 189.154 14.7112 178.423 12.2936 166.491C9.87605 154.558 11.6577 142.156 17.3368 131.386C23.0159 120.617 32.2432 112.141 43.4557 107.396C56.3498 101.96 70.8748 101.866 83.8382 107.134C96.8016 112.403 107.143 122.603 112.588 135.493C118.034 148.383 118.139 162.908 112.88 175.876C107.621 188.843 97.429 199.192 84.5431 204.647C78.0441 207.398 71.0567 208.81 63.9994 208.796ZM63.9994 112.071C39.7648 112.071 20.0486 131.787 20.0486 156.022C20.0486 180.256 39.7648 199.972 63.9994 199.972C88.2339 199.972 107.95 180.256 107.95 156.022C107.95 131.787 88.2339 112.071 63.9994 112.071Z" fill="#08407B"/>
<path d="M64.0475 197.846C63.3541 197.846 62.6591 197.829 61.9624 197.795C50.9914 197.253 40.6759 192.41 33.2509 184.315C25.826 176.22 21.8896 165.526 22.2948 154.549C22.7 143.572 27.414 133.197 35.4156 125.671C43.4171 118.146 54.0616 114.076 65.0427 114.344C76.0239 114.612 86.4571 119.196 94.0819 127.103C101.707 135.01 105.909 145.603 105.778 156.587C105.647 167.57 101.194 178.06 93.3825 185.783C85.5714 193.506 75.0319 197.84 64.0475 197.846ZM63.9806 123.022C46.5149 123.022 31.899 136.783 31.0392 154.414C30.8281 158.743 31.4716 163.07 32.933 167.15C34.3944 171.23 36.6451 174.982 39.5565 178.191C42.4679 181.401 45.983 184.006 49.9012 185.858C53.8193 187.709 58.0638 188.771 62.3922 188.982C62.9358 189.008 63.48 189.022 64.0184 189.022C81.4841 189.023 96.1 175.26 96.9598 157.629C97.3861 148.887 94.3223 140.334 88.4425 133.852C82.5627 127.369 74.3484 123.488 65.6068 123.061C65.0632 123.035 64.519 123.022 63.9806 123.022Z" fill="#08407B"/>
<g clip-path="url(#clip0_165_5961)">
<path d="M105.9 91.1005C104.282 91.1005 102.73 90.4578 101.586 89.3137C100.442 88.1697 99.7993 86.618 99.7993 85.0001C99.7993 65.2603 83.7399 49.2008 64.0001 49.2008C44.2603 49.2008 28.2007 65.2603 28.2007 85.0001C28.2007 86.618 27.558 88.1697 26.414 89.3137C25.2699 90.4578 23.7183 91.1005 22.1004 91.1005C20.4824 91.1005 18.9308 90.4578 17.7868 89.3137C16.6427 88.1697 16 86.618 16 85.0001C16 75.5066 18.8151 66.2263 24.0894 58.3327C29.3637 50.4391 36.8603 44.2868 45.6312 40.6538C54.402 37.0208 64.0533 36.0702 73.3644 37.9223C82.6755 39.7744 91.2282 44.346 97.9412 51.0589C102.412 55.5058 105.957 60.7953 108.37 66.6213C110.784 72.4473 112.017 78.6941 112 85.0001C112 85.8012 111.842 86.5945 111.536 87.3346C111.229 88.0747 110.78 88.7472 110.213 89.3137C109.647 89.8802 108.974 90.3295 108.234 90.6361C107.494 90.9427 106.701 91.1005 105.9 91.1005Z" fill="#7CCDEF"/>
<path d="M91.3855 91.1004C90.5843 91.1004 89.7911 90.9426 89.0509 90.636C88.3108 90.3294 87.6383 89.8801 87.0718 89.3136C86.5054 88.7472 86.056 88.0746 85.7495 87.3345C85.4429 86.5944 85.2851 85.8011 85.2851 85C85.2851 79.3549 83.0426 73.9409 79.0508 69.9492C75.0591 65.9574 69.6451 63.7149 64 63.7149C58.3548 63.7149 52.9409 65.9574 48.9491 69.9492C44.9574 73.9409 42.7149 79.3549 42.7149 85C42.7149 86.6179 42.0722 88.1696 40.9281 89.3136C39.7841 90.4577 38.2324 91.1004 36.6145 91.1004C34.9966 91.1004 33.445 90.4577 32.3009 89.3136C31.1569 88.1696 30.5142 86.6179 30.5142 85C30.5142 66.5359 45.5358 51.5142 64 51.5142C82.4641 51.5142 97.4859 66.5359 97.4859 85C97.4859 86.6179 96.8431 88.1696 95.6991 89.3136C94.555 90.4577 93.0034 91.1004 91.3855 91.1004Z" fill="#7CCDEF"/>
<path d="M76.7945 91.7243C76.6942 91.7243 76.5935 91.7218 76.4924 91.7169C75.6922 91.6779 74.9075 91.4816 74.1832 91.1394C73.4589 90.7971 72.8091 90.3155 72.2709 89.7221C71.7327 89.1287 71.3166 88.4351 71.0465 87.6809C70.7763 86.9267 70.6574 86.1267 70.6964 85.3266C70.7763 83.5546 70.1506 81.8231 68.9565 80.5114C67.7624 79.1998 66.0971 78.4148 64.3254 78.3284C62.5537 78.242 60.82 78.8612 59.5039 80.0505C58.1878 81.2398 57.3967 82.9021 57.3038 84.6735C57.2223 86.2875 56.5036 87.8032 55.3056 88.8879C54.1077 89.9726 52.5282 90.5376 50.9141 90.4588C49.2999 90.3801 47.783 89.6642 46.6962 88.4681C45.6095 87.272 45.0417 85.6936 45.1176 84.0793C45.2324 81.5953 45.8362 79.1584 46.8944 76.9081C47.9525 74.6578 49.4442 72.6384 51.284 70.9655C53.1237 69.2926 55.2755 67.9991 57.6159 67.159C59.9564 66.319 62.4396 65.9489 64.9233 66.07C67.407 66.1912 69.8424 66.8011 72.09 67.8649C74.3376 68.9287 76.3533 70.4254 78.0215 72.2694C79.6898 74.1134 80.9779 76.2684 81.812 78.6109C82.6462 80.9535 83.01 83.4376 82.8826 85.921C82.8063 87.4847 82.1317 88.9593 80.9985 90.0395C79.8652 91.1197 78.3601 91.7229 76.7945 91.7243Z" fill="#7CCDEF"/>
</g>
<g clip-path="url(#clip1_165_5961)">
<path d="M90.5864 37.4137C89.1506 37.4137 87.7736 36.8434 86.7584 35.8281C85.7431 34.8129 85.1728 33.4359 85.1728 32.0001C85.1753 29.218 84.6296 26.4627 83.5667 23.8916C82.5038 21.3206 80.9446 18.9842 78.9783 17.0161C77.012 15.0479 74.6771 13.4866 72.107 12.4213C69.5369 11.3561 66.7821 10.8078 64 10.8078C61.2179 10.8078 58.4631 11.3561 55.893 12.4213C53.3229 13.4866 50.988 15.0479 49.0217 17.0161C47.0554 18.9842 45.4962 21.3206 44.4333 23.8916C43.3704 26.4627 42.8247 29.218 42.8272 32.0001C42.8272 33.4359 42.2569 34.8129 41.2416 35.8281C40.2264 36.8434 38.8494 37.4137 37.4136 37.4137C35.9778 37.4137 34.6009 36.8434 33.5856 35.8281C32.5704 34.8129 32 33.4359 32 32.0001C32 14.3551 46.3551 0 63.9999 0C81.6447 0 96 14.3551 96 32.0001C96 33.4359 95.4296 34.8129 94.4144 35.8281C93.3991 36.8433 92.0222 37.4137 90.5864 37.4137Z" fill="#19FACC"/>
</g>
<defs>
<clipPath id="clip0_165_5961">
<rect width="96" height="54.7242" fill="white" transform="translate(16 37)"/>
</clipPath>
<clipPath id="clip1_165_5961">
<rect width="64" height="37.4137" fill="white" transform="translate(32)"/>
</clipPath>
</defs>
</svg>
