<svg width="128" height="134" viewBox="0 0 128 134" fill="none" xmlns="http://www.w3.org/2000/svg">
<path d="M5.44187 133.46C4.37603 133.459 3.33369 133.146 2.44419 132.559C1.55469 131.972 0.857168 131.137 0.438179 130.156C0.01919 129.176 -0.102828 128.095 0.0872654 127.046C0.277358 125.997 0.771195 125.028 1.5075 124.257L118.607 1.69902C119.1 1.17884 119.69 0.76112 120.345 0.469845C121 0.178571 121.706 0.0194712 122.422 0.00167798C123.139 -0.0161152 123.851 0.107748 124.52 0.36616C125.188 0.624571 125.799 1.01244 126.317 1.50751C126.835 2.00258 127.251 2.59511 127.539 3.25107C127.828 3.90704 127.984 4.61354 127.999 5.33003C128.014 6.04651 127.887 6.75887 127.626 7.42622C127.365 8.09357 126.974 8.70278 126.477 9.21887L9.37765 131.777C8.86997 132.309 8.25927 132.733 7.58267 133.023C6.90608 133.312 6.17772 133.461 5.44187 133.46Z" fill="#19FACC"/>
<path d="M26.2331 132.791C25.1674 132.791 24.1252 132.478 23.2357 131.891C22.3463 131.304 21.6487 130.468 21.2296 129.489C20.8105 128.509 20.6882 127.427 20.878 126.379C21.0678 125.33 21.5613 124.36 22.2972 123.589L103.76 38.2706C104.253 37.751 104.844 37.3337 105.498 37.0428C106.153 36.7519 106.858 36.593 107.574 36.5753C108.29 36.5575 109.003 36.6813 109.671 36.9395C110.339 37.1977 110.95 37.5852 111.468 38.0798C111.986 38.5745 112.401 39.1665 112.69 39.8219C112.979 40.4774 113.135 41.1834 113.151 41.8995C113.166 42.6156 113.04 43.3276 112.779 43.9949C112.519 44.6621 112.13 45.2714 111.633 45.7878L30.1703 131.107C29.6626 131.64 29.0517 132.064 28.3748 132.353C27.6979 132.643 26.9692 132.792 26.2331 132.791Z" fill="#19FACC"/>
<path d="M45.5693 132.992C44.5036 132.992 43.4614 132.679 42.5719 132.092C41.6825 131.505 40.9849 130.67 40.5658 129.69C40.1467 128.71 40.0244 127.629 40.2142 126.58C40.404 125.532 40.8975 124.562 41.6334 123.791L90.8013 72.2961C91.7981 71.2521 93.1689 70.6468 94.612 70.6135C96.0551 70.5801 97.4524 71.1214 98.4964 72.1182C99.5404 73.1151 100.146 74.4858 100.179 75.9289C100.212 77.372 99.6711 78.7693 98.6743 79.8133L49.5066 131.308C48.9988 131.841 48.3879 132.265 47.711 132.555C47.0342 132.844 46.3055 132.993 45.5693 132.992Z" fill="#19FACC"/>
<g clip-path="url(#clip0_165_7066)">
<path d="M72.2382 43.162C71.2175 44.1828 69.8331 44.7562 68.3896 44.7562C66.9461 44.7562 65.5618 44.1828 64.5411 43.162C62.5651 41.1824 60.2183 39.6116 57.6349 38.5395C55.0516 37.4673 52.2822 36.9148 49.4852 36.9135C46.6881 36.9122 43.9182 37.4621 41.3339 38.5319C38.7495 39.6017 36.4013 41.1703 34.4235 43.1481C32.4457 45.1259 30.8771 47.4742 29.8073 50.0585C28.7375 52.6429 28.1875 55.4128 28.1888 58.2098C28.1901 61.0068 28.7426 63.7762 29.8148 66.3596C30.887 68.943 32.4578 71.2897 34.4374 73.2657C35.4581 74.2864 36.0315 75.6708 36.0315 77.1143C36.0315 78.5578 35.4581 79.9421 34.4374 80.9628C33.4167 81.9836 32.0323 82.557 30.5888 82.557C29.1453 82.557 27.761 81.9836 26.7403 80.9628C14.1963 68.4189 14.1963 48.0087 26.7401 35.4649C39.2839 22.9211 59.6943 22.921 72.2382 35.4649C73.2589 36.4856 73.8323 37.87 73.8323 39.3135C73.8323 40.757 73.2589 42.1413 72.2382 43.162Z" fill="#F69221"/>
</g>
<defs>
<clipPath id="clip0_165_7066">
<rect width="64.3438" height="37.6147" fill="white" transform="translate(3.99121 58.2138) rotate(-45)"/>
</clipPath>
</defs>
</svg>
