<svg width="310" height="350" viewBox="0 0 310 350" fill="none" xmlns="http://www.w3.org/2000/svg">
<circle cx="45.3165" cy="294.317" r="13.3165" fill="#19FACC"/>
<g clip-path="url(#clip0_308_9806)">
<path d="M88.941 308C84.8701 308 80.8907 309.207 77.5059 311.469C74.1211 313.73 71.483 316.945 69.9252 320.706C68.3673 324.467 67.9597 328.605 68.7539 332.598C69.5481 336.591 71.5084 340.258 74.3869 343.137C77.2654 346.015 80.9329 347.975 84.9255 348.77C88.9181 349.564 93.0566 349.156 96.8175 347.598C100.579 346.04 103.793 343.402 106.055 340.018C108.316 336.633 109.523 332.653 109.523 328.583C109.523 323.124 107.355 317.889 103.495 314.029C99.6347 310.169 94.3997 308 88.941 308ZM88.941 338.17C87.0449 338.17 85.1915 337.608 83.615 336.554C82.0386 335.501 80.8099 334.004 80.0844 332.252C79.3589 330.5 79.1691 328.572 79.5391 326.713C79.909 324.853 80.8221 323.145 82.1628 321.804C83.5035 320.464 85.2117 319.551 87.0713 319.181C88.9309 318.811 90.8585 319.001 92.6102 319.726C94.362 320.452 95.8593 321.68 96.9128 323.257C97.9663 324.833 98.5287 326.686 98.5289 328.583C98.5289 329.842 98.281 331.088 97.7992 332.252C97.3173 333.415 96.6111 334.472 95.7208 335.362C94.8304 336.253 93.7734 336.959 92.6102 337.441C91.4469 337.923 90.2001 338.171 88.941 338.17Z" fill="#08407B"/>
</g>
<g filter="url(#filter0_d_308_9806)">
<g clip-path="url(#clip1_308_9806)">
<path d="M10 100C10 44.7715 54.7715 0 110 0H310V270.728H110C54.7715 270.728 10 225.956 10 170.728V100Z" fill="#7CCDEF"/>
<path d="M141.503 184C140.033 184 138.596 183.568 137.37 182.759C136.143 181.949 135.182 180.797 134.604 179.446C134.026 178.095 133.858 176.604 134.12 175.158C134.382 173.712 135.063 172.375 136.078 171.312L297.522 2.34243C298.202 1.62525 299.016 1.04935 299.919 0.647773C300.822 0.246194 301.795 0.0268448 302.783 0.00231343C303.77 -0.0222179 304.753 0.148552 305.675 0.504822C306.596 0.861092 307.438 1.39585 308.153 2.0784C308.867 2.76095 309.44 3.57786 309.838 4.48224C310.235 5.38662 310.451 6.36066 310.471 7.34847C310.492 8.33628 310.317 9.31841 309.957 10.2385C309.597 11.1586 309.058 11.9985 308.373 12.71L146.929 181.68C146.229 182.414 145.387 182.999 144.454 183.397C143.521 183.796 142.517 184.001 141.503 184Z" fill="#08407B"/>
<path d="M170.167 183.078C168.698 183.078 167.261 182.646 166.035 181.837C164.808 181.027 163.847 179.876 163.269 178.525C162.691 177.174 162.522 175.683 162.784 174.238C163.046 172.792 163.726 171.455 164.741 170.392L277.053 52.7635C277.733 52.0471 278.547 51.4718 279.45 51.0707C280.352 50.6696 281.325 50.4506 282.312 50.4261C283.299 50.4017 284.281 50.5723 285.202 50.9283C286.124 51.2843 286.965 51.8185 287.68 52.5005C288.394 53.1824 288.966 53.9986 289.364 54.9023C289.763 55.8059 289.978 56.7793 290 57.7666C290.021 58.7538 289.847 59.7356 289.488 60.6555C289.129 61.5754 288.592 62.4155 287.908 63.1274L175.595 180.756C174.895 181.491 174.053 182.076 173.12 182.475C172.187 182.874 171.182 183.079 170.167 183.078Z" fill="#08407B"/>
<path d="M196.825 183.355C195.356 183.355 193.919 182.924 192.693 182.114C191.466 181.305 190.505 180.153 189.927 178.802C189.349 177.452 189.181 175.961 189.442 174.515C189.704 173.069 190.384 171.732 191.399 170.669L259.186 99.6739C260.561 98.2345 262.451 97.4001 264.44 97.3541C266.43 97.3081 268.356 98.0543 269.796 99.4287C271.235 100.803 272.069 102.693 272.115 104.682C272.161 106.672 271.415 108.598 270.041 110.038L202.254 181.033C201.553 181.768 200.711 182.353 199.778 182.752C198.845 183.151 197.84 183.357 196.825 183.355Z" fill="#08407B"/>
<g clip-path="url(#clip2_308_9806)">
<path d="M224.636 55.572C223.041 57.1668 220.878 58.0628 218.623 58.0628C216.367 58.0628 214.204 57.1668 212.609 55.572C209.522 52.4788 205.855 50.0244 201.818 48.3492C197.782 46.6739 193.455 45.8106 189.084 45.8086C184.714 45.8065 180.386 46.6659 176.348 48.3374C172.31 50.0089 168.641 52.4599 165.55 55.5502C162.46 58.6406 160.009 62.3096 158.338 66.3477C156.666 70.3858 155.807 74.7137 155.809 79.0841C155.811 83.4545 156.674 87.7816 158.349 91.8181C160.025 95.8547 162.479 99.5215 165.572 102.609C167.167 104.204 168.063 106.367 168.063 108.622C168.063 110.878 167.167 113.041 165.572 114.636C163.977 116.231 161.814 117.127 159.559 117.127C157.303 117.127 155.14 116.231 153.545 114.636C133.946 95.0358 133.946 63.1448 153.545 43.5452C173.145 23.9455 205.036 23.9453 224.636 43.5452C226.231 45.14 227.127 47.3031 227.127 49.5586C227.127 51.814 226.231 53.9771 224.636 55.572Z" fill="#19FACC"/>
</g>
</g>
</g>
<defs>
<filter id="filter0_d_308_9806" x="0" y="0" width="310" height="280.728" filterUnits="userSpaceOnUse" color-interpolation-filters="sRGB">
<feFlood flood-opacity="0" result="BackgroundImageFix"/>
<feColorMatrix in="SourceAlpha" type="matrix" values="0 0 0 0 0 0 0 0 0 0 0 0 0 0 0 0 0 0 127 0" result="hardAlpha"/>
<feOffset dx="-10" dy="10"/>
<feComposite in2="hardAlpha" operator="out"/>
<feColorMatrix type="matrix" values="0 0 0 0 0.964706 0 0 0 0 0.572549 0 0 0 0 0.129412 0 0 0 1 0"/>
<feBlend mode="normal" in2="BackgroundImageFix" result="effect1_dropShadow_308_9806"/>
<feBlend mode="normal" in="SourceGraphic" in2="effect1_dropShadow_308_9806" result="shape"/>
</filter>
<clipPath id="clip0_308_9806">
<rect width="41.1651" height="41.1651" fill="white" transform="translate(68.3584 308)"/>
</clipPath>
<clipPath id="clip1_308_9806">
<path d="M10 100C10 44.7715 54.7715 0 110 0H310V270.728H110C54.7715 270.728 10 225.956 10 170.728V100Z" fill="white"/>
</clipPath>
<clipPath id="clip2_308_9806">
<rect width="100.537" height="58.773" fill="white" transform="translate(118 79.0903) rotate(-45)"/>
</clipPath>
</defs>
</svg>
