<svg width="298" height="352" viewBox="0 0 298 352" fill="none" xmlns="http://www.w3.org/2000/svg">
<circle cx="186.317" cy="41.3165" r="13.3165" fill="#F69221"/>
<g clip-path="url(#clip0_308_9805)">
<path d="M230.941 0C226.87 0 222.891 1.20715 219.506 3.46878C216.121 5.73042 213.483 8.94498 211.925 12.7059C210.367 16.4669 209.96 20.6054 210.754 24.598C211.548 28.5906 213.508 32.2581 216.387 35.1366C219.265 38.0151 222.933 39.9754 226.925 40.7696C230.918 41.5638 235.057 41.1562 238.818 39.5983C242.579 38.0405 245.793 35.4024 248.055 32.0176C250.316 28.6328 251.523 24.6534 251.523 20.5825C251.523 15.1238 249.355 9.88877 245.495 6.02886C241.635 2.16896 236.4 0.000341286 230.941 0ZM230.941 30.1704C229.045 30.1703 227.191 29.6079 225.615 28.5544C224.039 27.5009 222.81 26.0036 222.084 24.2518C221.359 22.5001 221.169 20.5725 221.539 18.7129C221.909 16.8533 222.822 15.1451 224.163 13.8044C225.504 12.4637 227.212 11.5506 229.071 11.1807C230.931 10.8107 232.858 11.0005 234.61 11.726C236.362 12.4515 237.859 13.6802 238.913 15.2566C239.966 16.8331 240.529 18.6865 240.529 20.5825C240.529 21.8417 240.281 23.0885 239.799 24.2517C239.317 25.415 238.611 26.472 237.721 27.3624C236.83 28.2527 235.773 28.9589 234.61 29.4407C233.447 29.9226 232.2 30.1705 230.941 30.1704Z" fill="#19FACC"/>
</g>
<g filter="url(#filter0_d_308_9805)">
<g clip-path="url(#clip1_308_9805)">
<path d="M0 80H188C243.228 80 288 124.772 288 180V251.895C288 307.124 243.228 351.895 188 351.895H0V80Z" fill="#08407B"/>
<path d="M197.195 349.867C196.147 349.867 195.111 349.629 194.168 349.171C193.224 348.713 192.397 348.047 191.748 347.223C191.099 346.399 190.645 345.439 190.42 344.415C190.196 343.39 190.206 342.328 190.451 341.308C196.459 316.408 195.787 301.416 188.131 289.564C179.644 276.423 161.267 265.394 128.546 253.801C116.994 249.722 106.186 243.783 96.5489 236.219C91.4402 232.21 86.6923 227.761 82.3596 222.923C70.4012 229.524 56.448 236.446 40.5002 243.688C10.4832 257.316 -15.8442 267.074 -16.1066 267.171C-17.8302 267.805 -19.7349 267.729 -21.4025 266.959C-23.0701 266.19 -24.3643 264.791 -25.0009 263.068C-25.6375 261.345 -25.5645 259.441 -24.7978 257.772C-24.0312 256.103 -22.6336 254.806 -20.912 254.167C-20.1769 253.896 32.3279 234.375 73.6804 211.873C61.8812 194.677 56.0137 175.482 57.5797 159.179C58.3911 150.733 61.2668 143.339 65.8958 137.796C70.9621 131.731 78.1306 127.851 86.6264 126.576C96.3408 125.118 105.029 126.431 112.45 130.479C118.965 134.033 124.3 139.692 127.876 146.845C131.692 154.475 133.401 163.531 132.687 172.343C131.944 181.528 128.651 189.43 123.417 194.592C116.766 201.151 107.186 208.223 94.679 215.809C105.389 227.009 118.573 235.545 133.176 240.734C150.911 247.017 164.65 253.183 175.178 259.583C186.36 266.38 194.406 273.727 199.777 282.042C205.099 290.281 207.884 299.586 208.293 310.489C208.647 319.922 207.26 330.749 203.928 344.56C203.563 346.071 202.701 347.416 201.48 348.378C200.259 349.341 198.75 349.865 197.195 349.867ZM94.0644 139.865C92.2629 139.872 90.4644 140.012 88.6838 140.286C75.8012 142.219 72.1632 152.348 71.3795 160.505C70.1336 173.475 75.3083 189.807 85.2225 204.191C85.4077 204.46 85.5943 204.727 85.7821 204.994C97.1549 198.213 106.995 191.316 113.682 184.721C119.268 179.212 121.38 164.849 115.477 153.045C112.35 146.792 106.154 139.865 94.0644 139.865Z" fill="#F69221"/>
<path d="M199.454 418.031C198.274 418.031 197.11 417.763 196.048 417.248C194.987 416.733 194.056 415.983 193.326 415.057C192.595 414.13 192.085 413.05 191.832 411.897C191.58 410.744 191.592 409.55 191.867 408.402C198.626 380.389 197.87 363.524 189.257 350.19C179.709 335.407 159.035 322.999 122.224 309.957C109.228 305.368 97.0688 298.687 86.227 290.177C80.4797 285.667 75.1383 280.661 70.264 275.219C56.8108 282.646 41.1135 290.433 23.1722 298.58C-10.5969 313.911 -40.2152 324.889 -40.5104 324.998C-42.4495 325.711 -44.5923 325.625 -46.4684 324.76C-48.3444 323.895 -49.8004 322.32 -50.5165 320.382C-51.2327 318.444 -51.1505 316.301 -50.2881 314.424C-49.4256 312.546 -47.8533 311.088 -45.9165 310.369C-45.0895 310.063 13.9784 288.102 60.4999 262.788C47.2259 243.442 40.625 221.848 42.3866 203.507C43.2995 194.005 46.5347 185.687 51.7423 179.452C57.4419 172.628 65.5065 168.263 75.0642 166.829C85.993 165.188 95.7675 166.666 104.115 171.22C111.446 175.218 117.447 181.585 121.47 189.631C125.763 198.215 127.685 208.403 126.883 218.317C126.046 228.65 122.342 237.539 116.453 243.347C108.971 250.726 98.1942 258.682 84.1234 267.215C96.1721 279.816 111.004 289.419 127.432 295.256C147.385 302.325 162.841 309.261 174.684 316.461C187.264 324.109 196.316 332.373 202.358 341.728C208.345 350.997 211.479 361.465 211.94 373.73C212.338 384.343 210.777 396.523 207.028 412.06C206.618 413.76 205.648 415.273 204.275 416.356C202.901 417.439 201.203 418.029 199.454 418.031ZM83.4319 181.779C81.4053 181.786 79.3819 181.944 77.3788 182.252C62.8858 184.427 58.7931 195.822 57.9115 204.998C56.5098 219.591 62.3314 237.963 73.4848 254.146C73.6932 254.448 73.903 254.749 74.1143 255.049C86.9088 247.42 97.9791 239.661 105.502 232.242C111.787 226.045 114.161 209.885 107.521 196.606C104.004 189.572 97.0326 181.779 83.4319 181.779Z" fill="#19FACC"/>
</g>
</g>
<defs>
<filter id="filter0_d_308_9805" x="0" y="70" width="298" height="281.896" filterUnits="userSpaceOnUse" color-interpolation-filters="sRGB">
<feFlood flood-opacity="0" result="BackgroundImageFix"/>
<feColorMatrix in="SourceAlpha" type="matrix" values="0 0 0 0 0 0 0 0 0 0 0 0 0 0 0 0 0 0 127 0" result="hardAlpha"/>
<feOffset dx="10" dy="-10"/>
<feComposite in2="hardAlpha" operator="out"/>
<feColorMatrix type="matrix" values="0 0 0 0 0.486275 0 0 0 0 0.803922 0 0 0 0 0.937255 0 0 0 1 0"/>
<feBlend mode="normal" in2="BackgroundImageFix" result="effect1_dropShadow_308_9805"/>
<feBlend mode="normal" in="SourceGraphic" in2="effect1_dropShadow_308_9805" result="shape"/>
</filter>
<clipPath id="clip0_308_9805">
<rect width="41.1651" height="41.1651" fill="white" transform="translate(210.358)"/>
</clipPath>
<clipPath id="clip1_308_9805">
<path d="M0 80H188C243.228 80 288 124.772 288 180V251.895C288 307.124 243.228 351.895 188 351.895H0V80Z" fill="white"/>
</clipPath>
</defs>
</svg>
