<svg width="144" height="160" viewBox="0 0 144 160" fill="none" xmlns="http://www.w3.org/2000/svg">
<path d="M135.894 122.574C135.32 122.573 134.753 122.443 134.236 122.192C133.72 121.942 133.267 121.577 132.911 121.126C132.556 120.675 132.307 120.149 132.185 119.588C132.062 119.027 132.067 118.446 132.202 117.887C135.491 104.254 135.123 96.0454 130.931 89.5557C126.284 82.3611 116.222 76.3222 98.3066 69.9747C91.9816 67.7413 86.0639 64.4896 80.7873 60.3481C77.9901 58.1528 75.3905 55.7168 73.0182 53.068C66.4707 56.6825 58.8309 60.4725 50.099 64.4378C33.6638 71.8993 19.2489 77.242 19.1052 77.2951C18.1615 77.6422 17.1186 77.6005 16.2055 77.1793C15.2925 76.7581 14.5839 75.9918 14.2353 75.0486C13.8868 74.1054 13.9267 73.0625 14.3465 72.1488C14.7663 71.235 15.5315 70.5252 16.4741 70.1752C16.8766 70.0265 45.6245 59.3382 68.2661 47.018C61.8058 37.6026 58.5931 27.0928 59.4505 18.1664C59.8948 13.5418 61.4694 9.49341 64.0039 6.45889C66.7778 3.13781 70.7028 1.0134 75.3544 0.315322C80.6734 -0.482885 85.4306 0.23609 89.4934 2.45239C93.061 4.39847 95.9818 7.49703 97.94 11.413C100.029 15.591 100.965 20.5492 100.574 25.3743C100.167 30.4033 98.3643 34.7296 95.4983 37.5561C91.8566 41.1474 86.6116 45.0196 79.7635 49.1728C85.6275 55.3053 92.8463 59.9792 100.842 62.82C110.552 66.2604 118.075 69.6362 123.839 73.1404C129.961 76.8623 134.367 80.8847 137.307 85.4373C140.221 89.9487 141.747 95.0435 141.971 101.013C142.164 106.178 141.405 112.106 139.58 119.668C139.381 120.495 138.909 121.231 138.24 121.758C137.572 122.285 136.745 122.573 135.894 122.574ZM79.4269 7.59171C78.4406 7.59509 77.4558 7.672 76.4809 7.82181C69.4273 8.88034 67.4354 14.4262 67.0063 18.8922C66.3241 25.9941 69.1575 34.9361 74.5857 42.8118C74.6872 42.959 74.7893 43.1055 74.8921 43.2515C81.1191 39.5384 86.5069 35.7624 90.1683 32.1516C93.2269 29.1353 94.3828 21.2707 91.151 14.808C89.439 11.3844 86.0463 7.59171 79.4269 7.59171Z" fill="#F69221"/>
<path d="M137.131 159.895C136.485 159.895 135.847 159.749 135.266 159.466C134.685 159.184 134.175 158.774 133.775 158.267C133.375 157.759 133.096 157.168 132.958 156.537C132.819 155.906 132.826 155.251 132.977 154.623C136.677 139.285 136.263 130.051 131.548 122.75C126.32 114.656 115 107.862 94.845 100.722C87.7293 98.2089 81.0719 94.5508 75.1357 89.8916C71.9889 87.4219 69.0643 84.6814 66.3955 81.7015C59.0295 85.7679 50.4348 90.0315 40.6114 94.4925C22.1218 102.887 5.905 108.897 5.74336 108.957C4.68166 109.347 3.5084 109.301 2.4812 108.827C1.45401 108.353 0.656833 107.491 0.264716 106.43C-0.127402 105.369 -0.0824099 104.195 0.389812 103.167C0.862034 102.139 1.72289 101.341 2.78335 100.947C3.23617 100.78 35.5775 88.7555 61.0494 74.8952C53.7815 64.303 50.1673 52.4793 51.1318 42.4372C51.6316 37.2345 53.403 32.6801 56.2543 29.2663C59.375 25.53 63.7906 23.1401 69.0237 22.3547C75.0076 21.4568 80.3594 22.2656 84.9301 24.7589C88.9436 26.9483 92.2295 30.4342 94.4325 34.8396C96.7829 39.5398 97.8353 45.1178 97.3958 50.5461C96.9378 56.2038 94.9099 61.0708 91.6855 64.2506C87.5886 68.2908 81.6881 72.6471 73.9839 77.3194C80.5809 84.2185 88.7021 89.4766 97.6967 92.6725C108.621 96.543 117.084 100.341 123.569 104.283C130.456 108.47 135.413 112.995 138.721 118.117C141.999 123.192 143.715 128.924 143.967 135.639C144.185 141.45 143.33 148.119 141.278 156.626C141.053 157.557 140.522 158.385 139.77 158.978C139.018 159.571 138.089 159.894 137.131 159.895ZM73.6053 30.5407C72.4957 30.5445 71.3878 30.631 70.291 30.7995C62.3557 31.9904 60.1148 38.2295 59.6321 43.2537C58.8647 51.2434 62.0522 61.3031 68.159 70.1633C68.2731 70.3289 68.388 70.4937 68.5037 70.6579C75.509 66.4807 81.5703 62.2327 85.6894 58.1705C89.1303 54.7772 90.4306 45.9295 86.7949 38.659C84.8689 34.8074 81.0521 30.5407 73.6053 30.5407Z" fill="#19FACC"/>
</svg>
