<svg width="154" height="257" viewBox="0 0 154 257" fill="none" xmlns="http://www.w3.org/2000/svg">
<g clip-path="url(#clip0_165_6494)">
<path d="M63.9999 193C28.7103 193 0 164.29 0 129C0 93.7102 28.7103 65 63.9999 65C99.2894 65 128 93.7102 128 129C128 164.29 99.2896 193 63.9999 193ZM63.9999 84.1902C39.2919 84.1902 19.1902 104.292 19.1902 129C19.1902 153.708 39.2919 173.81 63.9999 173.81C88.7078 173.81 108.81 153.708 108.81 129C108.81 104.292 88.7082 84.1902 63.9999 84.1902Z" fill="#19FACC"/>
</g>
<path d="M89.9999 128C54.7103 128 26 99.2895 26 63.9999C26 28.7102 54.7103 0 89.9999 0C125.289 0 154 28.7102 154 63.9999C154 99.2895 125.29 128 89.9999 128ZM89.9999 19.1902C65.2919 19.1902 45.1902 39.2918 45.1902 63.9999C45.1902 88.708 65.2919 108.81 89.9999 108.81C114.708 108.81 134.81 88.708 134.81 63.9999C134.81 39.2918 114.708 19.1902 89.9999 19.1902Z" fill="#08407B"/>
<path d="M89.9999 257C54.7103 257 26 228.29 26 193C26 157.71 54.7103 129 89.9999 129C125.289 129 154 157.71 154 193C154 228.29 125.29 257 89.9999 257ZM89.9999 148.19C65.2919 148.19 45.1902 168.292 45.1902 193C45.1902 217.708 65.2919 237.81 89.9999 237.81C114.708 237.81 134.81 217.708 134.81 193C134.81 168.292 114.708 148.19 89.9999 148.19Z" fill="#7CCDEF"/>
<defs>
<clipPath id="clip0_165_6494">
<rect width="128" height="128" fill="white" transform="translate(0 65)"/>
</clipPath>
</defs>
</svg>
