<svg xmlns="http://www.w3.org/2000/svg" viewBox="0 0 794.3764 782.8016"><defs><style>.cls-1{fill:#19facc;}</style></defs><title>Asset 4</title><g id="Layer_2" data-name="Layer 2"><g id="Layer_2-2" data-name="Layer 2"><path class="cls-1" d="M540.1313,782.8016c-61.0068.0029-119.6846-22.8467-165.8779-64.7266-45.5489-41.2968-74.3184-97.7226-78.9317-154.8066-6.2422-77.2441-.49-299.061-.0986-313.7944-.19-24.16-20.1026-43.7554-44.5518-43.7554-24.5674,0-44.5537,19.7851-44.5537,44.1045a30,30,0,0,1-60,0c0-57.4033,46.9024-104.1045,104.5537-104.1045S355.2241,192.42,355.2241,249.8231l-.0108.8042c-.0625,2.3193-6.1484,232.7944-.0869,307.8081,6.5918,81.5537,84.4121,167.0488,189.79,164.3037,91.6768-2.377,190.0694-63.6016,189.4571-192.4063l.0029-166.5878a30.0011,30.0011,0,0,1,30-30h.001a30,30,0,0,1,29.999,30l-.0029,166.4034c.1621,36.666-6.4346,71.2587-19.6065,102.8193a235.1926,235.1926,0,0,1-54.4306,79.5439c-45.3457,43.542-107.0928,68.4746-173.8653,70.2071C544.3588,782.7743,542.2387,782.8016,540.1313,782.8016Z"/><path class="cls-1" d="M544.2172,709.4c-97.78,0-177.331-79.55-177.331-177.33V247.8978a117.3306,117.3306,0,1,0-234.6612,0,30,30,0,1,1-60,0c0-97.78,79.55-177.3306,177.33-177.3306s177.3311,79.55,177.3311,177.3306V532.07a117.3306,117.3306,0,0,0,234.6611,0V363.7454a30,30,0,0,1,60,0V532.07C721.5473,629.85,641.9975,709.4,544.2172,709.4Z"/><path class="cls-1" d="M543.7221,637.0623c-57.6514,0-104.5537-46.7011-104.5537-104.1045l.0078-.6738c.0508-2.2715,5.0449-228.0425.1348-303.44C432.9975,131.8958,353.5424,60,253.6733,60c-1.4473,0-2.8945.0147-4.3506.0454C154.1118,62.0277,58.5141,128.6771,60.018,252.2264a30,30,0,0,1-59.9961.73c-.4453-36.6138,5.8975-71.2,18.8526-102.7974A233.4569,233.4569,0,0,1,72.9174,70.348C118.3637,26.4266,180.5688,1.4642,248.0747.0584c64.6171-1.35,125.7832,20.7193,172.2363,62.1284,46.74,41.6656,74.751,99.4673,78.873,162.7579,5.0244,77.1591.293,294.5131-.0146,308.3061.16,24.1846,20.0849,43.8115,44.5527,43.8115,24.5664,0,44.5527-19.7851,44.5527-44.1045V362.2132a30,30,0,0,1,60,0V532.9578C648.2748,590.3612,601.3725,637.0623,543.7221,637.0623Z"/></g></g></svg>