<svg xmlns="http://www.w3.org/2000/svg" viewBox="0 0 705.4473 735.5358"><defs><style>.cls-1{fill:#19facc;}</style></defs><title>Asset 27</title><g id="Layer_2" data-name="Layer 2"><g id="Layer_2-2" data-name="Layer 2"><path class="cls-1" d="M29.9961,735.5358A30,30,0,0,1,8.31,684.8111L653.7568,9.2754a30,30,0,1,1,43.3809,41.4492L51.69,726.26A29.9147,29.9147,0,0,1,29.9961,735.5358Z"/><path class="cls-1" d="M144.5967,731.849a30,30,0,0,1-21.6943-50.7171L571.9248,210.8573A30,30,0,1,1,615.32,252.2918L166.2988,722.5663A29.9155,29.9155,0,0,1,144.5967,731.849Z"/><path class="cls-1" d="M251.1768,732.959a30,30,0,0,1-21.6944-50.7173L500.4942,398.4043A30,30,0,0,1,543.89,439.8389L272.8789,723.6763A29.9155,29.9155,0,0,1,251.1768,732.959Z"/></g></g></svg>