<svg xmlns="http://www.w3.org/2000/svg" viewBox="0 0 1011.8392 968.8937"><defs><style>.cls-1{fill:#f69221;}</style></defs><title>Asset 28</title><g id="Layer_2" data-name="Layer 2"><g id="Layer_2-2" data-name="Layer 2"><path class="cls-1" d="M963.5742,968.8937a30.0266,30.0266,0,0,1-29.1875-37.0432c26.001-107.7692,23.0918-172.6518-10.042-223.95-36.7324-56.87-116.2666-104.6054-257.8838-154.7794a486.8462,486.8462,0,0,1-138.4833-76.0942,481.57,481.57,0,0,1-61.4112-57.5461q-77.6337,42.8568-181.167,89.8731C155.4863,568.3343,41.542,610.5661,40.4063,610.9857a30,30,0,0,1-20.7979-56.28C22.79,553.53,250.03,469.0439,429.0029,371.6576c-51.0664-74.4244-76.4609-157.5007-69.6836-228.06,3.5118-36.5554,15.9581-68.5562,35.9922-92.5428,21.9268-26.2518,52.9522-43.0444,89.7217-48.5624,42.044-6.3095,79.6475-.6263,111.7627,16.8926,28.2,15.383,51.2881,39.8758,66.7666,70.83,16.5147,33.025,23.9092,72.2178,20.8213,110.3584-3.2178,39.7524-17.4668,73.9494-40.1221,96.2918q-43.1792,42.5815-124.3769,91.8254A429.4755,429.4755,0,0,0,686.4981,496.5661c76.7587,27.195,136.2207,53.8794,181.7832,81.5784,48.3955,29.42,83.22,61.2156,106.4648,97.2022,23.0332,35.6606,35.09,75.9326,36.86,123.1178,1.5322,40.828-4.4717,87.6841-18.8936,147.4583A30.0145,30.0145,0,0,1,963.5742,968.8937ZM517.2246,60.0092a156.8618,156.8618,0,0,0-23.2871,1.8189c-55.7558,8.3672-71.501,52.205-74.8926,87.507-5.3925,56.1378,17.0039,126.82,59.9121,189.0744q1.2027,1.7451,2.4219,3.4754c49.2217-29.35,91.81-59.1977,120.752-87.74,24.1767-23.8424,33.3134-86.009,7.7675-137.094C596.3662,89.9887,569.5479,60.0092,517.2246,60.0092Z"/></g></g></svg>