<svg xmlns="http://www.w3.org/2000/svg" viewBox="0 0 870.6357 870.6357"><defs><style>.cls-1{fill:#08407b;}</style></defs><title>Asset 21</title><g id="Layer_2" data-name="Layer 2"><g id="Layer_2-2" data-name="Layer 2"><path class="cls-1" d="M435.3179,870.6357A435.4247,435.4247,0,0,1,265.8633,34.2218,435.4228,435.4228,0,0,1,604.7725,836.414,432.6217,432.6217,0,0,1,435.3179,870.6357Zm0-810.6357C228.3669,60,60,228.3669,60,435.3178S228.3669,810.6357,435.3179,810.6357s375.3178-168.367,375.3178-375.3179S642.2688,60,435.3179,60Z"/><path class="cls-1" d="M435.3179,794.1638A358.9327,358.9327,0,0,1,295.63,104.684,358.9311,358.9311,0,0,1,575.0061,765.9516,356.6257,356.6257,0,0,1,435.3179,794.1638Zm0-657.692c-164.7842,0-298.846,134.0617-298.846,298.846s134.0618,298.846,298.846,298.846,298.8462-134.0617,298.8462-298.846S600.1023,136.4718,435.3179,136.4718Z"/><path class="cls-1" d="M435.6443,719.7082q-7.0716,0-14.1777-.3461a283.9312,283.9312,0,1,1,14.1777.3461Zm-.4551-508.7758c-118.759,0-218.1406,93.5744-223.9868,213.4563A224.3818,224.3818,0,0,0,424.3889,659.4334c3.6961.18,7.3967.2695,11.0579.27,118.7588.0111,218.1406-93.5744,223.9868-213.4563A224.3825,224.3825,0,0,0,446.2471,211.2022C442.551,211.022,438.85,210.9324,435.1892,210.9324Z"/></g></g></svg>