<svg xmlns="http://www.w3.org/2000/svg" viewBox="0 0 604.7763 1600.0868"><defs><style>.cls-1{fill:#f69221;}</style></defs><title>Asset 20</title><g id="Layer_2" data-name="Layer 2"><g id="Layer_2-2" data-name="Layer 2"><path class="cls-1" d="M362.4334,855.5745c-72.2923,0-131.1064-58.814-131.1064-131.1064s58.8141-131.1064,131.1064-131.1064S493.54,652.1758,493.54,724.4681,434.7257,855.5745,362.4334,855.5745Zm0-202.2128A71.1064,71.1064,0,1,0,433.54,724.4681,71.1869,71.1869,0,0,0,362.4334,653.3617Z"/><path class="cls-1" d="M198.5405,1600.0868a30.0015,30.0015,0,0,1-18.7365-53.4489c.7414-.5922,21.2945-17.148,51.1509-44.37,44.5724-46.7715,67.2155-99.3548,68.8921-159.39,3.221-115.3221-74.3517-235.9432-139.9943-316.8243C89.6884,939.6019,17.6279,878.825,11.3812,873.6123a29.9308,29.9308,0,0,1-6.7755-7.5644q-.5739-.9141-1.0778-1.8625a29.926,29.926,0,0,1-1.7247-24.3222L167.25,383.3525a30,30,0,0,1,56.9192,18.91c-48.4081,159.9813-60.0465,266.9954-36.6269,336.78,20.6893,61.6492,69.28,95.6377,130.798,138.6687q6.8448,4.788,13.8452,9.703c39.4253-1.724,74.8043-9.4185,105.6759-23.14C516.6941,829.236,540.6958,765.7712,540.916,765.14a30,30,0,0,1,57.2147,1.7923A190.3938,190.3938,0,0,1,592.65,883.6791c-18.3288,49.4464-56.21,93.357-112.8354,130.9q3.255,3.6829,6.5036,7.4727c33.3936,38.9621,47.7578,85.8664,42.694,139.41-7.9045,83.5788-63.2959,182.0655-164.635,292.7246-33.9517,37.0743-67.2262,69.0656-93.5261,93.0154a437.5347,437.5347,0,0,1-54.5874,47.0726A29.8791,29.8791,0,0,1,198.5405,1600.0868ZM150.2789,923.8726c17.74,18.9886,36.57,40.2828,55.4149,63.453,45.475,55.9119,81.5162,111.1619,107.1226,164.2154,32.8459,68.0535,48.6626,132.9541,47.0105,192.8989q-.3617,13.1181-1.8138,25.897c55.8034-67.5051,104.7048-144.9775,111.2693-214.565,3.5111-37.2178-5.8182-68.1863-28.521-94.6749q-10.7765-12.5733-21.69-23.9266a29.8764,29.8764,0,0,1-15.0065-13.3613,30.29,30.29,0,0,1-1.5333-3.2311c-29.9094-28.8564-60.0246-52.0018-88.6782-72.59q-13.6839-.0105-27.8088-.8166C243.84,944.762,198.462,936.9637,150.2789,923.8726Zm250.7629,15.1413c11.95,9.8007,24.0153,20.282,36.1355,31.6566,45.4674-28.2926,76.8587-60.0593,93.6339-94.7629A276.4758,276.4758,0,0,1,462.23,919.1028,319.3543,319.3543,0,0,1,401.0418,939.0139ZM68.0446,833.1781c53.1061,20.8434,103.1387,35.7506,149.5722,44.6705-8.2738-6.8506-16.2194-13.9012-23.7652-21.2761-30.6146-29.92-50.6942-61.2-63.1917-98.44a284.128,284.128,0,0,1-12.9621-61.96Z"/><path class="cls-1" d="M302.4079,1491.32a30,30,0,0,1-22.5394-49.7851c71.387-81.3694,96.0154-187.83,73.2014-316.4234-17.5464-98.9035-57.948-174.1593-58.3539-174.9079a30,30,0,0,1,52.6968-28.6886c1.8252,3.3485,44.922,83.2467,64.4154,191.331,11.5818,64.2161,12.3958,125.1661,2.4194,181.1563-12.6613,71.0605-42.6983,134.0107-89.2763,187.1021A29.9306,29.9306,0,0,1,302.4079,1491.32Z"/><path class="cls-1" d="M314.3484,331.83A99.3618,99.3618,0,1,1,413.71,232.4681,99.4742,99.4742,0,0,1,314.3484,331.83Zm0-138.7235A39.3618,39.3618,0,1,0,353.71,232.4681,39.4064,39.4064,0,0,0,314.3484,193.1063Z"/><path class="cls-1" d="M462.1637,146.83c-41.6344,0-74.2482-31.8817-74.2482-72.5817a74.2481,74.2481,0,1,1,148.4962,0C536.4117,114.9481,503.7981,146.83,462.1637,146.83Zm0-86.83a14.2643,14.2643,0,0,0-14.2482,14.2481c0,8.6445,7.3857,12.5817,14.2482,12.5817s14.248-3.9372,14.248-12.5817A14.2643,14.2643,0,0,0,462.1637,60Z"/></g></g></svg>