<svg xmlns="http://www.w3.org/2000/svg" viewBox="0 0 452.7489 764.3427"><defs><style>.cls-1{fill:#08407b;}</style></defs><title>Asset 33</title><g id="Layer_2" data-name="Layer 2"><g id="Layer_2-2" data-name="Layer 2"><path class="cls-1" d="M170.5164,257.1064A128.5532,128.5532,0,1,1,299.07,128.5532,128.6988,128.6988,0,0,1,170.5164,257.1064Zm0-197.1064A68.5532,68.5532,0,1,0,239.07,128.5532,68.6308,68.6308,0,0,0,170.5164,60Z"/><path class="cls-1" d="M60.6141,764.3427a30.0014,30.0014,0,0,1-20.5518-51.8481c.1954-.1843,20.5928-19.4592,50.875-52.4985,16.4151-17.9094,37.5411-41.8994,60.875-70.6727,26.0664-40.3992,33.0059-75.8017,21.2168-108.1614-27.9375-76.6792-150.34-113.9472-151.5732-114.3147a30.0017,30.0017,0,0,1,12.456-58.504c.6963.089,76.8194,9.3626,156.7266-19.6465,103.8418-37.7,166.2588-120.8756,185.5186-247.2177a30,30,0,0,1,58.9306-2.0405c.72,3.21,17.6231,79.8121,17.6612,183.2823.0224,61.007-5.8682,118.7944-17.5088,171.7569-14.7451,67.0947-38.8213,126.67-71.5586,177.0713C297.9969,672.6758,198.0213,737.3424,66.53,763.7531A30.0525,30.0525,0,0,1,60.6141,764.3427Zm325.998-441.5352q-29.915,72.4379-76.8,148.6053c-49.0058,79.5647-103.5556,148.3024-147.3066,198.5265,62.9805-29.7979,113.45-73.5638,150.7168-130.8551C356.8582,472.0026,377.5946,393.66,386.6121,322.8075ZM147.4764,362.326c40.9277,28.4246,68.3984,61.3193,81.8555,98.0988a154.9139,154.9139,0,0,1,5.1162,16.8771C279.08,410.1986,321.95,332.5076,349.1493,251.4041c-43.1622,49.9-94.8331,78.3328-140.3457,94.5207A404.5418,404.5418,0,0,1,147.4764,362.326Z"/></g></g></svg>