<svg xmlns="http://www.w3.org/2000/svg" viewBox="0 0 472.103 269.1194"><defs><style>.cls-1{fill:#08407b;}</style></defs><title>Asset 25</title><g id="Layer_2" data-name="Layer 2"><g id="Layer_2-2" data-name="Layer 2"><path class="cls-1" d="M442.103,266.0518a30,30,0,0,1-30-30C412.103,138.9765,333.127,60,236.0518,60S60,138.9765,60,236.0518a30,30,0,1,1-60,0A236.0515,236.0515,0,0,1,402.9653,69.138,234.5072,234.5072,0,0,1,472.103,236.0518,30,30,0,0,1,442.103,266.0518Z"/><path class="cls-1" d="M370.7266,266.0517a30,30,0,0,1-30-30,104.6746,104.6746,0,1,0-209.3492,0,30,30,0,0,1-60,0C71.3774,145.25,145.25,71.377,236.0518,71.377S400.7271,145.25,400.7271,236.0517A30.0006,30.0006,0,0,1,370.7266,266.0517Z"/><path class="cls-1" d="M298.9712,269.1194q-.74,0-1.4858-.0362a30,30,0,0,1-28.503-31.426,32.97,32.97,0,0,0-65.8613-3.2115,30,30,0,0,1-59.9287-2.9223,92.97,92.97,0,1,1,185.7187,9.057A30.0018,30.0018,0,0,1,298.9712,269.1194Z"/></g></g></svg>