<svg xmlns="http://www.w3.org/2000/svg" viewBox="0 0 472.1035 472.1033"><defs><style>.cls-1{fill:#7ccdef;}</style></defs><title>Asset 24</title><g id="Layer_2" data-name="Layer 2"><g id="Layer_2-2" data-name="Layer 2"><path class="cls-1" d="M236.0518,472.1033A236.0518,236.0518,0,0,1,69.1377,69.1379,236.0519,236.0519,0,0,1,402.9658,402.9654,234.5077,234.5077,0,0,1,236.0518,472.1033Zm0-412.1033C138.9766,60,60,138.9764,60,236.0516s78.9766,176.0517,176.0518,176.0517,176.0517-78.9764,176.0517-176.0517S333.127,60,236.0518,60Z"/><path class="cls-1" d="M236.0518,400.7263c-90.8023,0-164.6748-73.8728-164.6748-164.6747S145.25,71.3771,236.0518,71.3771,400.7261,145.25,400.7261,236.0516,326.8535,400.7263,236.0518,400.7263Zm0-269.3492A104.6746,104.6746,0,1,0,340.7261,236.0516,104.7933,104.7933,0,0,0,236.0518,131.3771Z"/><path class="cls-1" d="M236.1582,329.0244q-2.3122,0-4.6353-.1131a92.8258,92.8258,0,1,1,4.6353.1131Zm-.1255-125.9432a32.97,32.97,0,1,0,32.95,34.5765l29.9644,1.4611-29.9644-1.4611a33.0077,33.0077,0,0,0-31.3252-34.5369C237.1143,203.0944,236.5708,203.0812,236.0327,203.0812Z"/></g></g></svg>