<svg xmlns="http://www.w3.org/2000/svg" viewBox="0 0 1162.0563 647.1791"><defs><style>.cls-1{fill:#7ccdef;}</style></defs><title>Asset 26</title><g id="Layer_2" data-name="Layer 2"><g id="Layer_2-2" data-name="Layer 2"><path class="cls-1" d="M248.7251,488.2326c-120.06,0-231.4726-83.9312-236.9424-88.1125a30,30,0,0,1,36.4092-47.69h0c1.3389,1.0184,135.1846,101.4662,247.1074,69.5927,85.8457-24.4463,113.0625-67.7445,167.2842-154.0058,10.083-16.04,21.5107-34.22,34.1045-53.4325C546.2056,139.0456,605.436,82.552,672.7349,46.6725,728.8618,16.7493,790.6079,1.0641,856.26.0527c49.8759-.7677,101.1435,6.8528,152.3613,22.6518,47.3291,14.6,79.1572,31.425,90.6445,37.9812a30,30,0,0,1-29.74,52.11c-9.7842-5.5832-98.8809-54.5-212.3418-52.75-125.6514,1.9356-230.0566,64.997-310.3164,187.4324-12.28,18.7334-23.0606,35.8836-33.4863,52.4692-56.4122,89.7452-93.6807,149.0344-201.6485,179.7808A229.39,229.39,0,0,1,248.7251,488.2326Z"/><path class="cls-1" d="M251.1909,565.8115c-43.1474,0-87.97-7.9931-132.55-23.8371-53.16-18.8938-87.6533-42.3621-89.0947-43.3519a30,30,0,0,1,33.9082-49.5c.6514.44,31.0127,20.83,77.082,36.9516,41.5967,14.5562,105.1807,28.59,171.8838,12.78,83.3516-19.7566,154.2715-81.25,210.7881-182.7716,69.585-124.9961,158.6826-201.3783,264.82-227.0254,66.1045-15.9736,137.1406-11.8585,211.1338,12.23A542.8525,542.8525,0,0,1,1128.76,164.07a30,30,0,0,1-33.3145,49.9019c-35.4687-23.6786-161.4433-98.46-293.3242-66.5929-89.1856,21.5508-165.3877,88.13-226.4893,197.8881-65.1884,117.0995-149.3007,188.4662-249.999,212.1175A325.3539,325.3539,0,0,1,251.1909,565.8115Z"/><path class="cls-1" d="M255.0073,647.1791q-7.3506,0-14.7441-.2754c-103.1592-3.8409-177.669-46.6927-180.79-48.5151a30,30,0,0,1,30.1855-51.8538h0c.6543.378,66.5088,37.816,155.2256,40.4911,116.8623,3.52,217.8691-52.5337,300.2256-166.6159,16.3642-22.668,30.88-44.5554,44.917-65.7224,55.3623-83.4788,103.1748-155.5738,209.8105-185.8282,135.8018-38.53,270.8555,49.4422,328.5235,87.0086,7.7353,5.039,14.416,9.3906,18.5615,11.7566a30,30,0,0,1-29.7422,52.11c-5.6758-3.24-12.6895-7.8084-21.5684-13.5926C1044.7857,273.0335,925.7642,195.5,816.2144,226.5811c-85.2793,24.195-123.4092,81.6908-176.1836,161.2678-14.3614,21.6548-29.211,44.0468-46.2725,67.6806-52.0586,72.112-112.48,124.6868-179.5859,156.2642A370.73,370.73,0,0,1,255.0073,647.1791Z"/></g></g></svg>