<svg xmlns="http://www.w3.org/2000/svg" viewBox="0 0 870.6357 495.6463"><defs><style>.cls-1{fill:#f69221;}</style></defs><title>Asset 22</title><g id="Layer_2" data-name="Layer 2"><g id="Layer_2-2" data-name="Layer 2"><path class="cls-1" d="M840.6357,495.6462a30,30,0,0,1-30-30V435.3178C810.6357,228.3667,642.2686,60,435.3179,60S60,228.3667,60,435.3178v30.3284a30,30,0,0,1-60,0V435.3178A435.4248,435.4248,0,0,1,836.4141,265.8633a432.6175,432.6175,0,0,1,34.2216,169.4545v30.3284A30,30,0,0,1,840.6357,495.6462Z"/><path class="cls-1" d="M764.1641,495.6462a30,30,0,0,1-30-30V435.3178c0-164.7843-134.0618-298.8462-298.8462-298.8462s-298.846,134.0619-298.846,298.8462v30.3284a30,30,0,0,1-60,0V435.3178a358.9327,358.9327,0,0,1,689.48-139.6884,356.629,356.629,0,0,1,28.2124,139.6884v30.3284A30,30,0,0,1,764.1641,495.6462Z"/><path class="cls-1" d="M689.6953,495.6463A29.9991,29.9991,0,0,1,659.71,466.1607l-.3247-18.9265.0483-.9872c6.0259-123.5779-89.6089-229.0185-213.1865-235.0448-123.3548-6.0149-228.6189,89.2417-235.0091,212.48v41.9644a30,30,0,0,1-60,0v-43.45l.0357-.73A284.382,284.382,0,0,1,719.41,448.156l.291,16.9758a30,30,0,0,1-29.481,30.51C690.0449,495.6448,689.87,495.6463,689.6953,495.6463Z"/></g></g></svg>