<svg width="402" height="69" viewBox="0 0 402 69" fill="none" xmlns="http://www.w3.org/2000/svg">
<g filter="url(#filter0_d_165_7342)">
<path d="M179.64 22V0.751999H175.16V8.752H166.872V0.751999H162.424V22H166.872V12.464H175.16V22H179.64ZM192.373 22V14.032L199.477 0.751999H194.357L190.229 9.392L185.749 0.751999H180.565L187.925 13.968V22H192.373ZM204.903 10.672V4.432H209.127C211.687 4.432 212.743 5.744 212.743 7.504C212.743 9.36 211.687 10.672 209.127 10.672H204.903ZM204.903 22V14.288H209.831C213.991 14.288 216.647 11.504 216.647 7.632C216.647 3.792 213.991 0.751999 209.831 0.751999H200.455V22H204.903ZM233.677 22V18.224H221.869V12.752H232.269V9.008H221.869V4.464H233.165V0.751999H217.549V22H233.677ZM238.708 22V17.68H234.292V22H238.708ZM238.708 11.152V6.864H234.292V11.152H238.708Z" fill="black"/>
<path d="M18.0926 60V38.752H13.6126V46.752H5.32463V38.752H0.876625V60H5.32463V50.464H13.6126V60H18.0926ZM27.4979 56.928C24.9699 56.928 23.6899 55.328 23.6899 52.128C23.6899 48.928 24.9699 47.36 27.4979 47.36C30.0259 47.36 31.3059 48.928 31.3059 52.128C31.3059 55.328 30.0259 56.928 27.4979 56.928ZM27.4979 60.416C32.3939 60.416 35.4979 57.12 35.4979 52.128C35.4979 47.104 32.4259 43.84 27.4979 43.84C22.5059 43.84 19.4019 47.136 19.4019 52.128C19.4019 57.024 22.4099 60.416 27.4979 60.416ZM51.2759 60V49.088C51.2759 45.664 49.0679 43.84 46.0599 43.84C43.5319 43.84 41.9319 44.8 40.9719 46.56V44.256H37.0039V60H41.1639V50.976C41.1639 48.576 42.2199 47.36 44.3959 47.36C46.3799 47.36 47.0839 48.032 47.0839 50.464V60H51.2759ZM57.0336 50.592C57.1936 48.416 58.5696 47.136 60.2336 47.136C61.8656 47.136 63.4016 48.256 63.4656 50.592H57.0336ZM67.7536 53.216C67.7536 46.976 65.1936 43.84 60.3616 43.84C55.5296 43.84 52.7456 46.976 52.7456 51.84C52.7456 57.536 55.3696 60.416 60.6176 60.416C63.9776 60.416 66.5696 58.592 67.5296 55.36H63.2416C62.9536 56.448 61.7696 57.12 60.4256 57.12C58.3776 57.12 57.0336 55.584 56.9056 53.216H67.7536Z" fill="#08407B"/>
<path d="M87.9821 60V52.032L95.0861 38.752H89.9661L85.8381 47.392L81.3581 38.752H76.1741L83.5341 51.968V60H87.9821ZM99.4354 56.928C96.9074 56.928 95.6274 55.328 95.6274 52.128C95.6274 48.928 96.9074 47.36 99.4354 47.36C101.963 47.36 103.243 48.928 103.243 52.128C103.243 55.328 101.963 56.928 99.4354 56.928ZM99.4354 60.416C104.331 60.416 107.435 57.12 107.435 52.128C107.435 47.104 104.363 43.84 99.4354 43.84C94.4434 43.84 91.3394 47.136 91.3394 52.128C91.3394 57.024 94.3474 60.416 99.4354 60.416ZM123.117 60V44.256H118.989V53.344C118.989 55.424 117.869 56.928 115.757 56.928C113.997 56.928 113.101 55.968 113.101 53.984V44.256H108.941V54.624C108.941 58.08 111.149 60.416 114.285 60.416C116.461 60.416 118.093 59.584 119.181 57.792V60H123.117ZM129.101 60V51.808C129.101 49.28 130.349 48 132.909 48C133.293 48 133.677 48.032 134.061 48.096V43.84H133.517C131.821 43.84 130.221 44.032 128.845 46.144V44.256H124.941V60H129.101Z" fill="#7CCDEF"/>
<path d="M147.293 48.672V42.432H151.517C154.077 42.432 155.133 43.744 155.133 45.504C155.133 47.36 154.077 48.672 151.517 48.672H147.293ZM147.293 60V52.288H152.221C156.381 52.288 159.037 49.504 159.037 45.632C159.037 41.792 156.381 38.752 152.221 38.752H142.845V60H147.293ZM167.779 56.928C165.251 56.928 163.971 55.328 163.971 52.128C163.971 48.928 165.251 47.36 167.779 47.36C170.307 47.36 171.587 48.928 171.587 52.128C171.587 55.328 170.307 56.928 167.779 56.928ZM167.779 60.416C172.675 60.416 175.779 57.12 175.779 52.128C175.779 47.104 172.707 43.84 167.779 43.84C162.787 43.84 159.683 47.136 159.683 52.128C159.683 57.024 162.691 60.416 167.779 60.416ZM186.213 53.728C186.213 55.68 185.445 56.8 183.781 56.8C182.085 56.8 181.381 55.648 181.381 53.664V47.2H190.085V44.256H181.381V40H177.285V54.08C177.285 57.472 179.109 60.416 183.717 60.416C188.165 60.416 190.085 57.44 190.085 54.112V49.632H186.213V53.728ZM195.721 50.592C195.881 48.416 197.257 47.136 198.921 47.136C200.553 47.136 202.089 48.256 202.153 50.592H195.721ZM206.441 53.216C206.441 46.976 203.881 43.84 199.049 43.84C194.217 43.84 191.433 46.976 191.433 51.84C191.433 57.536 194.057 60.416 199.305 60.416C202.665 60.416 205.257 58.592 206.217 55.36H201.929C201.641 56.448 200.457 57.12 199.113 57.12C197.065 57.12 195.721 55.584 195.593 53.216H206.441ZM222.151 60V49.088C222.151 45.664 219.943 43.84 216.935 43.84C214.407 43.84 212.807 44.8 211.847 46.56V44.256H207.879V60H212.039V50.976C212.039 48.576 213.095 47.36 215.271 47.36C217.255 47.36 217.959 48.032 217.959 50.464V60H222.151ZM232.901 53.728C232.901 55.68 232.133 56.8 230.469 56.8C228.773 56.8 228.069 55.648 228.069 53.664V47.2H236.773V44.256H228.069V40H223.973V54.08C223.973 57.472 225.797 60.416 230.405 60.416C234.853 60.416 236.773 57.44 236.773 54.112V49.632H232.901V53.728ZM242.729 60V44.256H238.569V60H242.729ZM242.729 42.368V38.496H238.569V42.368H242.729ZM254.165 54.016C254.133 55.872 252.533 57.44 250.389 57.44C249.077 57.44 248.373 56.864 248.373 55.68C248.373 54.336 249.141 53.664 251.509 53.216C253.045 52.928 253.781 52.704 254.197 52.288L254.165 54.016ZM258.357 60V50.048C258.357 46.08 256.629 43.84 251.637 43.84C246.581 43.84 244.789 46.112 244.725 49.376H248.597C248.789 47.968 249.557 47.04 251.445 47.04C253.077 47.04 254.101 47.648 254.101 48.672C254.101 49.76 253.525 50.176 251.445 50.464C247.253 51.04 244.213 51.552 244.213 56.096C244.213 58.656 245.877 60.416 249.461 60.416C251.573 60.416 253.237 59.68 254.229 58.592C254.261 59.072 254.357 59.616 254.485 60H258.357ZM264.351 60V38.496H260.191V60H264.351Z" fill="#19FACC"/>
<path d="M289.848 60V56.224H278.04V50.752H288.44V47.008H278.04V42.464H289.336V38.752H273.72V60H289.848ZM305.632 60L300.256 51.968L305.472 44.256H300.64L297.952 48.832L295.296 44.256H290.272L295.392 51.968L290.112 60H295.104L297.792 55.264L300.544 60H305.632ZM314.147 56.864C311.843 56.864 310.659 55.168 310.659 51.744C310.659 49.088 312.195 47.232 314.179 47.232C316.259 47.232 317.731 49.184 317.731 52C317.731 55.232 316.579 56.864 314.147 56.864ZM310.819 67.456V57.952C312.003 59.616 313.539 60.416 315.491 60.416C319.555 60.416 321.955 57.056 321.955 52.288C321.955 46.976 319.107 43.84 315.139 43.84C313.219 43.84 311.747 44.576 310.755 46.176L310.723 44.256H306.723V67.456H310.819ZM327.409 50.592C327.569 48.416 328.945 47.136 330.609 47.136C332.241 47.136 333.777 48.256 333.841 50.592H327.409ZM338.129 53.216C338.129 46.976 335.569 43.84 330.737 43.84C325.905 43.84 323.121 46.976 323.121 51.84C323.121 57.536 325.745 60.416 330.993 60.416C334.353 60.416 336.945 58.592 337.905 55.36H333.617C333.329 56.448 332.145 57.12 330.801 57.12C328.753 57.12 327.409 55.584 327.281 53.216H338.129ZM343.726 60V51.808C343.726 49.28 344.974 48 347.534 48C347.918 48 348.302 48.032 348.686 48.096V43.84H348.142C346.446 43.84 344.846 44.032 343.47 46.144V44.256H339.566V60H343.726ZM358.776 53.728C358.776 55.68 358.008 56.8 356.344 56.8C354.648 56.8 353.944 55.648 353.944 53.664V47.2H362.648V44.256H353.944V40H349.848V54.08C349.848 57.472 351.672 60.416 356.28 60.416C360.728 60.416 362.648 57.44 362.648 54.112V49.632H358.776V53.728ZM368.604 60V44.256H364.444V60H368.604ZM368.604 42.368V38.496H364.444V42.368H368.604ZM383.976 49.024C383.752 45.632 381.704 43.84 377.16 43.84C372.36 43.84 370.536 45.856 370.536 48.512C370.536 49.92 371.048 51.136 372.52 52.064C373.64 52.768 375.112 53.216 377.768 53.856C379.112 54.176 380.296 54.528 380.296 55.648C380.296 56.832 378.984 57.28 377.512 57.28C375.496 57.28 374.248 56.416 374.248 54.944H369.96C370.024 58.144 372.712 60.416 377.544 60.416C382.024 60.416 384.424 58.464 384.424 55.2C384.424 53.152 383.496 52.064 381.832 51.392C380.616 50.912 378.92 50.56 377.128 50.048C375.432 49.568 374.568 49.184 374.568 48.256C374.568 47.328 375.464 46.944 377.032 46.944C378.92 46.944 379.752 47.488 379.976 49.024H383.976ZM389.534 50.592C389.694 48.416 391.07 47.136 392.734 47.136C394.366 47.136 395.902 48.256 395.966 50.592H389.534ZM400.254 53.216C400.254 46.976 397.694 43.84 392.862 43.84C388.03 43.84 385.246 46.976 385.246 51.84C385.246 57.536 387.87 60.416 393.118 60.416C396.478 60.416 399.07 58.592 400.03 55.36H395.742C395.454 56.448 394.27 57.12 392.926 57.12C390.878 57.12 389.534 55.584 389.406 53.216H400.254Z" fill="#F69221"/>
</g>
<defs>
<filter id="filter0_d_165_7342" x="0.876465" y="0.751953" width="400.377" height="67.7041" filterUnits="userSpaceOnUse" color-interpolation-filters="sRGB">
<feFlood flood-opacity="0" result="BackgroundImageFix"/>
<feColorMatrix in="SourceAlpha" type="matrix" values="0 0 0 0 0 0 0 0 0 0 0 0 0 0 0 0 0 0 127 0" result="hardAlpha"/>
<feOffset dx="1" dy="1"/>
<feComposite in2="hardAlpha" operator="out"/>
<feColorMatrix type="matrix" values="0 0 0 0 0 0 0 0 0 0 0 0 0 0 0 0 0 0 0.15 0"/>
<feBlend mode="normal" in2="BackgroundImageFix" result="effect1_dropShadow_165_7342"/>
<feBlend mode="normal" in="SourceGraphic" in2="effect1_dropShadow_165_7342" result="shape"/>
</filter>
</defs>
</svg>
