<svg width="410" height="88" viewBox="0 0 410 88" fill="none" xmlns="http://www.w3.org/2000/svg">
<path d="M164.879 38V0.815998H157.039V14.816H142.535V0.815998H134.751V38H142.535V21.312H157.039V38H164.879ZM18.1126 80V58.752H13.6326V66.752H5.34463V58.752H0.896629V80H5.34463V70.464H13.6326V80H18.1126ZM27.8379 76.928C25.3099 76.928 24.0299 75.328 24.0299 72.128C24.0299 68.928 25.3099 67.36 27.8379 67.36C30.3659 67.36 31.6459 68.928 31.6459 72.128C31.6459 75.328 30.3659 76.928 27.8379 76.928ZM27.8379 80.416C32.7339 80.416 35.8379 77.12 35.8379 72.128C35.8379 67.104 32.7659 63.84 27.8379 63.84C22.8459 63.84 19.7419 67.136 19.7419 72.128C19.7419 77.024 22.7499 80.416 27.8379 80.416ZM51.9359 80V69.088C51.9359 65.664 49.7279 63.84 46.7199 63.84C44.1919 63.84 42.5919 64.8 41.6319 66.56V64.256H37.6639V80H41.8239V70.976C41.8239 68.576 42.8799 67.36 45.0559 67.36C47.0399 67.36 47.7439 68.032 47.7439 70.464V80H51.9359ZM58.0136 70.592C58.1736 68.416 59.5496 67.136 61.2136 67.136C62.8456 67.136 64.3816 68.256 64.4456 70.592H58.0136ZM68.7336 73.216C68.7336 66.976 66.1736 63.84 61.3416 63.84C56.5096 63.84 53.7256 66.976 53.7256 71.84C53.7256 77.536 56.3496 80.416 61.5976 80.416C64.9576 80.416 67.5496 78.592 68.5096 75.36H64.2216C63.9336 76.448 62.7496 77.12 61.4056 77.12C59.3576 77.12 58.0136 75.584 57.8856 73.216H68.7336Z" fill="#08407B"/>
<path d="M192.762 38V24.056L205.194 0.815998H196.234L189.01 15.936L181.17 0.815998H172.098L184.978 23.944V38H192.762ZM89.6021 80V72.032L96.7061 58.752H91.5861L87.4581 67.392L82.9781 58.752H77.7941L85.1541 71.968V80H89.6021ZM101.375 76.928C98.8474 76.928 97.5674 75.328 97.5674 72.128C97.5674 68.928 98.8474 67.36 101.375 67.36C103.903 67.36 105.183 68.928 105.183 72.128C105.183 75.328 103.903 76.928 101.375 76.928ZM101.375 80.416C106.271 80.416 109.375 77.12 109.375 72.128C109.375 67.104 106.303 63.84 101.375 63.84C96.3834 63.84 93.2794 67.136 93.2794 72.128C93.2794 77.024 96.2874 80.416 101.375 80.416ZM125.377 80V64.256H121.249V73.344C121.249 75.424 120.129 76.928 118.017 76.928C116.257 76.928 115.361 75.968 115.361 73.984V64.256H111.201V74.624C111.201 78.08 113.409 80.416 116.545 80.416C118.721 80.416 120.353 79.584 121.441 77.792V80H125.377ZM131.681 80V71.808C131.681 69.28 132.929 68 135.489 68C135.873 68 136.257 68.032 136.641 68.096V63.84H136.097C134.401 63.84 132.801 64.032 131.425 66.144V64.256H127.521V80H131.681Z" fill="#7CCDEF"/>
<path d="M220.29 18.176V7.256H227.682C232.162 7.256 234.01 9.552 234.01 12.632C234.01 15.88 232.162 18.176 227.682 18.176H220.29ZM220.29 38V24.504H228.914C236.194 24.504 240.842 19.632 240.842 12.856C240.842 6.136 236.194 0.815998 228.914 0.815998H212.506V38H220.29ZM150.513 68.672V62.432H154.737C157.297 62.432 158.353 63.744 158.353 65.504C158.353 67.36 157.297 68.672 154.737 68.672H150.513ZM150.513 80V72.288H155.441C159.601 72.288 162.257 69.504 162.257 65.632C162.257 61.792 159.601 58.752 155.441 58.752H146.065V80H150.513ZM171.319 76.928C168.791 76.928 167.511 75.328 167.511 72.128C167.511 68.928 168.791 67.36 171.319 67.36C173.847 67.36 175.127 68.928 175.127 72.128C175.127 75.328 173.847 76.928 171.319 76.928ZM171.319 80.416C176.215 80.416 179.319 77.12 179.319 72.128C179.319 67.104 176.247 63.84 171.319 63.84C166.327 63.84 163.223 67.136 163.223 72.128C163.223 77.024 166.231 80.416 171.319 80.416ZM190.073 73.728C190.073 75.68 189.305 76.8 187.641 76.8C185.945 76.8 185.241 75.648 185.241 73.664V67.2H193.945V64.256H185.241V60H181.145V74.08C181.145 77.472 182.969 80.416 187.577 80.416C192.025 80.416 193.945 77.44 193.945 74.112V69.632H190.073V73.728ZM199.901 70.592C200.061 68.416 201.437 67.136 203.101 67.136C204.733 67.136 206.269 68.256 206.333 70.592H199.901ZM210.621 73.216C210.621 66.976 208.061 63.84 203.229 63.84C198.397 63.84 195.613 66.976 195.613 71.84C195.613 77.536 198.237 80.416 203.485 80.416C206.845 80.416 209.437 78.592 210.397 75.36H206.109C205.821 76.448 204.637 77.12 203.293 77.12C201.245 77.12 199.901 75.584 199.773 73.216H210.621ZM226.651 80V69.088C226.651 65.664 224.443 63.84 221.435 63.84C218.907 63.84 217.307 64.8 216.347 66.56V64.256H212.379V80H216.539V70.976C216.539 68.576 217.595 67.36 219.771 67.36C221.755 67.36 222.459 68.032 222.459 70.464V80H226.651ZM237.721 73.728C237.721 75.68 236.953 76.8 235.289 76.8C233.593 76.8 232.889 75.648 232.889 73.664V67.2H241.593V64.256H232.889V60H228.793V74.08C228.793 77.472 230.617 80.416 235.225 80.416C239.673 80.416 241.593 77.44 241.593 74.112V69.632H237.721V73.728ZM247.869 80V64.256H243.709V80H247.869ZM247.869 62.368V58.496H243.709V62.368H247.869ZM259.625 74.016C259.593 75.872 257.993 77.44 255.849 77.44C254.537 77.44 253.833 76.864 253.833 75.68C253.833 74.336 254.601 73.664 256.969 73.216C258.505 72.928 259.241 72.704 259.657 72.288L259.625 74.016ZM263.817 80V70.048C263.817 66.08 262.089 63.84 257.097 63.84C252.041 63.84 250.249 66.112 250.185 69.376H254.057C254.249 67.968 255.017 67.04 256.905 67.04C258.537 67.04 259.561 67.648 259.561 68.672C259.561 69.76 258.985 70.176 256.905 70.464C252.713 71.04 249.673 71.552 249.673 76.096C249.673 78.656 251.337 80.416 254.921 80.416C257.033 80.416 258.697 79.68 259.689 78.592C259.721 79.072 259.817 79.616 259.945 80H263.817ZM270.131 80V58.496H265.971V80H270.131Z" fill="#19FACC"/>
<path d="M276.244 38V31.392H255.58V21.816H273.78V15.264H255.58V7.312H275.348V0.815998H248.02V38H276.244ZM296.268 80V76.224H284.46V70.752H294.86V67.008H284.46V62.464H295.756V58.752H280.14V80H296.268ZM312.372 80L306.996 71.968L312.212 64.256H307.38L304.692 68.832L302.036 64.256H297.012L302.132 71.968L296.852 80H301.844L304.532 75.264L307.284 80H312.372ZM321.207 76.864C318.903 76.864 317.719 75.168 317.719 71.744C317.719 69.088 319.255 67.232 321.239 67.232C323.319 67.232 324.791 69.184 324.791 72C324.791 75.232 323.639 76.864 321.207 76.864ZM317.879 87.456V77.952C319.063 79.616 320.599 80.416 322.551 80.416C326.615 80.416 329.015 77.056 329.015 72.288C329.015 66.976 326.167 63.84 322.199 63.84C320.279 63.84 318.807 64.576 317.815 66.176L317.783 64.256H313.783V87.456H317.879ZM334.789 70.592C334.949 68.416 336.325 67.136 337.989 67.136C339.621 67.136 341.157 68.256 341.221 70.592H334.789ZM345.509 73.216C345.509 66.976 342.949 63.84 338.117 63.84C333.285 63.84 330.501 66.976 330.501 71.84C330.501 77.536 333.125 80.416 338.373 80.416C341.733 80.416 344.325 78.592 345.285 75.36H340.997C340.709 76.448 339.525 77.12 338.181 77.12C336.133 77.12 334.789 75.584 334.661 73.216H345.509ZM351.426 80V71.808C351.426 69.28 352.674 68 355.234 68C355.618 68 356.002 68.032 356.386 68.096V63.84H355.842C354.146 63.84 352.546 64.032 351.17 66.144V64.256H347.266V80H351.426ZM366.796 73.728C366.796 75.68 366.028 76.8 364.364 76.8C362.668 76.8 361.964 75.648 361.964 73.664V67.2H370.668V64.256H361.964V60H357.868V74.08C357.868 77.472 359.692 80.416 364.3 80.416C368.748 80.416 370.668 77.44 370.668 74.112V69.632H366.796V73.728ZM376.944 80V64.256H372.784V80H376.944ZM376.944 62.368V58.496H372.784V62.368H376.944ZM392.636 69.024C392.412 65.632 390.364 63.84 385.82 63.84C381.02 63.84 379.196 65.856 379.196 68.512C379.196 69.92 379.708 71.136 381.18 72.064C382.3 72.768 383.772 73.216 386.428 73.856C387.772 74.176 388.956 74.528 388.956 75.648C388.956 76.832 387.644 77.28 386.172 77.28C384.156 77.28 382.908 76.416 382.908 74.944H378.62C378.684 78.144 381.372 80.416 386.204 80.416C390.684 80.416 393.084 78.464 393.084 75.2C393.084 73.152 392.156 72.064 390.492 71.392C389.276 70.912 387.58 70.56 385.788 70.048C384.092 69.568 383.228 69.184 383.228 68.256C383.228 67.328 384.124 66.944 385.692 66.944C387.58 66.944 388.412 67.488 388.636 69.024H392.636ZM398.514 70.592C398.674 68.416 400.05 67.136 401.714 67.136C403.346 67.136 404.882 68.256 404.946 70.592H398.514ZM409.234 73.216C409.234 66.976 406.674 63.84 401.842 63.84C397.01 63.84 394.226 66.976 394.226 71.84C394.226 77.536 396.85 80.416 402.098 80.416C405.458 80.416 408.05 78.592 409.01 75.36H404.722C404.434 76.448 403.25 77.12 401.906 77.12C399.858 77.12 398.514 75.584 398.386 73.216H409.234Z" fill="#F69221"/>
</svg>
