<svg width="205" height="49" viewBox="0 0 205 49" fill="none" xmlns="http://www.w3.org/2000/svg">
<path d="M79.5739 22V0.751999H75.0939V8.752H66.8059V0.751999H62.3579V22H66.8059V12.464H75.0939V22H79.5739ZM9.05632 45V34.376H6.81632V38.376H2.67231V34.376H0.448315V45H2.67231V40.232H6.81632V45H9.05632ZM13.9189 43.464C12.6549 43.464 12.0149 42.664 12.0149 41.064C12.0149 39.464 12.6549 38.68 13.9189 38.68C15.1829 38.68 15.8229 39.464 15.8229 41.064C15.8229 42.664 15.1829 43.464 13.9189 43.464ZM13.9189 45.208C16.3669 45.208 17.9189 43.56 17.9189 41.064C17.9189 38.552 16.3829 36.92 13.9189 36.92C11.4229 36.92 9.87094 38.568 9.87094 41.064C9.87094 43.512 11.3749 45.208 13.9189 45.208ZM25.9679 45V39.544C25.9679 37.832 24.8639 36.92 23.3599 36.92C22.0959 36.92 21.2959 37.4 20.8159 38.28V37.128H18.8319V45H20.9119V40.488C20.9119 39.288 21.4399 38.68 22.5279 38.68C23.5199 38.68 23.8719 39.016 23.8719 40.232V45H25.9679ZM29.0068 40.296C29.0868 39.208 29.7748 38.568 30.6068 38.568C31.4228 38.568 32.1908 39.128 32.2228 40.296H29.0068ZM34.3668 41.608C34.3668 38.488 33.0868 36.92 30.6708 36.92C28.2548 36.92 26.8628 38.488 26.8628 40.92C26.8628 43.768 28.1748 45.208 30.7988 45.208C32.4788 45.208 33.7748 44.296 34.2548 42.68H32.1108C31.9668 43.224 31.3748 43.56 30.7028 43.56C29.6788 43.56 29.0068 42.792 28.9428 41.608H34.3668Z" fill="#08407B"/>
<path d="M95.5071 22V14.032L102.611 0.751999H97.4911L93.3631 9.392L88.8831 0.751999H83.6991L91.0591 13.968V22H95.5071ZM44.8011 45V41.016L48.3531 34.376H45.7931L43.7291 38.696L41.4891 34.376H38.8971L42.5771 40.984V45H44.8011ZM50.6877 43.464C49.4237 43.464 48.7837 42.664 48.7837 41.064C48.7837 39.464 49.4237 38.68 50.6877 38.68C51.9517 38.68 52.5917 39.464 52.5917 41.064C52.5917 42.664 51.9517 43.464 50.6877 43.464ZM50.6877 45.208C53.1357 45.208 54.6877 43.56 54.6877 41.064C54.6877 38.552 53.1517 36.92 50.6877 36.92C48.1917 36.92 46.6397 38.568 46.6397 41.064C46.6397 43.512 48.1437 45.208 50.6877 45.208ZM62.6887 45V37.128H60.6247V41.672C60.6247 42.712 60.0647 43.464 59.0087 43.464C58.1287 43.464 57.6807 42.984 57.6807 41.992V37.128H55.6007V42.312C55.6007 44.04 56.7047 45.208 58.2727 45.208C59.3607 45.208 60.1767 44.792 60.7207 43.896V45H62.6887ZM65.8407 45V40.904C65.8407 39.64 66.4647 39 67.7447 39C67.9367 39 68.1287 39.016 68.3207 39.048V36.92H68.0487C67.2007 36.92 66.4007 37.016 65.7127 38.072V37.128H63.7607V45H65.8407Z" fill="#7CCDEF"/>
<path d="M111.237 10.672V4.432H115.461C118.021 4.432 119.077 5.744 119.077 7.504C119.077 9.36 118.021 10.672 115.461 10.672H111.237ZM111.237 22V14.288H116.165C120.325 14.288 122.981 11.504 122.981 7.632C122.981 3.792 120.325 0.751999 116.165 0.751999H106.789V22H111.237ZM75.2567 39.336V36.216H77.3687C78.6487 36.216 79.1767 36.872 79.1767 37.752C79.1767 38.68 78.6487 39.336 77.3687 39.336H75.2567ZM75.2567 45V41.144H77.7207C79.8007 41.144 81.1287 39.752 81.1287 37.816C81.1287 35.896 79.8007 34.376 77.7207 34.376H73.0327V45H75.2567ZM85.6596 43.464C84.3956 43.464 83.7556 42.664 83.7556 41.064C83.7556 39.464 84.3956 38.68 85.6596 38.68C86.9236 38.68 87.5636 39.464 87.5636 41.064C87.5636 42.664 86.9236 43.464 85.6596 43.464ZM85.6596 45.208C88.1076 45.208 89.6596 43.56 89.6596 41.064C89.6596 38.552 88.1236 36.92 85.6596 36.92C83.1636 36.92 81.6116 38.568 81.6116 41.064C81.6116 43.512 83.1156 45.208 85.6596 45.208ZM95.0366 41.864C95.0366 42.84 94.6526 43.4 93.8206 43.4C92.9726 43.4 92.6206 42.824 92.6206 41.832V38.6H96.9726V37.128H92.6206V35H90.5726V42.04C90.5726 43.736 91.4846 45.208 93.7886 45.208C96.0126 45.208 96.9726 43.72 96.9726 42.056V39.816H95.0366V41.864ZM99.9506 40.296C100.031 39.208 100.719 38.568 101.551 38.568C102.367 38.568 103.135 39.128 103.167 40.296H99.9506ZM105.311 41.608C105.311 38.488 104.031 36.92 101.615 36.92C99.1986 36.92 97.8066 38.488 97.8066 40.92C97.8066 43.768 99.1186 45.208 101.743 45.208C103.423 45.208 104.719 44.296 105.199 42.68H103.055C102.911 43.224 102.319 43.56 101.647 43.56C100.623 43.56 99.9506 42.792 99.8866 41.608H105.311ZM113.325 45V39.544C113.325 37.832 112.221 36.92 110.717 36.92C109.453 36.92 108.653 37.4 108.173 38.28V37.128H106.189V45H108.269V40.488C108.269 39.288 108.797 38.68 109.885 38.68C110.877 38.68 111.229 39.016 111.229 40.232V45H113.325ZM118.86 41.864C118.86 42.84 118.476 43.4 117.644 43.4C116.796 43.4 116.444 42.824 116.444 41.832V38.6H120.796V37.128H116.444V35H114.396V42.04C114.396 43.736 115.308 45.208 117.612 45.208C119.836 45.208 120.796 43.72 120.796 42.056V39.816H118.86V41.864ZM123.934 45V37.128H121.854V45H123.934ZM123.934 36.184V34.248H121.854V36.184H123.934ZM129.812 42.008C129.796 42.936 128.996 43.72 127.924 43.72C127.268 43.72 126.916 43.432 126.916 42.84C126.916 42.168 127.3 41.832 128.484 41.608C129.252 41.464 129.62 41.352 129.828 41.144L129.812 42.008ZM131.908 45V40.024C131.908 38.04 131.044 36.92 128.548 36.92C126.02 36.92 125.124 38.056 125.092 39.688H127.028C127.124 38.984 127.508 38.52 128.452 38.52C129.268 38.52 129.78 38.824 129.78 39.336C129.78 39.88 129.492 40.088 128.452 40.232C126.356 40.52 124.836 40.776 124.836 43.048C124.836 44.328 125.668 45.208 127.46 45.208C128.516 45.208 129.348 44.84 129.844 44.296C129.86 44.536 129.908 44.808 129.972 45H131.908ZM135.066 45V34.248H132.986V45H135.066Z" fill="#19FACC"/>
<path d="M143.211 22V18.224H131.403V12.752H141.803V9.008H131.403V4.464H142.699V0.751999H127.083V22H143.211ZM148.134 45V43.112H142.23V40.376H147.43V38.504H142.23V36.232H147.878V34.376H140.07V45H148.134ZM156.186 45L153.498 40.984L156.106 37.128H153.69L152.346 39.416L151.018 37.128H148.506L151.066 40.984L148.426 45H150.922L152.266 42.632L153.642 45H156.186ZM160.603 43.432C159.451 43.432 158.859 42.584 158.859 40.872C158.859 39.544 159.627 38.616 160.619 38.616C161.659 38.616 162.395 39.592 162.395 41C162.395 42.616 161.819 43.432 160.603 43.432ZM158.939 48.728V43.976C159.531 44.808 160.299 45.208 161.275 45.208C163.307 45.208 164.507 43.528 164.507 41.144C164.507 38.488 163.083 36.92 161.099 36.92C160.139 36.92 159.403 37.288 158.907 38.088L158.891 37.128H156.891V48.728H158.939ZM167.394 40.296C167.474 39.208 168.162 38.568 168.994 38.568C169.81 38.568 170.578 39.128 170.61 40.296H167.394ZM172.754 41.608C172.754 38.488 171.474 36.92 169.058 36.92C166.642 36.92 165.25 38.488 165.25 40.92C165.25 43.768 166.562 45.208 169.186 45.208C170.866 45.208 172.162 44.296 172.642 42.68H170.498C170.354 43.224 169.762 43.56 169.09 43.56C168.066 43.56 167.394 42.792 167.33 41.608H172.754ZM175.713 45V40.904C175.713 39.64 176.337 39 177.617 39C177.809 39 178.001 39.016 178.193 39.048V36.92H177.921C177.073 36.92 176.273 37.016 175.585 38.072V37.128H173.633V45H175.713ZM183.398 41.864C183.398 42.84 183.014 43.4 182.182 43.4C181.334 43.4 180.982 42.824 180.982 41.832V38.6H185.334V37.128H180.982V35H178.934V42.04C178.934 43.736 179.846 45.208 182.15 45.208C184.374 45.208 185.334 43.72 185.334 42.056V39.816H183.398V41.864ZM188.472 45V37.128H186.392V45H188.472ZM188.472 36.184V34.248H186.392V36.184H188.472ZM196.318 39.512C196.206 37.816 195.182 36.92 192.91 36.92C190.51 36.92 189.598 37.928 189.598 39.256C189.598 39.96 189.854 40.568 190.59 41.032C191.15 41.384 191.886 41.608 193.214 41.928C193.886 42.088 194.478 42.264 194.478 42.824C194.478 43.416 193.822 43.64 193.086 43.64C192.078 43.64 191.454 43.208 191.454 42.472H189.31C189.342 44.072 190.686 45.208 193.102 45.208C195.342 45.208 196.542 44.232 196.542 42.6C196.542 41.576 196.078 41.032 195.246 40.696C194.638 40.456 193.79 40.28 192.894 40.024C192.046 39.784 191.614 39.592 191.614 39.128C191.614 38.664 192.062 38.472 192.846 38.472C193.79 38.472 194.206 38.744 194.318 39.512H196.318ZM199.257 40.296C199.337 39.208 200.025 38.568 200.857 38.568C201.673 38.568 202.441 39.128 202.473 40.296H199.257ZM204.617 41.608C204.617 38.488 203.337 36.92 200.921 36.92C198.505 36.92 197.113 38.488 197.113 40.92C197.113 43.768 198.425 45.208 201.049 45.208C202.729 45.208 204.025 44.296 204.505 42.68H202.361C202.217 43.224 201.625 43.56 200.953 43.56C199.929 43.56 199.257 42.792 199.193 41.608H204.617Z" fill="#F69221"/>
</svg>
