<svg width="206" height="79" viewBox="0 0 206 79" fill="none" xmlns="http://www.w3.org/2000/svg">
<path d="M43.9847 54H32.7847V30.16H12.0647V54H0.944691V0.879997H12.0647V20.88H32.7847V0.879997H43.9847V54ZM9.05632 75H6.81632V70.232H2.67231V75H0.448315V64.376H2.67231V68.376H6.81632V64.376H9.05632V75ZM13.9189 73.464C15.1829 73.464 15.8229 72.664 15.8229 71.064C15.8229 69.464 15.1829 68.68 13.9189 68.68C12.6549 68.68 12.0149 69.464 12.0149 71.064C12.0149 72.664 12.6549 73.464 13.9189 73.464ZM13.9189 75.208C11.3749 75.208 9.87094 73.512 9.87094 71.064C9.87094 68.568 11.4229 66.92 13.9189 66.92C16.3829 66.92 17.9189 68.552 17.9189 71.064C17.9189 73.56 16.3669 75.208 13.9189 75.208ZM25.9679 75H23.8719V70.232C23.8719 69.016 23.5199 68.68 22.5279 68.68C21.4399 68.68 20.9119 69.288 20.9119 70.488V75H18.8319V67.128H20.8159V68.28C21.2959 67.4 22.0959 66.92 23.3599 66.92C24.8639 66.92 25.9679 67.832 25.9679 69.544V75ZM29.0068 70.296H32.2228C32.1908 69.128 31.4228 68.568 30.6068 68.568C29.7748 68.568 29.0868 69.208 29.0068 70.296ZM34.3668 71.608H28.9428C29.0068 72.792 29.6788 73.56 30.7028 73.56C31.3748 73.56 31.9668 73.224 32.1108 72.68H34.2548C33.7748 74.296 32.4788 75.208 30.7988 75.208C28.1748 75.208 26.8628 73.768 26.8628 70.92C26.8628 68.488 28.2548 66.92 30.6708 66.92C33.0868 66.92 34.3668 68.488 34.3668 71.608Z" fill="#08407B"/>
<path d="M84.6178 54H73.4978V33.92L55.0978 0.879997H68.0578L79.2578 22.48L89.5778 0.879997H102.378L84.6178 34.08V54ZM44.8011 75H42.5771V70.984L38.8971 64.376H41.4891L43.7291 68.696L45.7931 64.376H48.3531L44.8011 71.016V75ZM50.6877 73.464C51.9517 73.464 52.5917 72.664 52.5917 71.064C52.5917 69.464 51.9517 68.68 50.6877 68.68C49.4237 68.68 48.7837 69.464 48.7837 71.064C48.7837 72.664 49.4237 73.464 50.6877 73.464ZM50.6877 75.208C48.1437 75.208 46.6397 73.512 46.6397 71.064C46.6397 68.568 48.1917 66.92 50.6877 66.92C53.1517 66.92 54.6877 68.552 54.6877 71.064C54.6877 73.56 53.1357 75.208 50.6877 75.208ZM62.6887 75H60.7207V73.896C60.1767 74.792 59.3607 75.208 58.2727 75.208C56.7047 75.208 55.6007 74.04 55.6007 72.312V67.128H57.6807V71.992C57.6807 72.984 58.1287 73.464 59.0087 73.464C60.0647 73.464 60.6247 72.712 60.6247 71.672V67.128H62.6887V75ZM65.8407 75H63.7607V67.128H65.7127V68.072C66.4007 67.016 67.2007 66.92 68.0487 66.92H68.3207V69.048C68.1287 69.016 67.9367 69 67.7447 69C66.4647 69 65.8407 69.64 65.8407 70.904V75Z" fill="#7CCDEF"/>
<path d="M124.743 25.68H135.303C141.703 25.68 144.343 22.4 144.343 17.76C144.343 13.36 141.703 10.08 135.303 10.08H124.743V25.68ZM124.743 54H113.623V0.879997H137.063C147.463 0.879997 154.103 8.48 154.103 18.08C154.103 27.76 147.463 34.72 137.063 34.72H124.743V54ZM75.2567 69.336H77.3687C78.6487 69.336 79.1767 68.68 79.1767 67.752C79.1767 66.872 78.6487 66.216 77.3687 66.216H75.2567V69.336ZM75.2567 75H73.0327V64.376H77.7207C79.8007 64.376 81.1287 65.896 81.1287 67.816C81.1287 69.752 79.8007 71.144 77.7207 71.144H75.2567V75ZM85.6596 73.464C86.9236 73.464 87.5636 72.664 87.5636 71.064C87.5636 69.464 86.9236 68.68 85.6596 68.68C84.3956 68.68 83.7556 69.464 83.7556 71.064C83.7556 72.664 84.3956 73.464 85.6596 73.464ZM85.6596 75.208C83.1156 75.208 81.6116 73.512 81.6116 71.064C81.6116 68.568 83.1636 66.92 85.6596 66.92C88.1236 66.92 89.6596 68.552 89.6596 71.064C89.6596 73.56 88.1076 75.208 85.6596 75.208ZM95.0366 71.864V69.816H96.9726V72.056C96.9726 73.72 96.0126 75.208 93.7886 75.208C91.4846 75.208 90.5726 73.736 90.5726 72.04V65H92.6206V67.128H96.9726V68.6H92.6206V71.832C92.6206 72.824 92.9726 73.4 93.8206 73.4C94.6526 73.4 95.0366 72.84 95.0366 71.864ZM99.9506 70.296H103.167C103.135 69.128 102.367 68.568 101.551 68.568C100.719 68.568 100.031 69.208 99.9506 70.296ZM105.311 71.608H99.8866C99.9506 72.792 100.623 73.56 101.647 73.56C102.319 73.56 102.911 73.224 103.055 72.68H105.199C104.719 74.296 103.423 75.208 101.743 75.208C99.1186 75.208 97.8066 73.768 97.8066 70.92C97.8066 68.488 99.1986 66.92 101.615 66.92C104.031 66.92 105.311 68.488 105.311 71.608ZM113.325 75H111.229V70.232C111.229 69.016 110.877 68.68 109.885 68.68C108.797 68.68 108.269 69.288 108.269 70.488V75H106.189V67.128H108.173V68.28C108.653 67.4 109.453 66.92 110.717 66.92C112.221 66.92 113.325 67.832 113.325 69.544V75ZM118.86 71.864V69.816H120.796V72.056C120.796 73.72 119.836 75.208 117.612 75.208C115.308 75.208 114.396 73.736 114.396 72.04V65H116.444V67.128H120.796V68.6H116.444V71.832C116.444 72.824 116.796 73.4 117.644 73.4C118.476 73.4 118.86 72.84 118.86 71.864ZM123.934 75H121.854V67.128H123.934V75ZM123.934 66.184H121.854V64.248H123.934V66.184ZM129.812 72.008L129.828 71.144C129.62 71.352 129.252 71.464 128.484 71.608C127.3 71.832 126.916 72.168 126.916 72.84C126.916 73.432 127.268 73.72 127.924 73.72C128.996 73.72 129.796 72.936 129.812 72.008ZM131.908 75H129.972C129.908 74.808 129.86 74.536 129.844 74.296C129.348 74.84 128.516 75.208 127.46 75.208C125.668 75.208 124.836 74.328 124.836 73.048C124.836 70.776 126.356 70.52 128.452 70.232C129.492 70.088 129.78 69.88 129.78 69.336C129.78 68.824 129.268 68.52 128.452 68.52C127.508 68.52 127.124 68.984 127.028 69.688H125.092C125.124 68.056 126.02 66.92 128.548 66.92C131.044 66.92 131.908 68.04 131.908 70.024V75ZM135.066 75H132.986V64.248H135.066V75Z" fill="#19FACC"/>
<path d="M205.477 54H165.157V0.879997H204.197V10.16H175.957V21.52H201.957V30.88H175.957V44.56H205.477V54ZM148.134 75H140.07V64.376H147.878V66.232H142.23V68.504H147.43V70.376H142.23V73.112H148.134V75ZM156.186 75H153.642L152.266 72.632L150.922 75H148.426L151.066 70.984L148.506 67.128H151.018L152.346 69.416L153.69 67.128H156.106L153.498 70.984L156.186 75ZM160.603 73.432C161.819 73.432 162.395 72.616 162.395 71C162.395 69.592 161.659 68.616 160.619 68.616C159.627 68.616 158.859 69.544 158.859 70.872C158.859 72.584 159.451 73.432 160.603 73.432ZM158.939 78.728H156.891V67.128H158.891L158.907 68.088C159.403 67.288 160.139 66.92 161.099 66.92C163.083 66.92 164.507 68.488 164.507 71.144C164.507 73.528 163.307 75.208 161.275 75.208C160.299 75.208 159.531 74.808 158.939 73.976V78.728ZM167.394 70.296H170.61C170.578 69.128 169.81 68.568 168.994 68.568C168.162 68.568 167.474 69.208 167.394 70.296ZM172.754 71.608H167.33C167.394 72.792 168.066 73.56 169.09 73.56C169.762 73.56 170.354 73.224 170.498 72.68H172.642C172.162 74.296 170.866 75.208 169.186 75.208C166.562 75.208 165.25 73.768 165.25 70.92C165.25 68.488 166.642 66.92 169.058 66.92C171.474 66.92 172.754 68.488 172.754 71.608ZM175.713 75H173.633V67.128H175.585V68.072C176.273 67.016 177.073 66.92 177.921 66.92H178.193V69.048C178.001 69.016 177.809 69 177.617 69C176.337 69 175.713 69.64 175.713 70.904V75ZM183.398 71.864V69.816H185.334V72.056C185.334 73.72 184.374 75.208 182.15 75.208C179.846 75.208 178.934 73.736 178.934 72.04V65H180.982V67.128H185.334V68.6H180.982V71.832C180.982 72.824 181.334 73.4 182.182 73.4C183.014 73.4 183.398 72.84 183.398 71.864ZM188.472 75H186.392V67.128H188.472V75ZM188.472 66.184H186.392V64.248H188.472V66.184ZM196.318 69.512H194.318C194.206 68.744 193.79 68.472 192.846 68.472C192.062 68.472 191.614 68.664 191.614 69.128C191.614 69.592 192.046 69.784 192.894 70.024C193.79 70.28 194.638 70.456 195.246 70.696C196.078 71.032 196.542 71.576 196.542 72.6C196.542 74.232 195.342 75.208 193.102 75.208C190.686 75.208 189.342 74.072 189.31 72.472H191.454C191.454 73.208 192.078 73.64 193.086 73.64C193.822 73.64 194.478 73.416 194.478 72.824C194.478 72.264 193.886 72.088 193.214 71.928C191.886 71.608 191.15 71.384 190.59 71.032C189.854 70.568 189.598 69.96 189.598 69.256C189.598 67.928 190.51 66.92 192.91 66.92C195.182 66.92 196.206 67.816 196.318 69.512ZM199.257 70.296H202.473C202.441 69.128 201.673 68.568 200.857 68.568C200.025 68.568 199.337 69.208 199.257 70.296ZM204.617 71.608H199.193C199.257 72.792 199.929 73.56 200.953 73.56C201.625 73.56 202.217 73.224 202.361 72.68H204.505C204.025 74.296 202.729 75.208 201.049 75.208C198.425 75.208 197.113 73.768 197.113 70.92C197.113 68.488 198.505 66.92 200.921 66.92C203.337 66.92 204.617 68.488 204.617 71.608Z" fill="#F69221"/>
</svg>
