<svg width="486" height="31" viewBox="0 0 486 31" fill="none" xmlns="http://www.w3.org/2000/svg">
<g filter="url(#filter0_d_165_7341)">
<path d="M17.4208 22V0.751999H12.9408V8.752H4.65275V0.751999H0.20475V22H4.65275V12.464H12.9408V22H17.4208ZM30.154 22V14.032L37.258 0.751999H32.138L28.01 9.392L23.53 0.751999H18.346L25.706 13.968V22H30.154ZM42.684 10.672V4.432H46.908C49.468 4.432 50.524 5.744 50.524 7.504C50.524 9.36 49.468 10.672 46.908 10.672H42.684ZM42.684 22V14.288H47.612C51.772 14.288 54.428 11.504 54.428 7.632C54.428 3.792 51.772 0.751999 47.612 0.751999H38.236V22H42.684ZM71.4578 22V18.224H59.6498V12.752H70.0498V9.008H59.6498V4.464H70.9458V0.751999H55.3298V22H71.4578ZM76.489 22V17.68H72.073V22H76.489ZM76.489 11.152V6.864H72.073V11.152H76.489Z" fill="black"/>
<path d="M102.765 22V0.751999H98.2845V8.752H89.9965V0.751999H85.5485V22H89.9965V12.464H98.2845V22H102.765ZM112.17 18.928C109.642 18.928 108.362 17.328 108.362 14.128C108.362 10.928 109.642 9.36 112.17 9.36C114.698 9.36 115.978 10.928 115.978 14.128C115.978 17.328 114.698 18.928 112.17 18.928ZM112.17 22.416C117.066 22.416 120.17 19.12 120.17 14.128C120.17 9.104 117.098 5.84 112.17 5.84C107.178 5.84 104.074 9.136 104.074 14.128C104.074 19.024 107.082 22.416 112.17 22.416ZM135.948 22V11.088C135.948 7.664 133.74 5.84 130.732 5.84C128.204 5.84 126.604 6.8 125.644 8.56V6.256H121.676V22H125.836V12.976C125.836 10.576 126.892 9.36 129.068 9.36C131.052 9.36 131.756 10.032 131.756 12.464V22H135.948ZM141.706 12.592C141.866 10.416 143.242 9.136 144.906 9.136C146.538 9.136 148.074 10.256 148.138 12.592H141.706ZM152.426 15.216C152.426 8.976 149.866 5.84 145.034 5.84C140.202 5.84 137.418 8.976 137.418 13.84C137.418 19.536 140.042 22.416 145.29 22.416C148.65 22.416 151.242 20.592 152.202 17.36H147.914C147.626 18.448 146.442 19.12 145.098 19.12C143.05 19.12 141.706 17.584 141.578 15.216H152.426Z" fill="#08407B"/>
<path d="M172.654 22V14.032L179.758 0.751999H174.638L170.51 9.392L166.03 0.751999H160.846L168.206 13.968V22H172.654ZM184.107 18.928C181.579 18.928 180.299 17.328 180.299 14.128C180.299 10.928 181.579 9.36 184.107 9.36C186.635 9.36 187.915 10.928 187.915 14.128C187.915 17.328 186.635 18.928 184.107 18.928ZM184.107 22.416C189.003 22.416 192.107 19.12 192.107 14.128C192.107 9.104 189.035 5.84 184.107 5.84C179.115 5.84 176.011 9.136 176.011 14.128C176.011 19.024 179.019 22.416 184.107 22.416ZM207.789 22V6.256H203.661V15.344C203.661 17.424 202.541 18.928 200.429 18.928C198.669 18.928 197.773 17.968 197.773 15.984V6.256H193.613V16.624C193.613 20.08 195.821 22.416 198.957 22.416C201.133 22.416 202.765 21.584 203.853 19.792V22H207.789ZM213.773 22V13.808C213.773 11.28 215.021 10 217.581 10C217.965 10 218.349 10.032 218.733 10.096V5.84H218.189C216.493 5.84 214.893 6.032 213.517 8.144V6.256H209.613V22H213.773Z" fill="#7CCDEF"/>
<path d="M231.965 10.672V4.432H236.189C238.749 4.432 239.805 5.744 239.805 7.504C239.805 9.36 238.749 10.672 236.189 10.672H231.965ZM231.965 22V14.288H236.893C241.053 14.288 243.709 11.504 243.709 7.632C243.709 3.792 241.053 0.751999 236.893 0.751999H227.517V22H231.965ZM252.451 18.928C249.923 18.928 248.643 17.328 248.643 14.128C248.643 10.928 249.923 9.36 252.451 9.36C254.979 9.36 256.259 10.928 256.259 14.128C256.259 17.328 254.979 18.928 252.451 18.928ZM252.451 22.416C257.347 22.416 260.451 19.12 260.451 14.128C260.451 9.104 257.379 5.84 252.451 5.84C247.459 5.84 244.355 9.136 244.355 14.128C244.355 19.024 247.363 22.416 252.451 22.416ZM270.885 15.728C270.885 17.68 270.117 18.8 268.453 18.8C266.757 18.8 266.053 17.648 266.053 15.664V9.2H274.757V6.256H266.053V2H261.957V16.08C261.957 19.472 263.781 22.416 268.389 22.416C272.837 22.416 274.757 19.44 274.757 16.112V11.632H270.885V15.728ZM280.393 12.592C280.553 10.416 281.929 9.136 283.593 9.136C285.225 9.136 286.761 10.256 286.825 12.592H280.393ZM291.113 15.216C291.113 8.976 288.553 5.84 283.721 5.84C278.889 5.84 276.105 8.976 276.105 13.84C276.105 19.536 278.729 22.416 283.977 22.416C287.337 22.416 289.929 20.592 290.889 17.36H286.601C286.313 18.448 285.129 19.12 283.785 19.12C281.737 19.12 280.393 17.584 280.265 15.216H291.113ZM306.823 22V11.088C306.823 7.664 304.615 5.84 301.607 5.84C299.079 5.84 297.479 6.8 296.519 8.56V6.256H292.551V22H296.711V12.976C296.711 10.576 297.767 9.36 299.943 9.36C301.927 9.36 302.631 10.032 302.631 12.464V22H306.823ZM317.573 15.728C317.573 17.68 316.805 18.8 315.141 18.8C313.445 18.8 312.741 17.648 312.741 15.664V9.2H321.445V6.256H312.741V2H308.645V16.08C308.645 19.472 310.469 22.416 315.077 22.416C319.525 22.416 321.445 19.44 321.445 16.112V11.632H317.573V15.728ZM327.401 22V6.256H323.241V22H327.401ZM327.401 4.368V0.495998H323.241V4.368H327.401ZM338.837 16.016C338.805 17.872 337.205 19.44 335.061 19.44C333.749 19.44 333.045 18.864 333.045 17.68C333.045 16.336 333.813 15.664 336.181 15.216C337.717 14.928 338.453 14.704 338.869 14.288L338.837 16.016ZM343.029 22V12.048C343.029 8.08 341.301 5.84 336.309 5.84C331.253 5.84 329.461 8.112 329.397 11.376H333.269C333.461 9.968 334.229 9.04 336.117 9.04C337.749 9.04 338.773 9.648 338.773 10.672C338.773 11.76 338.197 12.176 336.117 12.464C331.925 13.04 328.885 13.552 328.885 18.096C328.885 20.656 330.549 22.416 334.133 22.416C336.245 22.416 337.909 21.68 338.901 20.592C338.933 21.072 339.029 21.616 339.157 22H343.029ZM349.023 22V0.495998H344.863V22H349.023Z" fill="#19FACC"/>
<path d="M374.52 22V18.224H362.712V12.752H373.112V9.008H362.712V4.464H374.008V0.751999H358.392V22H374.52ZM390.304 22L384.928 13.968L390.144 6.256H385.312L382.624 10.832L379.968 6.256H374.944L380.064 13.968L374.784 22H379.776L382.464 17.264L385.216 22H390.304ZM398.819 18.864C396.515 18.864 395.331 17.168 395.331 13.744C395.331 11.088 396.867 9.232 398.851 9.232C400.931 9.232 402.403 11.184 402.403 14C402.403 17.232 401.251 18.864 398.819 18.864ZM395.491 29.456V19.952C396.675 21.616 398.211 22.416 400.163 22.416C404.227 22.416 406.627 19.056 406.627 14.288C406.627 8.976 403.779 5.84 399.811 5.84C397.891 5.84 396.419 6.576 395.427 8.176L395.395 6.256H391.395V29.456H395.491ZM412.081 12.592C412.241 10.416 413.617 9.136 415.281 9.136C416.913 9.136 418.449 10.256 418.513 12.592H412.081ZM422.801 15.216C422.801 8.976 420.241 5.84 415.409 5.84C410.577 5.84 407.793 8.976 407.793 13.84C407.793 19.536 410.417 22.416 415.665 22.416C419.025 22.416 421.617 20.592 422.577 17.36H418.289C418.001 18.448 416.817 19.12 415.473 19.12C413.425 19.12 412.081 17.584 411.953 15.216H422.801ZM428.398 22V13.808C428.398 11.28 429.646 10 432.206 10C432.59 10 432.974 10.032 433.358 10.096V5.84H432.814C431.118 5.84 429.518 6.032 428.142 8.144V6.256H424.238V22H428.398ZM443.448 15.728C443.448 17.68 442.68 18.8 441.016 18.8C439.32 18.8 438.616 17.648 438.616 15.664V9.2H447.32V6.256H438.616V2H434.52V16.08C434.52 19.472 436.344 22.416 440.952 22.416C445.4 22.416 447.32 19.44 447.32 16.112V11.632H443.448V15.728ZM453.276 22V6.256H449.116V22H453.276ZM453.276 4.368V0.495998H449.116V4.368H453.276ZM468.648 11.024C468.424 7.632 466.376 5.84 461.832 5.84C457.032 5.84 455.208 7.856 455.208 10.512C455.208 11.92 455.72 13.136 457.192 14.064C458.312 14.768 459.784 15.216 462.44 15.856C463.784 16.176 464.968 16.528 464.968 17.648C464.968 18.832 463.656 19.28 462.184 19.28C460.168 19.28 458.92 18.416 458.92 16.944H454.632C454.696 20.144 457.384 22.416 462.216 22.416C466.696 22.416 469.096 20.464 469.096 17.2C469.096 15.152 468.168 14.064 466.504 13.392C465.288 12.912 463.592 12.56 461.8 12.048C460.104 11.568 459.24 11.184 459.24 10.256C459.24 9.328 460.136 8.944 461.704 8.944C463.592 8.944 464.424 9.488 464.648 11.024H468.648ZM474.206 12.592C474.366 10.416 475.742 9.136 477.406 9.136C479.038 9.136 480.574 10.256 480.638 12.592H474.206ZM484.926 15.216C484.926 8.976 482.366 5.84 477.534 5.84C472.702 5.84 469.918 8.976 469.918 13.84C469.918 19.536 472.542 22.416 477.79 22.416C481.15 22.416 483.742 20.592 484.702 17.36H480.414C480.126 18.448 478.942 19.12 477.598 19.12C475.55 19.12 474.206 17.584 474.078 15.216H484.926Z" fill="#F69221"/>
</g>
<defs>
<filter id="filter0_d_165_7341" x="0.20459" y="0.496094" width="485.721" height="29.96" filterUnits="userSpaceOnUse" color-interpolation-filters="sRGB">
<feFlood flood-opacity="0" result="BackgroundImageFix"/>
<feColorMatrix in="SourceAlpha" type="matrix" values="0 0 0 0 0 0 0 0 0 0 0 0 0 0 0 0 0 0 127 0" result="hardAlpha"/>
<feOffset dx="1" dy="1"/>
<feComposite in2="hardAlpha" operator="out"/>
<feColorMatrix type="matrix" values="0 0 0 0 0 0 0 0 0 0 0 0 0 0 0 0 0 0 0.15 0"/>
<feBlend mode="normal" in2="BackgroundImageFix" result="effect1_dropShadow_165_7341"/>
<feBlend mode="normal" in="SourceGraphic" in2="effect1_dropShadow_165_7341" result="shape"/>
</filter>
</defs>
</svg>
