<svg width="205" height="57" viewBox="0 0 205 57" fill="none" xmlns="http://www.w3.org/2000/svg">
<path d="M67.3908 32H60.6708V17.696H48.2388V32H41.5668V0.127998H48.2388V12.128H60.6708V0.127998H67.3908V32ZM9.05632 53H6.81632V48.232H2.67231V53H0.448315V42.376H2.67231V46.376H6.81632V42.376H9.05632V53ZM13.9189 51.464C15.1829 51.464 15.8229 50.664 15.8229 49.064C15.8229 47.464 15.1829 46.68 13.9189 46.68C12.6549 46.68 12.0149 47.464 12.0149 49.064C12.0149 50.664 12.6549 51.464 13.9189 51.464ZM13.9189 53.208C11.3749 53.208 9.87094 51.512 9.87094 49.064C9.87094 46.568 11.4229 44.92 13.9189 44.92C16.3829 44.92 17.9189 46.552 17.9189 49.064C17.9189 51.56 16.3669 53.208 13.9189 53.208ZM25.9679 53H23.8719V48.232C23.8719 47.016 23.5199 46.68 22.5279 46.68C21.4399 46.68 20.9119 47.288 20.9119 48.488V53H18.8319V45.128H20.8159V46.28C21.2959 45.4 22.0959 44.92 23.3599 44.92C24.8639 44.92 25.9679 45.832 25.9679 47.544V53ZM29.0068 48.296H32.2228C32.1908 47.128 31.4228 46.568 30.6068 46.568C29.7748 46.568 29.0868 47.208 29.0068 48.296ZM34.3668 49.608H28.9428C29.0068 50.792 29.6788 51.56 30.7028 51.56C31.3748 51.56 31.9668 51.224 32.1108 50.68H34.2548C33.7748 52.296 32.4788 53.208 30.7988 53.208C28.1748 53.208 26.8628 51.768 26.8628 48.92C26.8628 46.488 28.2548 44.92 30.6708 44.92C33.0868 44.92 34.3668 46.488 34.3668 49.608Z" fill="#08407B"/>
<path d="M91.7707 32H85.0987V19.952L74.0587 0.127998H81.8347L88.5547 13.088L94.7467 0.127998H102.427L91.7707 20.048V32ZM44.8011 53H42.5771V48.984L38.8971 42.376H41.4891L43.7291 46.696L45.7931 42.376H48.3531L44.8011 49.016V53ZM50.6877 51.464C51.9517 51.464 52.5917 50.664 52.5917 49.064C52.5917 47.464 51.9517 46.68 50.6877 46.68C49.4237 46.68 48.7837 47.464 48.7837 49.064C48.7837 50.664 49.4237 51.464 50.6877 51.464ZM50.6877 53.208C48.1437 53.208 46.6397 51.512 46.6397 49.064C46.6397 46.568 48.1917 44.92 50.6877 44.92C53.1517 44.92 54.6877 46.552 54.6877 49.064C54.6877 51.56 53.1357 53.208 50.6877 53.208ZM62.6887 53H60.7207V51.896C60.1767 52.792 59.3607 53.208 58.2727 53.208C56.7047 53.208 55.6007 52.04 55.6007 50.312V45.128H57.6807V49.992C57.6807 50.984 58.1287 51.464 59.0087 51.464C60.0647 51.464 60.6247 50.712 60.6247 49.672V45.128H62.6887V53ZM65.8407 53H63.7607V45.128H65.7127V46.072C66.4007 45.016 67.2007 44.92 68.0487 44.92H68.3207V47.048C68.1287 47.016 67.9367 47 67.7447 47C66.4647 47 65.8407 47.64 65.8407 48.904V53Z" fill="#7CCDEF"/>
<path d="M115.846 15.008H122.182C126.022 15.008 127.606 13.04 127.606 10.256C127.606 7.616 126.022 5.648 122.182 5.648H115.846V15.008ZM115.846 32H109.174V0.127998H123.238C129.478 0.127998 133.462 4.688 133.462 10.448C133.462 16.256 129.478 20.432 123.238 20.432H115.846V32ZM75.2567 47.336H77.3687C78.6487 47.336 79.1767 46.68 79.1767 45.752C79.1767 44.872 78.6487 44.216 77.3687 44.216H75.2567V47.336ZM75.2567 53H73.0327V42.376H77.7207C79.8007 42.376 81.1287 43.896 81.1287 45.816C81.1287 47.752 79.8007 49.144 77.7207 49.144H75.2567V53ZM85.6596 51.464C86.9236 51.464 87.5636 50.664 87.5636 49.064C87.5636 47.464 86.9236 46.68 85.6596 46.68C84.3956 46.68 83.7556 47.464 83.7556 49.064C83.7556 50.664 84.3956 51.464 85.6596 51.464ZM85.6596 53.208C83.1156 53.208 81.6116 51.512 81.6116 49.064C81.6116 46.568 83.1636 44.92 85.6596 44.92C88.1236 44.92 89.6596 46.552 89.6596 49.064C89.6596 51.56 88.1076 53.208 85.6596 53.208ZM95.0366 49.864V47.816H96.9726V50.056C96.9726 51.72 96.0126 53.208 93.7886 53.208C91.4846 53.208 90.5726 51.736 90.5726 50.04V43H92.6206V45.128H96.9726V46.6H92.6206V49.832C92.6206 50.824 92.9726 51.4 93.8206 51.4C94.6526 51.4 95.0366 50.84 95.0366 49.864ZM99.9506 48.296H103.167C103.135 47.128 102.367 46.568 101.551 46.568C100.719 46.568 100.031 47.208 99.9506 48.296ZM105.311 49.608H99.8866C99.9506 50.792 100.623 51.56 101.647 51.56C102.319 51.56 102.911 51.224 103.055 50.68H105.199C104.719 52.296 103.423 53.208 101.743 53.208C99.1186 53.208 97.8066 51.768 97.8066 48.92C97.8066 46.488 99.1986 44.92 101.615 44.92C104.031 44.92 105.311 46.488 105.311 49.608ZM113.325 53H111.229V48.232C111.229 47.016 110.877 46.68 109.885 46.68C108.797 46.68 108.269 47.288 108.269 48.488V53H106.189V45.128H108.173V46.28C108.653 45.4 109.453 44.92 110.717 44.92C112.221 44.92 113.325 45.832 113.325 47.544V53ZM118.86 49.864V47.816H120.796V50.056C120.796 51.72 119.836 53.208 117.612 53.208C115.308 53.208 114.396 51.736 114.396 50.04V43H116.444V45.128H120.796V46.6H116.444V49.832C116.444 50.824 116.796 51.4 117.644 51.4C118.476 51.4 118.86 50.84 118.86 49.864ZM123.934 53H121.854V45.128H123.934V53ZM123.934 44.184H121.854V42.248H123.934V44.184ZM129.812 50.008L129.828 49.144C129.62 49.352 129.252 49.464 128.484 49.608C127.3 49.832 126.916 50.168 126.916 50.84C126.916 51.432 127.268 51.72 127.924 51.72C128.996 51.72 129.796 50.936 129.812 50.008ZM131.908 53H129.972C129.908 52.808 129.86 52.536 129.844 52.296C129.348 52.84 128.516 53.208 127.46 53.208C125.668 53.208 124.836 52.328 124.836 51.048C124.836 48.776 126.356 48.52 128.452 48.232C129.492 48.088 129.78 47.88 129.78 47.336C129.78 46.824 129.268 46.52 128.452 46.52C127.508 46.52 127.124 46.984 127.028 47.688H125.092C125.124 46.056 126.02 44.92 128.548 44.92C131.044 44.92 131.908 46.04 131.908 48.024V53ZM135.066 53H132.986V42.248H135.066V53Z" fill="#19FACC"/>
<path d="M164.286 32H140.094V0.127998H163.518V5.696H146.574V12.512H162.174V18.128H146.574V26.336H164.286V32ZM148.134 53H140.07V42.376H147.878V44.232H142.23V46.504H147.43V48.376H142.23V51.112H148.134V53ZM156.186 53H153.642L152.266 50.632L150.922 53H148.426L151.066 48.984L148.506 45.128H151.018L152.346 47.416L153.69 45.128H156.106L153.498 48.984L156.186 53ZM160.603 51.432C161.819 51.432 162.395 50.616 162.395 49C162.395 47.592 161.659 46.616 160.619 46.616C159.627 46.616 158.859 47.544 158.859 48.872C158.859 50.584 159.451 51.432 160.603 51.432ZM158.939 56.728H156.891V45.128H158.891L158.907 46.088C159.403 45.288 160.139 44.92 161.099 44.92C163.083 44.92 164.507 46.488 164.507 49.144C164.507 51.528 163.307 53.208 161.275 53.208C160.299 53.208 159.531 52.808 158.939 51.976V56.728ZM167.394 48.296H170.61C170.578 47.128 169.81 46.568 168.994 46.568C168.162 46.568 167.474 47.208 167.394 48.296ZM172.754 49.608H167.33C167.394 50.792 168.066 51.56 169.09 51.56C169.762 51.56 170.354 51.224 170.498 50.68H172.642C172.162 52.296 170.866 53.208 169.186 53.208C166.562 53.208 165.25 51.768 165.25 48.92C165.25 46.488 166.642 44.92 169.058 44.92C171.474 44.92 172.754 46.488 172.754 49.608ZM175.713 53H173.633V45.128H175.585V46.072C176.273 45.016 177.073 44.92 177.921 44.92H178.193V47.048C178.001 47.016 177.809 47 177.617 47C176.337 47 175.713 47.64 175.713 48.904V53ZM183.398 49.864V47.816H185.334V50.056C185.334 51.72 184.374 53.208 182.15 53.208C179.846 53.208 178.934 51.736 178.934 50.04V43H180.982V45.128H185.334V46.6H180.982V49.832C180.982 50.824 181.334 51.4 182.182 51.4C183.014 51.4 183.398 50.84 183.398 49.864ZM188.472 53H186.392V45.128H188.472V53ZM188.472 44.184H186.392V42.248H188.472V44.184ZM196.318 47.512H194.318C194.206 46.744 193.79 46.472 192.846 46.472C192.062 46.472 191.614 46.664 191.614 47.128C191.614 47.592 192.046 47.784 192.894 48.024C193.79 48.28 194.638 48.456 195.246 48.696C196.078 49.032 196.542 49.576 196.542 50.6C196.542 52.232 195.342 53.208 193.102 53.208C190.686 53.208 189.342 52.072 189.31 50.472H191.454C191.454 51.208 192.078 51.64 193.086 51.64C193.822 51.64 194.478 51.416 194.478 50.824C194.478 50.264 193.886 50.088 193.214 49.928C191.886 49.608 191.15 49.384 190.59 49.032C189.854 48.568 189.598 47.96 189.598 47.256C189.598 45.928 190.51 44.92 192.91 44.92C195.182 44.92 196.206 45.816 196.318 47.512ZM199.257 48.296H202.473C202.441 47.128 201.673 46.568 200.857 46.568C200.025 46.568 199.337 47.208 199.257 48.296ZM204.617 49.608H199.193C199.257 50.792 199.929 51.56 200.953 51.56C201.625 51.56 202.217 51.224 202.361 50.68H204.505C204.025 52.296 202.729 53.208 201.049 53.208C198.425 53.208 197.113 51.768 197.113 48.92C197.113 46.488 198.505 44.92 200.921 44.92C203.337 44.92 204.617 46.488 204.617 49.608Z" fill="#F69221"/>
</svg>
