<svg width="1920" height="1080" viewBox="0 0 1920 1080" fill="none" xmlns="http://www.w3.org/2000/svg">
<mask id="mask0_1299_21142" style="mask-type:alpha" maskUnits="userSpaceOnUse" x="0" y="0" width="1920" height="1080">
<rect width="1920" height="1080" fill="#E5E7EB"/>
</mask>
<g mask="url(#mask0_1299_21142)">
<path fill-rule="evenodd" clip-rule="evenodd" d="M970.912 599.912C1006.26 599.912 1034.91 571.258 1034.91 535.912C1034.91 500.566 1006.26 471.912 970.912 471.912C935.565 471.912 906.912 500.566 906.912 535.912C906.912 571.258 935.565 599.912 970.912 599.912ZM970.912 576.912C993.555 576.912 1011.91 558.555 1011.91 535.912C1011.91 513.268 993.555 494.912 970.912 494.912C948.268 494.912 929.912 513.268 929.912 535.912C929.912 558.555 948.268 576.912 970.912 576.912Z" fill="#F3F4F6"/>
<path fill-rule="evenodd" clip-rule="evenodd" d="M479.912 613.912C486.539 613.912 491.912 608.539 491.912 601.912C491.912 595.284 486.539 589.912 479.912 589.912C473.284 589.912 467.912 595.284 467.912 601.912C467.912 608.539 473.284 613.912 479.912 613.912ZM479.912 609.599C484.157 609.599 487.599 606.157 487.599 601.912C487.599 597.666 484.157 594.224 479.912 594.224C475.666 594.224 472.224 597.666 472.224 601.912C472.224 606.157 475.666 609.599 479.912 609.599Z" fill="#F3F4F6"/>
<path fill-rule="evenodd" clip-rule="evenodd" d="M1219.91 308.912C1226.54 308.912 1231.91 303.539 1231.91 296.912C1231.91 290.284 1226.54 284.912 1219.91 284.912C1213.28 284.912 1207.91 290.284 1207.91 296.912C1207.91 303.539 1213.28 308.912 1219.91 308.912ZM1219.91 304.599C1224.16 304.599 1227.6 301.157 1227.6 296.912C1227.6 292.666 1224.16 289.224 1219.91 289.224C1215.67 289.224 1212.22 292.666 1212.22 296.912C1212.22 301.157 1215.67 304.599 1219.91 304.599Z" fill="#F3F4F6"/>
<path fill-rule="evenodd" clip-rule="evenodd" d="M1782.91 868.912C1789.54 868.912 1794.91 863.539 1794.91 856.912C1794.91 850.284 1789.54 844.912 1782.91 844.912C1776.28 844.912 1770.91 850.284 1770.91 856.912C1770.91 863.539 1776.28 868.912 1782.91 868.912ZM1782.91 864.599C1787.16 864.599 1790.6 861.157 1790.6 856.912C1790.6 852.666 1787.16 849.224 1782.91 849.224C1778.67 849.224 1775.22 852.666 1775.22 856.912C1775.22 861.157 1778.67 864.599 1782.91 864.599Z" fill="#F3F4F6"/>
<path fill-rule="evenodd" clip-rule="evenodd" d="M1049.91 978.912C1056.54 978.912 1061.91 973.539 1061.91 966.912C1061.91 960.284 1056.54 954.912 1049.91 954.912C1043.28 954.912 1037.91 960.284 1037.91 966.912C1037.91 973.539 1043.28 978.912 1049.91 978.912ZM1049.91 974.599C1054.16 974.599 1057.6 971.157 1057.6 966.912C1057.6 962.666 1054.16 959.224 1049.91 959.224C1045.67 959.224 1042.22 962.666 1042.22 966.912C1042.22 971.157 1045.67 974.599 1049.91 974.599Z" fill="#F3F4F6"/>
<circle cx="228.869" cy="880.911" r="4" fill="#F3F4F6"/>
<circle cx="216.869" cy="880.911" r="4" fill="#F3F4F6"/>
<circle cx="228.869" cy="892.911" r="4" fill="#F3F4F6"/>
<circle cx="216.869" cy="892.911" r="4" fill="#F3F4F6"/>
<circle cx="216.869" cy="904.911" r="4" fill="#F3F4F6"/>
<circle cx="228.869" cy="868.911" r="4" fill="#F3F4F6"/>
<circle cx="216.869" cy="868.911" r="4" fill="#F3F4F6"/>
<circle cx="228.869" cy="856.911" r="4" fill="#F3F4F6"/>
<circle cx="216.869" cy="856.911" r="4" fill="#F3F4F6"/>
<circle cx="240.869" cy="856.911" r="4" fill="#F3F4F6"/>
<circle cx="240.869" cy="868.911" r="4" fill="#F3F4F6"/>
<circle cx="240.869" cy="880.911" r="4" fill="#F3F4F6"/>
<circle cx="252.869" cy="856.911" r="4" fill="#F3F4F6"/>
<circle cx="252.869" cy="868.911" r="4" fill="#F3F4F6"/>
<circle cx="264.869" cy="856.911" r="4" fill="#F3F4F6"/>
<circle cx="228.869" cy="880.911" r="4" fill="#F3F4F6"/>
<circle cx="216.869" cy="880.911" r="4" fill="#F3F4F6"/>
<circle cx="228.869" cy="892.911" r="4" fill="#F3F4F6"/>
<circle cx="216.869" cy="892.911" r="4" fill="#F3F4F6"/>
<circle cx="216.869" cy="904.911" r="4" fill="#F3F4F6"/>
<circle cx="228.869" cy="868.911" r="4" fill="#F3F4F6"/>
<circle cx="216.869" cy="868.911" r="4" fill="#F3F4F6"/>
<circle cx="228.869" cy="856.911" r="4" fill="#F3F4F6"/>
<circle cx="216.869" cy="856.911" r="4" fill="#F3F4F6"/>
<circle cx="240.869" cy="856.911" r="4" fill="#F3F4F6"/>
<circle cx="240.869" cy="868.911" r="4" fill="#F3F4F6"/>
<circle cx="240.869" cy="880.911" r="4" fill="#F3F4F6"/>
<circle cx="252.869" cy="856.911" r="4" fill="#F3F4F6"/>
<circle cx="252.869" cy="868.911" r="4" fill="#F3F4F6"/>
<circle cx="264.869" cy="856.911" r="4" fill="#F3F4F6"/>
<circle cx="825.912" cy="239.912" r="4" transform="rotate(-90 825.912 239.912)" fill="#F3F4F6"/>
<circle cx="825.912" cy="251.912" r="4" transform="rotate(-90 825.912 251.912)" fill="#F3F4F6"/>
<circle cx="837.912" cy="239.912" r="4" transform="rotate(-90 837.912 239.912)" fill="#F3F4F6"/>
<circle cx="837.912" cy="251.912" r="4" transform="rotate(-90 837.912 251.912)" fill="#F3F4F6"/>
<circle cx="849.912" cy="251.912" r="4" transform="rotate(-90 849.912 251.912)" fill="#F3F4F6"/>
<circle cx="813.912" cy="239.912" r="4" transform="rotate(-90 813.912 239.912)" fill="#F3F4F6"/>
<circle cx="813.912" cy="251.912" r="4" transform="rotate(-90 813.912 251.912)" fill="#F3F4F6"/>
<circle cx="801.912" cy="239.912" r="4" transform="rotate(-90 801.912 239.912)" fill="#F3F4F6"/>
<circle cx="801.912" cy="251.912" r="4" transform="rotate(-90 801.912 251.912)" fill="#F3F4F6"/>
<circle cx="801.912" cy="227.912" r="4" transform="rotate(-90 801.912 227.912)" fill="#F3F4F6"/>
<circle cx="813.912" cy="227.912" r="4" transform="rotate(-90 813.912 227.912)" fill="#F3F4F6"/>
<circle cx="825.912" cy="227.912" r="4" transform="rotate(-90 825.912 227.912)" fill="#F3F4F6"/>
<circle cx="801.912" cy="215.912" r="4" transform="rotate(-90 801.912 215.912)" fill="#F3F4F6"/>
<circle cx="813.912" cy="215.912" r="4" transform="rotate(-90 813.912 215.912)" fill="#F3F4F6"/>
<circle cx="801.912" cy="203.912" r="4" transform="rotate(-90 801.912 203.912)" fill="#F3F4F6"/>
<circle cx="1605.91" cy="247.912" r="4" fill="#F3F4F6"/>
<circle cx="1605.91" cy="263.912" r="4" fill="#F3F4F6"/>
<circle cx="1605.91" cy="279.912" r="4" fill="#F3F4F6"/>
<circle cx="1605.91" cy="231.912" r="4" fill="#F3F4F6"/>
<circle cx="1605.91" cy="215.912" r="4" fill="#F3F4F6"/>
<circle cx="1621.91" cy="247.912" r="4" fill="#F3F4F6"/>
<circle cx="1621.91" cy="263.912" r="4" fill="#F3F4F6"/>
<circle cx="1621.91" cy="279.912" r="4" fill="#F3F4F6"/>
<circle cx="1621.91" cy="231.912" r="4" fill="#F3F4F6"/>
<circle cx="1621.91" cy="215.912" r="4" fill="#F3F4F6"/>
<circle cx="1637.91" cy="247.912" r="4" fill="#F3F4F6"/>
<circle cx="1637.91" cy="263.912" r="4" fill="#F3F4F6"/>
<circle cx="1637.91" cy="279.912" r="4" fill="#F3F4F6"/>
<circle cx="1637.91" cy="231.912" r="4" fill="#F3F4F6"/>
<circle cx="1637.91" cy="215.912" r="4" fill="#F3F4F6"/>
<circle cx="1653.91" cy="247.912" r="4" fill="#F3F4F6"/>
<circle cx="1669.91" cy="247.912" r="4" fill="#F3F4F6"/>
<circle cx="1653.91" cy="263.912" r="4" fill="#F3F4F6"/>
<circle cx="1669.91" cy="263.912" r="4" fill="#F3F4F6"/>
<circle cx="1653.91" cy="279.912" r="4" fill="#F3F4F6"/>
<circle cx="1669.91" cy="279.912" r="4" fill="#F3F4F6"/>
<circle cx="1653.91" cy="231.912" r="4" fill="#F3F4F6"/>
<circle cx="1669.91" cy="231.912" r="4" fill="#F3F4F6"/>
<circle cx="1653.91" cy="215.912" r="4" fill="#F3F4F6"/>
<circle cx="1669.91" cy="215.912" r="4" fill="#F3F4F6"/>
<circle cx="153.284" cy="175.539" r="4" transform="rotate(-45 153.284 175.539)" fill="#F3F4F6"/>
<circle cx="164.598" cy="186.853" r="4" transform="rotate(-45 164.598 186.853)" fill="#F3F4F6"/>
<circle cx="175.912" cy="198.167" r="4" transform="rotate(-45 175.912 198.167)" fill="#F3F4F6"/>
<circle cx="141.97" cy="164.225" r="4" transform="rotate(-45 141.97 164.225)" fill="#F3F4F6"/>
<circle cx="130.657" cy="152.912" r="4" transform="rotate(-45 130.657 152.912)" fill="#F3F4F6"/>
<circle cx="164.598" cy="164.225" r="4" transform="rotate(-45 164.598 164.225)" fill="#F3F4F6"/>
<circle cx="175.912" cy="175.539" r="4" transform="rotate(-45 175.912 175.539)" fill="#F3F4F6"/>
<circle cx="187.225" cy="186.853" r="4" transform="rotate(-45 187.225 186.853)" fill="#F3F4F6"/>
<circle cx="153.284" cy="152.912" r="4" transform="rotate(-45 153.284 152.912)" fill="#F3F4F6"/>
<circle cx="141.97" cy="141.598" r="4" transform="rotate(-45 141.97 141.598)" fill="#F3F4F6"/>
<circle cx="175.912" cy="152.912" r="4" transform="rotate(-45 175.912 152.912)" fill="#F3F4F6"/>
<circle cx="187.225" cy="164.225" r="4" transform="rotate(-45 187.225 164.225)" fill="#F3F4F6"/>
<circle cx="198.539" cy="175.539" r="4" transform="rotate(-45 198.539 175.539)" fill="#F3F4F6"/>
<circle cx="164.598" cy="141.598" r="4" transform="rotate(-45 164.598 141.598)" fill="#F3F4F6"/>
<circle cx="153.284" cy="130.284" r="4" transform="rotate(-45 153.284 130.284)" fill="#F3F4F6"/>
<circle cx="187.225" cy="141.598" r="4" transform="rotate(-45 187.225 141.598)" fill="#F3F4F6"/>
<circle cx="198.539" cy="130.284" r="4" transform="rotate(-45 198.539 130.284)" fill="#F3F4F6"/>
<circle cx="198.539" cy="152.912" r="4" transform="rotate(-45 198.539 152.912)" fill="#F3F4F6"/>
<circle cx="209.853" cy="141.598" r="4" transform="rotate(-45 209.853 141.598)" fill="#F3F4F6"/>
<circle cx="209.853" cy="164.225" r="4" transform="rotate(-45 209.853 164.225)" fill="#F3F4F6"/>
<circle cx="221.167" cy="152.912" r="4" transform="rotate(-45 221.167 152.912)" fill="#F3F4F6"/>
<circle cx="175.912" cy="130.284" r="4" transform="rotate(-45 175.912 130.284)" fill="#F3F4F6"/>
<circle cx="187.225" cy="118.971" r="4" transform="rotate(-45 187.225 118.971)" fill="#F3F4F6"/>
<circle cx="164.598" cy="118.971" r="4" transform="rotate(-45 164.598 118.971)" fill="#F3F4F6"/>
<circle cx="175.912" cy="107.657" r="4" transform="rotate(-45 175.912 107.657)" fill="#F3F4F6"/>
<path d="M1369.91 774.328L1374.33 769.912L1375.91 771.495L1371.49 775.912L1375.91 780.328L1374.33 781.912L1369.91 777.495L1365.49 781.912L1363.91 780.328L1368.33 775.912L1363.91 771.495L1365.49 769.912L1369.91 774.328Z" fill="#F3F4F6"/>
<path d="M1369.91 790.328L1374.33 785.912L1375.91 787.495L1371.49 791.912L1375.91 796.328L1374.33 797.912L1369.91 793.495L1365.49 797.912L1363.91 796.328L1368.33 791.912L1363.91 787.495L1365.49 785.912L1369.91 790.328Z" fill="#F3F4F6"/>
<path d="M1369.91 806.328L1374.33 801.912L1375.91 803.495L1371.49 807.912L1375.91 812.328L1374.33 813.912L1369.91 809.495L1365.49 813.912L1363.91 812.328L1368.33 807.912L1363.91 803.495L1365.49 801.912L1369.91 806.328Z" fill="#F3F4F6"/>
<path d="M1369.91 822.328L1374.33 817.912L1375.91 819.495L1371.49 823.912L1375.91 828.328L1374.33 829.912L1369.91 825.495L1365.49 829.912L1363.91 828.328L1368.33 823.912L1363.91 819.495L1365.49 817.912L1369.91 822.328Z" fill="#F3F4F6"/>
<path d="M1369.91 822.328L1374.33 817.912L1375.91 819.495L1371.49 823.912L1375.91 828.328L1374.33 829.912L1369.91 825.495L1365.49 829.912L1363.91 828.328L1368.33 823.912L1363.91 819.495L1365.49 817.912L1369.91 822.328Z" fill="#F3F4F6"/>
<path d="M1369.91 838.328L1374.33 833.912L1375.91 835.495L1371.49 839.912L1375.91 844.328L1374.33 845.912L1369.91 841.495L1365.49 845.912L1363.91 844.328L1368.33 839.912L1363.91 835.495L1365.49 833.912L1369.91 838.328Z" fill="#F3F4F6"/>
<path d="M1385.91 774.328L1390.33 769.912L1391.91 771.495L1387.49 775.912L1391.91 780.328L1390.33 781.912L1385.91 777.495L1381.49 781.912L1379.91 780.328L1384.33 775.912L1379.91 771.495L1381.49 769.912L1385.91 774.328Z" fill="#F3F4F6"/>
<path d="M1385.91 790.328L1390.33 785.912L1391.91 787.495L1387.49 791.912L1391.91 796.328L1390.33 797.912L1385.91 793.495L1381.49 797.912L1379.91 796.328L1384.33 791.912L1379.91 787.495L1381.49 785.912L1385.91 790.328Z" fill="#F3F4F6"/>
<path d="M1385.91 806.328L1390.33 801.912L1391.91 803.495L1387.49 807.912L1391.91 812.328L1390.33 813.912L1385.91 809.495L1381.49 813.912L1379.91 812.328L1384.33 807.912L1379.91 803.495L1381.49 801.912L1385.91 806.328Z" fill="#F3F4F6"/>
<path d="M1385.91 822.328L1390.33 817.912L1391.91 819.495L1387.49 823.912L1391.91 828.328L1390.33 829.912L1385.91 825.495L1381.49 829.912L1379.91 828.328L1384.33 823.912L1379.91 819.495L1381.49 817.912L1385.91 822.328Z" fill="#F3F4F6"/>
<path d="M1385.91 838.328L1390.33 833.912L1391.91 835.495L1387.49 839.912L1391.91 844.328L1390.33 845.912L1385.91 841.495L1381.49 845.912L1379.91 844.328L1384.33 839.912L1379.91 835.495L1381.49 833.912L1385.91 838.328Z" fill="#F3F4F6"/>
<path d="M1401.91 774.328L1406.33 769.912L1407.91 771.495L1403.49 775.912L1407.91 780.328L1406.33 781.912L1401.91 777.495L1397.49 781.912L1395.91 780.328L1400.33 775.912L1395.91 771.495L1397.49 769.912L1401.91 774.328Z" fill="#F3F4F6"/>
<path d="M1401.91 790.328L1406.33 785.912L1407.91 787.495L1403.49 791.912L1407.91 796.328L1406.33 797.912L1401.91 793.495L1397.49 797.912L1395.91 796.328L1400.33 791.912L1395.91 787.495L1397.49 785.912L1401.91 790.328Z" fill="#F3F4F6"/>
<path d="M1401.91 806.328L1406.33 801.912L1407.91 803.495L1403.49 807.912L1407.91 812.328L1406.33 813.912L1401.91 809.495L1397.49 813.912L1395.91 812.328L1400.33 807.912L1395.91 803.495L1397.49 801.912L1401.91 806.328Z" fill="#F3F4F6"/>
<path d="M1401.91 822.328L1406.33 817.912L1407.91 819.495L1403.49 823.912L1407.91 828.328L1406.33 829.912L1401.91 825.495L1397.49 829.912L1395.91 828.328L1400.33 823.912L1395.91 819.495L1397.49 817.912L1401.91 822.328Z" fill="#F3F4F6"/>
<path d="M1401.91 838.328L1406.33 833.912L1407.91 835.495L1403.49 839.912L1407.91 844.328L1406.33 845.912L1401.91 841.495L1397.49 845.912L1395.91 844.328L1400.33 839.912L1395.91 835.495L1397.49 833.912L1401.91 838.328Z" fill="#F3F4F6"/>
<path d="M1417.91 774.328L1422.33 769.912L1423.91 771.495L1419.49 775.912L1423.91 780.328L1422.33 781.912L1417.91 777.495L1413.49 781.912L1411.91 780.328L1416.33 775.912L1411.91 771.495L1413.49 769.912L1417.91 774.328Z" fill="#F3F4F6"/>
<path d="M1433.91 774.328L1438.33 769.912L1439.91 771.495L1435.49 775.912L1439.91 780.328L1438.33 781.912L1433.91 777.495L1429.49 781.912L1427.91 780.328L1432.33 775.912L1427.91 771.495L1429.49 769.912L1433.91 774.328Z" fill="#F3F4F6"/>
<path d="M1417.91 790.328L1422.33 785.912L1423.91 787.495L1419.49 791.912L1423.91 796.328L1422.33 797.912L1417.91 793.495L1413.49 797.912L1411.91 796.328L1416.33 791.912L1411.91 787.495L1413.49 785.912L1417.91 790.328Z" fill="#F3F4F6"/>
<path d="M1433.91 790.328L1438.33 785.912L1439.91 787.495L1435.49 791.912L1439.91 796.328L1438.33 797.912L1433.91 793.495L1429.49 797.912L1427.91 796.328L1432.33 791.912L1427.91 787.495L1429.49 785.912L1433.91 790.328Z" fill="#F3F4F6"/>
<path d="M1417.91 806.328L1422.33 801.912L1423.91 803.495L1419.49 807.912L1423.91 812.328L1422.33 813.912L1417.91 809.495L1413.49 813.912L1411.91 812.328L1416.33 807.912L1411.91 803.495L1413.49 801.912L1417.91 806.328Z" fill="#F3F4F6"/>
<path d="M1433.91 806.328L1438.33 801.912L1439.91 803.495L1435.49 807.912L1439.91 812.328L1438.33 813.912L1433.91 809.495L1429.49 813.912L1427.91 812.328L1432.33 807.912L1427.91 803.495L1429.49 801.912L1433.91 806.328Z" fill="#F3F4F6"/>
<path d="M1417.91 822.328L1422.33 817.912L1423.91 819.495L1419.49 823.912L1423.91 828.328L1422.33 829.912L1417.91 825.495L1413.49 829.912L1411.91 828.328L1416.33 823.912L1411.91 819.495L1413.49 817.912L1417.91 822.328Z" fill="#F3F4F6"/>
<path d="M1433.91 822.328L1438.33 817.912L1439.91 819.495L1435.49 823.912L1439.91 828.328L1438.33 829.912L1433.91 825.495L1429.49 829.912L1427.91 828.328L1432.33 823.912L1427.91 819.495L1429.49 817.912L1433.91 822.328Z" fill="#F3F4F6"/>
<path d="M1417.91 838.328L1422.33 833.912L1423.91 835.495L1419.49 839.912L1423.91 844.328L1422.33 845.912L1417.91 841.495L1413.49 845.912L1411.91 844.328L1416.33 839.912L1411.91 835.495L1413.49 833.912L1417.91 838.328Z" fill="#F3F4F6"/>
<path d="M1433.91 838.328L1438.33 833.912L1439.91 835.495L1435.49 839.912L1439.91 844.328L1438.33 845.912L1433.91 841.495L1429.49 845.912L1427.91 844.328L1432.33 839.912L1427.91 835.495L1429.49 833.912L1433.91 838.328Z" fill="#F3F4F6"/>
<path d="M665.537 762.792L665.537 756.546L667.776 756.546L667.776 762.792H674.022L674.022 765.031L667.776 765.031L667.776 771.277L665.537 771.277L665.537 765.031L659.291 765.031L659.291 762.792L665.537 762.792Z" fill="#F3F4F6"/>
<path d="M676.851 774.106L676.851 767.86L679.09 767.86L679.09 774.106H685.336L685.336 776.345L679.09 776.345L679.09 782.591L676.851 782.591L676.851 776.345L670.604 776.345L670.604 774.106L676.851 774.106Z" fill="#F3F4F6"/>
<path d="M688.164 785.419L688.165 779.173L690.404 779.173L690.404 785.419H696.65L696.65 787.659L690.404 787.659L690.404 793.905L688.165 793.905L688.164 787.659L681.918 787.659L681.918 785.419L688.164 785.419Z" fill="#F3F4F6"/>
<path d="M699.478 796.733L699.478 790.487L701.717 790.487L701.717 796.733H707.963L707.963 798.972L701.717 798.972L701.717 805.218L699.478 805.218L699.478 798.972L693.232 798.972L693.232 796.733L699.478 796.733Z" fill="#F3F4F6"/>
<path d="M699.478 796.733L699.478 790.487L701.717 790.487L701.717 796.733H707.963L707.963 798.972L701.717 798.972L701.717 805.218L699.478 805.218L699.478 798.972L693.232 798.972L693.232 796.733L699.478 796.733Z" fill="#F3F4F6"/>
<path d="M710.792 808.047L710.792 801.801L713.031 801.801L713.031 808.047H719.277L719.277 810.286L713.031 810.286L713.031 816.532L710.792 816.532L710.792 810.286L704.546 810.286L704.546 808.047L710.792 808.047Z" fill="#F3F4F6"/>
<path d="M676.851 751.478L676.851 745.232L679.09 745.232L679.09 751.478H685.336L685.336 753.717L679.09 753.717L679.09 759.964L676.851 759.964L676.851 753.717L670.604 753.717L670.604 751.478L676.851 751.478Z" fill="#F3F4F6"/>
<path d="M688.164 762.792L688.165 756.546L690.404 756.546L690.404 762.792H696.65L696.65 765.031L690.404 765.031L690.404 771.277L688.165 771.277L688.164 765.031L681.918 765.031L681.918 762.792L688.164 762.792Z" fill="#F3F4F6"/>
<path d="M699.478 774.106L699.478 767.86L701.717 767.86L701.717 774.106H707.963L707.963 776.345L701.717 776.345L701.717 782.591L699.478 782.591L699.478 776.345L693.232 776.345L693.232 774.106L699.478 774.106Z" fill="#F3F4F6"/>
<path d="M710.792 785.419L710.792 779.173L713.031 779.173L713.031 785.419H719.277L719.277 787.659L713.031 787.659L713.031 793.905L710.792 793.905L710.792 787.659L704.546 787.659L704.546 785.419L710.792 785.419Z" fill="#F3F4F6"/>
<path d="M722.105 796.733L722.105 790.487L724.345 790.487L724.345 796.733H730.591L730.591 798.972L724.345 798.972L724.345 805.218L722.105 805.218L722.105 798.972L715.859 798.972L715.859 796.733L722.105 796.733Z" fill="#F3F4F6"/>
<path d="M688.164 740.165L688.165 733.918L690.404 733.918L690.404 740.165H696.65L696.65 742.404L690.404 742.404L690.404 748.65L688.165 748.65L688.164 742.404L681.918 742.404L681.918 740.165L688.164 740.165Z" fill="#F3F4F6"/>
<path d="M699.478 751.478L699.478 745.232L701.717 745.232L701.717 751.478H707.963L707.963 753.717L701.717 753.717L701.717 759.964L699.478 759.964L699.478 753.717L693.232 753.717L693.232 751.478L699.478 751.478Z" fill="#F3F4F6"/>
<path d="M710.792 762.792L710.792 756.546L713.031 756.546L713.031 762.792H719.277L719.277 765.031L713.031 765.031L713.031 771.277L710.792 771.277L710.792 765.031L704.546 765.031L704.546 762.792L710.792 762.792Z" fill="#F3F4F6"/>
<path d="M722.105 774.106L722.105 767.86L724.345 767.86L724.345 774.106H730.591L730.591 776.345L724.345 776.345L724.345 782.591L722.105 782.591L722.105 776.345L715.859 776.345L715.859 774.106L722.105 774.106Z" fill="#F3F4F6"/>
<path d="M733.419 785.419L733.419 779.173L735.659 779.173L735.659 785.419H741.905L741.905 787.659L735.659 787.659L735.659 793.905L733.419 793.905L733.419 787.659L727.173 787.659L727.173 785.419L733.419 785.419Z" fill="#F3F4F6"/>
<path d="M699.478 728.851L699.478 722.605L701.717 722.605L701.717 728.851H707.963L707.963 731.09L701.717 731.09L701.717 737.336L699.478 737.336L699.478 731.09L693.232 731.09L693.232 728.851L699.478 728.851Z" fill="#F3F4F6"/>
<path d="M710.792 717.537L710.792 711.291L713.031 711.291L713.031 717.537H719.277L719.277 719.776L713.031 719.776L713.031 726.022L710.792 726.022L710.792 719.776L704.546 719.776L704.546 717.537L710.792 717.537Z" fill="#F3F4F6"/>
<path d="M710.792 740.165L710.792 733.918L713.031 733.918L713.031 740.165H719.277L719.277 742.404L713.031 742.404L713.031 748.65L710.792 748.65L710.792 742.404L704.546 742.404L704.546 740.165L710.792 740.165Z" fill="#F3F4F6"/>
<path d="M722.105 728.851L722.105 722.605L724.345 722.605L724.345 728.851H730.591L730.591 731.09L724.345 731.09L724.345 737.336L722.105 737.336L722.105 731.09L715.859 731.09L715.859 728.851L722.105 728.851Z" fill="#F3F4F6"/>
<path d="M722.105 751.478L722.105 745.232L724.345 745.232L724.345 751.478H730.591L730.591 753.717L724.345 753.717L724.345 759.964L722.105 759.964L722.105 753.717L715.859 753.717L715.859 751.478L722.105 751.478Z" fill="#F3F4F6"/>
<path d="M733.419 740.165L733.419 733.918L735.659 733.918L735.659 740.165H741.905L741.905 742.404L735.659 742.404L735.659 748.65L733.419 748.65L733.419 742.404L727.173 742.404L727.173 740.165L733.419 740.165Z" fill="#F3F4F6"/>
<path d="M733.419 762.792L733.419 756.546L735.659 756.546L735.659 762.792L741.905 762.792L741.905 765.031L735.659 765.031L735.659 771.277L733.419 771.277L733.419 765.031L727.173 765.031L727.173 762.792L733.419 762.792Z" fill="#F3F4F6"/>
<path d="M744.733 751.478L744.733 745.232L746.972 745.232L746.972 751.478L753.218 751.478L753.218 753.717L746.972 753.717L746.972 759.964L744.733 759.964L744.733 753.717L738.487 753.717L738.487 751.478L744.733 751.478Z" fill="#F3F4F6"/>
<path d="M744.733 774.106L744.733 767.86L746.972 767.86L746.972 774.106L753.218 774.106L753.218 776.345L746.972 776.345L746.972 782.591L744.733 782.591L744.733 776.345L738.487 776.345L738.487 774.106L744.733 774.106Z" fill="#F3F4F6"/>
<path d="M756.047 762.792L756.047 756.546L758.286 756.546L758.286 762.792L764.532 762.792L764.532 765.031L758.286 765.031L758.286 771.277L756.047 771.277L756.047 765.031L749.801 765.031L749.801 762.792L756.047 762.792Z" fill="#F3F4F6"/>
<path fill-rule="evenodd" clip-rule="evenodd" d="M491.778 275.912H488.445L502.912 290.378V287.046L491.778 275.912ZM502.912 279L499.823 275.912H502.912V279ZM502.912 298.423L480.4 275.912H477.068L502.912 301.756V298.423ZM502.912 309.801L469.022 275.912H465.69L502.912 313.134V309.801ZM502.912 321.179L457.644 275.912H454.312L502.912 324.511V321.179ZM502.912 332.557L446.267 275.912H442.934L502.912 335.889V332.557ZM498.889 339.912L438.912 279.934V283.267L495.556 339.912H498.889ZM487.511 339.912L438.912 291.312V294.645L484.179 339.912H487.511ZM476.133 339.912L438.912 302.69V306.022L472.801 339.912H476.133ZM464.755 339.912L438.912 314.068V317.4L461.423 339.912H464.755ZM453.378 339.912L438.912 325.445V328.778L450.045 339.912H453.378ZM442 339.912L438.912 336.823V339.912H442Z" fill="#F3F4F6"/>
<path fill-rule="evenodd" clip-rule="evenodd" d="M1391.04 466.53L1388.68 468.886L1409.14 468.886L1406.78 466.53L1391.04 466.53ZM1401.1 460.841L1396.73 460.841L1398.91 458.657L1401.1 460.841ZM1414.83 474.575L1382.99 474.575L1380.64 476.931H1417.19L1414.83 474.575ZM1422.87 482.62L1374.95 482.62L1372.59 484.977H1425.23L1422.87 482.62ZM1430.92 490.666L1366.9 490.666L1364.55 493.022L1433.28 493.022L1430.92 490.666ZM1438.97 498.711L1358.86 498.711L1356.5 501.067L1441.32 501.067L1438.97 498.711ZM1441.32 506.756L1356.5 506.756L1358.86 509.113L1438.97 509.113L1441.32 506.756ZM1433.28 514.802L1364.55 514.802L1366.9 517.158H1430.92L1433.28 514.802ZM1425.23 522.847L1372.59 522.847L1374.95 525.203H1422.87L1425.23 522.847ZM1417.19 530.892L1380.64 530.892L1382.99 533.249H1414.83L1417.19 530.892ZM1409.14 538.937L1388.68 538.937L1391.04 541.294L1406.78 541.294L1409.14 538.937ZM1401.1 546.983L1396.73 546.983L1398.91 549.167L1401.1 546.983Z" fill="#F3F4F6"/>
</g>
</svg>
