<svg xmlns="http://www.w3.org/2000/svg" viewBox="0 0 413.0234 294.2438"><defs><style>.cls-1{fill:#13113c;}.cls-2{fill:#7ecbeb;}.cls-3{fill:#f49321;}.cls-4{fill:#231f20;}</style></defs><title>Asset 38</title><g id="Layer_2" data-name="Layer 2"><g id="Layer_2-2" data-name="Layer 2"><path class="cls-1" d="M115.15,168.9a53.7557,53.7557,0,1,1,33.703-95.6356A40.0383,40.0383,0,0,0,174.0065,81.96h.0055c26.3283,0,39.489-32.22,20.3937-50.3463A115.1513,115.1513,0,0,0,.0116,116.8038c.838,59.7189,51.6177,111.5,111.3111,113.4341a114.7715,114.7715,0,0,0,82.9119-31.3936c19.2091-18.1622,6.1981-50.5043-20.2378-50.5043h0a40.2983,40.2983,0,0,0-25.2313,8.76A53.5477,53.5477,0,0,1,115.15,168.9Z"/><path class="cls-1" d="M306.4251,7C267.3338,7,233.45,32.61,216.8606,70H371.9081c22.7073,0,41.1153-19.2729,41.1153-43.0472V7Z"/><path class="cls-2" d="M302.43,160.29H216.8606c16.5142,37.19,50.1361,62.73,88.9863,63h8.3883c.2292.01.468.01.7068.01s.4775,0,.7068-.01h97.3746V203.3373c0-23.7744-18.408-43.0473-41.1153-43.0473H302.43Z"/><path class="cls-3" d="M360.4574,115.14h0c0-17.397-13.47-31.5-30.0863-31.5H213.0343a121.22,121.22,0,0,0,0,63H330.3711C346.9873,146.64,360.4574,132.537,360.4574,115.14Z"/><path class="cls-4" d="M72.8949,274.2731c-1.2129,6.541-5.7183,10.873-12.39,10.873-7.5376,0-13.2988-5.1543-13.2988-15.0312,0-9.7471,5.1548-15.6826,13.3857-15.6826,7.1909,0,11.74,4.5927,12.3028,10.3974H66.8734a6.4869,6.4869,0,0,0-6.2378-5.1982c-4.982,0-7.3213,3.8554-7.3213,10.1367,0,6.3682,2.3393,10.1367,7.0181,10.1367,3.5517,0,5.7177-2.0361,6.541-5.6318Z"/><path class="cls-4" d="M98.4046,284.15a8.2941,8.2941,0,0,1-.3467-1.9062,8.5917,8.5917,0,0,1-6.4545,2.47c-4.8516,0-7.1045-2.3828-7.1045-5.8486,0-6.1514,4.1157-6.8448,9.79-7.6241,2.8154-.39,3.5952-.9531,3.5952-2.4257,0-1.3868-1.3862-2.21-3.5952-2.21-2.5562,0-3.5957,1.2568-3.8555,3.1631H85.1922c.0864-4.419,2.5127-7.4942,9.357-7.4942,6.7578,0,9.0971,3.0323,9.0971,8.4034V284.15Zm-.39-10.44c-.5635.5635-1.56.8672-3.6392,1.2568-3.2056.6065-4.2451,1.5157-4.2451,3.335,0,1.6035.9531,2.3828,2.729,2.3828a4.8992,4.8992,0,0,0,5.1118-4.6348Z"/><path class="cls-4" d="M116.9408,284.15V262.8365h5.2846v2.5557c1.8628-2.8584,4.0288-3.1182,6.3247-3.1182h.7368v5.7608a9.5564,9.5564,0,0,0-1.5595-.13c-3.4658,0-5.1553,1.7334-5.1553,5.1553v11.09Z"/><path class="cls-4" d="M145.5282,274.9664c.1733,3.2051,1.9926,5.2852,4.7651,5.2852a3.7206,3.7206,0,0,0,3.8125-2.3828h5.8047a9.2434,9.2434,0,0,1-9.357,6.8447c-7.1044,0-10.6567-3.8994-10.6567-11.61,0-6.5839,3.7686-10.8291,10.31-10.8291s10.0068,4.2452,10.0068,12.6924Zm8.8808-3.5527c-.0869-3.1621-2.166-4.6777-4.3755-4.6777-2.2524,0-4.1152,1.7324-4.332,4.6777Z"/><path class="cls-4" d="M178.1429,274.9664c.1733,3.2051,1.9927,5.2852,4.7651,5.2852a3.7205,3.7205,0,0,0,3.8125-2.3828h5.8047a9.2434,9.2434,0,0,1-9.3569,6.8447c-7.1045,0-10.6567-3.8994-10.6567-11.61,0-6.5839,3.7685-10.8291,10.31-10.8291s10.0068,4.2452,10.0068,12.6924Zm8.8809-3.5527c-.087-3.1621-2.1661-4.6777-4.3755-4.6777-2.2525,0-4.1153,1.7324-4.3321,4.6777Z"/><path class="cls-4" d="M205.6029,284.15V262.8365h5.2846v2.5557c1.8628-2.8584,4.0288-3.1182,6.3247-3.1182h.7369v5.7608a9.5585,9.5585,0,0,0-1.56-.13c-3.4658,0-5.1553,1.7334-5.1553,5.1553v11.09Z"/><path class="cls-4" d="M251.472,284.15V255.3854h21.14v5.0254H257.32v6.1513h14.0787v5.0684H257.32v7.4082H273.305V284.15Z"/><path class="cls-4" d="M298.5985,284.15l-3.7251-6.4111-3.6392,6.4111h-6.7578l7.1479-10.873-6.9311-10.44h6.8013l3.5952,6.1954,3.6391-6.1954H305.27l-7.0611,10.44,7.2779,10.873Z"/><path class="cls-4" d="M317.784,294.2438V262.8365h5.4151l.0429,2.6a6.4934,6.4934,0,0,1,5.9351-3.1622c5.3711,0,9.2265,4.2452,9.2265,11.4356,0,6.4551-3.249,11.0039-8.75,11.0039a7.3417,7.3417,0,0,1-6.3247-3.3359v12.8662ZM332.6859,273.32c0-3.8115-1.9932-6.4541-4.8086-6.4541-2.6856,0-4.7652,2.5118-4.7652,6.1075,0,4.6357,1.6031,6.9316,4.7217,6.9316C331.1263,279.9049,332.6859,277.6949,332.6859,273.32Z"/><path class="cls-4" d="M350.7884,273.4938c0-6.7578,4.2022-11.22,10.96-11.22,6.6709,0,10.83,4.418,10.83,11.22,0,6.7578-4.2021,11.22-10.83,11.22C354.8607,284.7135,350.7884,280.1217,350.7884,273.4938Zm16.1152,0c0-4.3321-1.7334-6.4551-5.1552-6.4551s-5.1553,2.123-5.1553,6.4551,1.7334,6.498,5.1553,6.498S366.9036,277.8258,366.9036,273.4938Z"/></g></g></svg>