<svg xmlns="http://www.w3.org/2000/svg" viewBox="0 0 203.4584 230.3"><defs><style>.cls-1{fill:#13113c;}.cls-2{fill:#f49321;}</style></defs><title>Asset 43</title><g id="Layer_2" data-name="Layer 2"><g id="Layer_2-2" data-name="Layer 2"><path class="cls-1" d="M115.15,168.9a53.7557,53.7557,0,1,1,33.703-95.6356A40.0383,40.0383,0,0,0,174.0065,81.96h.0055c26.3283,0,39.489-32.22,20.3937-50.3463A115.1513,115.1513,0,0,0,.0116,116.8038c.838,59.7189,51.6177,111.5,111.3111,113.4341a114.7715,114.7715,0,0,0,82.9119-31.3936c19.2091-18.1622,6.1981-50.5043-20.2378-50.5043h0a40.2983,40.2983,0,0,0-25.2313,8.76A53.5477,53.5477,0,0,1,115.15,168.9Z"/><path class="cls-2" d="M157.3851,115.14h0c0-17.397-7.6464-25.0642-16.8511-29.4736-8.9862-4.3048-39.0187-2.0264-39.0187-2.0264h-.0029c-13.4215,0-24.4181,11.6647-24.7493,26.3007q-.0586,2.59-.0588,5.2093,0,2.6089.0584,5.19c.33,14.6359,11.3278,26.3,24.7492,26.3h0s30.1091.9546,39.703-1.7395C149.228,142.65,157.3851,132.537,157.3851,115.14Z"/></g></g></svg>